  0
SECTION
  2
HEADER
  9
$ACADVER
  1
AC1015
  9
$ACADMAINTVER
 70
     6
  9
$DWGCODEPAGE
  3
ANSI_1252
  9
$INSBASE
 10
0.0
 20
0.0
 30
0.0
  9
$EXTMIN
 10
-41.5
 20
-61.0
 30
0.0
  9
$EXTMAX
 10
41.5
 20
61.0
 30
0.0
  9
$LIMMIN
 10
0.0
 20
0.0
  9
$LIMMAX
 10
420.0
 20
297.0
  9
$ORTHOMODE
 70
     0
  9
$REGENMODE
 70
     1
  9
$FILLMODE
 70
     1
  9
$QTEXTMODE
 70
     0
  9
$MIRRTEXT
 70
     1
  9
$LTSCALE
 40
1.0
  9
$ATTMODE
 70
     1
  9
$TEXTSIZE
 40
3.5
  9
$TRACEWID
 40
1.0
  9
$TEXTSTYLE
  7
Standard
  9
$CLAYER
  8
0
  9
$CELTYPE
  6
ByLayer
  9
$CECOLOR
 62
   256
  9
$CELTSCALE
 40
1.0
  9
$DISPSILH
 70
     0
  9
$DIMSCALE
 40
1.0
  9
$DIMASZ
 40
3.302
  9
$DIMEXO
 40
0.0
  9
$DIMDLI
 40
3.75
  9
$DIMRND
 40
0.0
  9
$DIMDLE
 40
0.0
  9
$DIMEXE
 40
1.0
  9
$DIMTP
 40
0.0
  9
$DIMTM
 40
0.0
  9
$DIMTXT
 40
3.5
  9
$DIMCEN
 40
2.5
  9
$DIMTSZ
 40
0.0
  9
$DIMTOL
 70
     0
  9
$DIMLIM
 70
     0
  9
$DIMTIH
 70
     1
  9
$DIMTOH
 70
     1
  9
$DIMSE1
 70
     0
  9
$DIMSE2
 70
     0
  9
$DIMTAD
 70
     1
  9
$DIMZIN
 70
     1
  9
$DIMBLK
  1

  9
$DIMASO
 70
     1
  9
$DIMSHO
 70
     1
  9
$DIMPOST
  1

  9
$DIMAPOST
  1

  9
$DIMALT
 70
     0
  9
$DIMALTD
 70
     3
  9
$DIMALTF
 40
0.0393700787
  9
$DIMLFAC
 40
1.0
  9
$DIMTOFL
 70
     1
  9
$DIMTVP
 40
0.0
  9
$DIMTIX
 70
     0
  9
$DIMSOXD
 70
     0
  9
$DIMSAH
 70
     0
  9
$DIMBLK1
  1

  9
$DIMBLK2
  1

  9
$DIMSTYLE
  2
ISO-25
  9
$DIMCLRD
 70
     0
  9
$DIMCLRE
 70
     0
  9
$DIMCLRT
 70
     0
  9
$DIMTFAC
 40
1.0
  9
$DIMGAP
 40
1.524
  9
$DIMJUST
 70
     0
  9
$DIMSD1
 70
     0
  9
$DIMSD2
 70
     0
  9
$DIMTOLJ
 70
     0
  9
$DIMTZIN
 70
     1
  9
$DIMALTZ
 70
     0
  9
$DIMALTTZ
 70
     0
  9
$DIMUPT
 70
     0
  9
$DIMDEC
 70
     2
  9
$DIMTDEC
 70
     2
  9
$DIMALTU
 70
     2
  9
$DIMALTTD
 70
     3
  9
$DIMTXSTY
  7
Standard
  9
$DIMAUNIT
 70
     0
  9
$DIMADEC
 70
     2
  9
$DIMALTRND
 40
0.0
  9
$DIMAZIN
 70
     0
  9
$DIMDSEP
 70
    44
  9
$DIMATFIT
 70
     3
  9
$DIMFRAC
 70
     0
  9
$DIMLDRBLK
  1

  9
$DIMLUNIT
 70
     2
  9
$DIMLWD
 70
    -2
  9
$DIMLWE
 70
    -2
  9
$DIMTMOVE
 70
     0
  9
$LUNITS
 70
     2
  9
$LUPREC
 70
     2
  9
$SKETCHINC
 40
1.0
  9
$FILLETRAD
 40
10.0
  9
$AUNITS
 70
     0
  9
$AUPREC
 70
     2
  9
$MENU
  1
.
  9
$ELEVATION
 40
0.0
  9
$PELEVATION
 40
0.0
  9
$THICKNESS
 40
0.0
  9
$LIMCHECK
 70
     0
  9
$CHAMFERA
 40
0.0
  9
$CHAMFERB
 40
0.0
  9
$CHAMFERC
 40
0.0
  9
$CHAMFERD
 40
0.0
  9
$SKPOLY
 70
     0
  9
$TDCREATE
 40
2460761.52404213
  9
$TDUCREATE
 40
2460761.294875463
  9
$TDUPDATE
 40
2460761.524088021
  9
$TDUUPDATE
 40
2460761.294921354
  9
$TDINDWG
 40
0.0000000116
  9
$TDUSRTIMER
 40
0.0000000116
  9
$USRTIMER
 70
     1
  9
$ANGBASE
 50
0.0
  9
$ANGDIR
 70
     0
  9
$PDMODE
 70
     0
  9
$PDSIZE
 40
-1.0
  9
$PLINEWID
 40
0.0
  9
$SPLFRAME
 70
     0
  9
$SPLINETYPE
 70
     6
  9
$SPLINESEGS
 70
     8
  9
$HANDSEED
  5
1B4
  9
$SURFTAB1
 70
     6
  9
$SURFTAB2
 70
     6
  9
$SURFTYPE
 70
     6
  9
$SURFU
 70
     6
  9
$SURFV
 70
     6
  9
$UCSBASE
  2

  9
$UCSNAME
  2

  9
$UCSORG
 10
0.0
 20
0.0
 30
0.0
  9
$UCSXDIR
 10
1.0
 20
0.0
 30
0.0
  9
$UCSYDIR
 10
0.0
 20
1.0
 30
0.0
  9
$UCSORTHOREF
  2

  9
$UCSORTHOVIEW
 70
     0
  9
$UCSORGTOP
 10
0.0
 20
0.0
 30
0.0
  9
$UCSORGBOTTOM
 10
0.0
 20
0.0
 30
0.0
  9
$UCSORGLEFT
 10
0.0
 20
0.0
 30
0.0
  9
$UCSORGRIGHT
 10
0.0
 20
0.0
 30
0.0
  9
$UCSORGFRONT
 10
0.0
 20
0.0
 30
0.0
  9
$UCSORGBACK
 10
0.0
 20
0.0
 30
0.0
  9
$PUCSBASE
  2

  9
$PUCSNAME
  2

  9
$PUCSORG
 10
0.0
 20
0.0
 30
0.0
  9
$PUCSXDIR
 10
1.0
 20
0.0
 30
0.0
  9
$PUCSYDIR
 10
0.0
 20
1.0
 30
0.0
  9
$PUCSORTHOREF
  2

  9
$PUCSORTHOVIEW
 70
     0
  9
$PUCSORGTOP
 10
0.0
 20
0.0
 30
0.0
  9
$PUCSORGBOTTOM
 10
0.0
 20
0.0
 30
0.0
  9
$PUCSORGLEFT
 10
0.0
 20
0.0
 30
0.0
  9
$PUCSORGRIGHT
 10
0.0
 20
0.0
 30
0.0
  9
$PUCSORGFRONT
 10
0.0
 20
0.0
 30
0.0
  9
$PUCSORGBACK
 10
0.0
 20
0.0
 30
0.0
  9
$USERI1
 70
     0
  9
$USERI2
 70
     0
  9
$USERI3
 70
     0
  9
$USERI4
 70
     0
  9
$USERI5
 70
     0
  9
$USERR1
 40
0.0
  9
$USERR2
 40
0.0
  9
$USERR3
 40
0.0
  9
$USERR4
 40
0.0
  9
$USERR5
 40
0.0
  9
$WORLDVIEW
 70
     1
  9
$SHADEDGE
 70
     3
  9
$SHADEDIF
 70
    70
  9
$TILEMODE
 70
     1
  9
$MAXACTVP
 70
    64
  9
$PINSBASE
 10
0.0
 20
0.0
 30
0.0
  9
$PLIMCHECK
 70
     0
  9
$PEXTMIN
 10
-41.5
 20
-61.0
 30
0.0
  9
$PEXTMAX
 10
41.5
 20
61.0
 30
0.0
  9
$PLIMMIN
 10
-54.0128205128
 20
-65.6923076923
  9
$PLIMMAX
 10
131.8025641026
 20
65.6923076923
  9
$UNITMODE
 70
     0
  9
$VISRETAIN
 70
     1
  9
$PLINEGEN
 70
     0
  9
$PSLTSCALE
 70
     1
  9
$TREEDEPTH
 70
  3020
  9
$CMLSTYLE
  2
Standard
  9
$CMLJUST
 70
     0
  9
$CMLSCALE
 40
20.0
  9
$PROXYGRAPHICS
 70
     1
  9
$MEASUREMENT
 70
     1
  9
$CELWEIGHT
370
    -1
  9
$ENDCAPS
280
     0
  9
$JOINSTYLE
280
     0
  9
$LWDISPLAY
290
     1
  9
$INSUNITS
 70
     4
  9
$HYPERLINKBASE
  1

  9
$STYLESHEET
  1

  9
$XEDIT
290
     1
  9
$CEPSNTYPE
380
     0
  9
$PSTYLEMODE
290
     1
  9
$FINGERPRINTGUID
  2
{5a484ef6-f1fe-47b2-8bb9-e315e221b492}
  9
$VERSIONGUID
  2
{FAEB1C32-E019-11D5-929B-00C0DF256EC4}
  9
$EXTNAMES
290
     1
  9
$PSVPSCALE
 40
0.0
  9
$OLESTARTUP
290
     0
  0
ENDSEC
  0
SECTION
  2
CLASSES
  0
CLASS
  1
ACDBDICTIONARYWDFLT
  2
AcDbDictionaryWithDefault
  3
ObjectDBX Classes
 90
        0
280
     0
281
     0
  0
CLASS
  1
VISUALSTYLE
  2
AcDbVisualStyle
  3
ObjectDBX Classes
 90
     4095
280
     0
281
     0
  0
CLASS
  1
MATERIAL
  2
AcDbMaterial
  3
ObjectDBX Classes
 90
     1153
280
     0
281
     0
  0
CLASS
  1
SCALE
  2
AcDbScale
  3
ObjectDBX Classes
 90
     1153
280
     0
281
     0
  0
CLASS
  1
TABLESTYLE
  2
AcDbTableStyle
  3
ObjectDBX Classes
 90
     4095
280
     0
281
     0
  0
CLASS
  1
MLEADERSTYLE
  2
AcDbMLeaderStyle
  3
ACDB_MLEADERSTYLE_CLASS
 90
     4095
280
     0
281
     0
  0
CLASS
  1
SUN
  2
AcDbSun
  3
SCENEOE
 90
     1153
280
     0
281
     0
  0
CLASS
  1
ACDBPLACEHOLDER
  2
AcDbPlaceHolder
  3
ObjectDBX Classes
 90
        0
280
     0
281
     0
  0
CLASS
  1
LAYOUT
  2
AcDbLayout
  3
ObjectDBX Classes
 90
        0
280
     0
281
     0
  0
ENDSEC
  0
SECTION
  2
TABLES
  0
TABLE
  2
VPORT
  5
8
330
0
100
AcDbSymbolTable
 70
     1
  0
VPORT
  5
29
330
8
100
AcDbSymbolTableRecord
100
AcDbViewportTableRecord
  2
*Active
 70
     0
 10
0.0
 20
0.0
 11
1.0
 21
1.0
 12
0.0
 22
0.0
 13
0.0
 23
0.0
 14
10.0
 24
10.0
 15
10.0
 25
10.0
 16
0.0
 26
0.0
 36
1.0
 17
0.0
 27
0.0
 37
0.0
 40
124.44
 41
0.6803278689
 42
50.0
 43
0.0
 44
0.0
 50
0.0
 51
0.0
 71
     0
 72
   100
 73
     1
 74
     3
 75
     0
 76
     0
 77
     0
 78
     0
281
     0
 65
     1
110
0.0
120
0.0
130
0.0
111
1.0
121
0.0
131
0.0
112
0.0
122
1.0
132
0.0
 79
     0
146
0.0
  0
ENDTAB
  0
TABLE
  2
LTYPE
  5
5
330
0
100
AcDbSymbolTable
 70
     6
  0
LTYPE
  5
14
330
5
100
AcDbSymbolTableRecord
100
AcDbLinetypeTableRecord
  2
ByBlock
 70
     0
  3

 72
    65
 73
     0
 40
0.0
  0
LTYPE
  5
15
330
5
100
AcDbSymbolTableRecord
100
AcDbLinetypeTableRecord
  2
ByLayer
 70
     0
  3

 72
    65
 73
     0
 40
0.0
  0
LTYPE
  5
16
330
5
100
AcDbSymbolTableRecord
100
AcDbLinetypeTableRecord
  2
Continuous
 70
     0
  3
Solid line
 72
    65
 73
     0
 40
0.0
  0
LTYPE
  5
6E
330
5
100
AcDbSymbolTableRecord
100
AcDbLinetypeTableRecord
  2
HIDDEN
 70
     0
  3
Hidden __ __ __ __ __ __ __ __ __ __ __ __ __ __
 72
    65
 73
     2
 40
1.905
 49
1.27
 74
     0
 49
-0.635
 74
     0
  0
LTYPE
  5
6F
330
5
100
AcDbSymbolTableRecord
100
AcDbLinetypeTableRecord
  2
PHANTOM
 70
     0
  3
Phantom ______  __  __  ______  __  __  ______
 72
    65
 73
     6
 40
12.7
 49
6.35
 74
     0
 49
-1.27
 74
     0
 49
1.27
 74
     0
 49
-1.27
 74
     0
 49
1.27
 74
     0
 49
-1.27
 74
     0
  0
LTYPE
  5
70
330
5
100
AcDbSymbolTableRecord
100
AcDbLinetypeTableRecord
  2
CENTER
 70
     0
  3
Center ____ _ ____ _ ____ _ ____ _ ____ _ ____
 72
    65
 73
     4
 40
10.16
 49
6.35
 74
     0
 49
-1.27
 74
     0
 49
1.27
 74
     0
 49
-1.27
 74
     0
  0
LTYPE
  5
71
330
5
100
AcDbSymbolTableRecord
100
AcDbLinetypeTableRecord
  2
CENTERX2
 70
     0
  3
Center (2x) ________  __  ________  __  _____
 72
    65
 73
     4
 40
20.32
 49
12.7
 74
     0
 49
-2.54
 74
     0
 49
2.54
 74
     0
 49
-2.54
 74
     0
  0
LTYPE
  5
72
330
5
100
AcDbSymbolTableRecord
100
AcDbLinetypeTableRecord
  2
DOT2
 70
     0
  3
Dot (.5x) ........................................
 72
    65
 73
     2
 40
0.635
 49
0.0
 74
     0
 49
-0.635
 74
     0
  0
ENDTAB
  0
TABLE
  2
LAYER
  5
2
330
0
100
AcDbSymbolTable
 70
     1
  0
LAYER
  5
10
330
2
100
AcDbSymbolTableRecord
100
AcDbLayerTableRecord
  2
0
 70
     0
 62
     7
  6
Continuous
370
    -3
390
F
  0
ENDTAB
  0
TABLE
  2
STYLE
  5
3
330
0
100
AcDbSymbolTable
 70
     1
  0
STYLE
  5
11
330
3
100
AcDbSymbolTableRecord
100
AcDbTextStyleTableRecord
  2
Standard
 70
     0
 40
0.0
 41
1.0
 50
0.0
 71
     0
 42
3.5
  3
txt
  4

  0
ENDTAB
  0
TABLE
  2
VIEW
  5
6
330
0
100
AcDbSymbolTable
 70
     0
  0
ENDTAB
  0
TABLE
  2
UCS
  5
7
330
0
100
AcDbSymbolTable
 70
     0
  0
ENDTAB
  0
TABLE
  2
APPID
  5
9
330
0
100
AcDbSymbolTable
 70
     1
  0
APPID
  5
12
330
9
100
AcDbSymbolTableRecord
100
AcDbRegAppTableRecord
  2
ACAD
 70
     0
  0
ENDTAB
  0
TABLE
  2
DIMSTYLE
  5
A
330
0
100
AcDbSymbolTable
 70
     1
100
AcDbDimStyleTable
  0
DIMSTYLE
105
27
330
A
100
AcDbSymbolTableRecord
100
AcDbDimStyleTableRecord
  2
ISO-25
 70
     0
 41
2.5
 42
0.625
 43
3.75
 44
1.25
 73
     0
 74
     0
 77
     1
 78
     8
140
2.5
141
2.5
143
0.0393700787
147
0.625
171
     3
172
     1
178
     0
271
     2
272
     2
274
     3
278
    44
283
     0
284
     8
340
11
  0
ENDTAB
  0
TABLE
  2
BLOCK_RECORD
  5
1
330
0
100
AcDbSymbolTable
 70
     8
  0
BLOCK_RECORD
  5
1F
330
1
100
AcDbSymbolTableRecord
100
AcDbBlockTableRecord
  2
*Model_Space
340
22
  0
BLOCK_RECORD
  5
1B
330
1
100
AcDbSymbolTableRecord
100
AcDbBlockTableRecord
  2
*Paper_Space
340
1E
  0
BLOCK_RECORD
  5
23
330
1
100
AcDbSymbolTableRecord
100
AcDbBlockTableRecord
  2
*Paper_Space0
340
26
  0
BLOCK_RECORD
  5
B3
330
1
100
AcDbSymbolTableRecord
100
AcDbBlockTableRecord
  2
*Paper_Space1
340
B4
  0
BLOCK_RECORD
  5
D3
330
1
100
AcDbSymbolTableRecord
100
AcDbBlockTableRecord
  2
*Paper_Space2
340
D4
  0
BLOCK_RECORD
  5
E7
330
1
100
AcDbSymbolTableRecord
100
AcDbBlockTableRecord
  2
*Paper_Space3
340
E8
  0
BLOCK_RECORD
  5
F3
330
1
100
AcDbSymbolTableRecord
100
AcDbBlockTableRecord
  2
*Paper_Space4
340
F4
  0
BLOCK_RECORD
  5
FF
330
1
100
AcDbSymbolTableRecord
100
AcDbBlockTableRecord
  2
*Paper_Space5
340
100
  0
BLOCK_RECORD
  5
12D
330
1
100
AcDbSymbolTableRecord
100
AcDbBlockTableRecord
  2
*Paper_Space6
340
12E
  0
BLOCK_RECORD
  5
15B
330
1
100
AcDbSymbolTableRecord
100
AcDbBlockTableRecord
  2
*Paper_Space7
340
15C
  0
ENDTAB
  0
ENDSEC
  0
SECTION
  2
BLOCKS
  0
BLOCK
  5
20
330
1F
100
AcDbEntity
  8
0
100
AcDbBlockBegin
  2
*Model_Space
 70
     0
 10
0.0
 20
0.0
 30
0.0
  3
*Model_Space
  1

  0
ENDBLK
  5
21
330
1F
100
AcDbEntity
  8
0
100
AcDbBlockEnd
  0
BLOCK
  5
1C
330
1B
100
AcDbEntity
 67
     1
  8
0
100
AcDbBlockBegin
  2
*Paper_Space
 70
     0
 10
0.0
 20
0.0
 30
0.0
  3
*Paper_Space
  1

  0
ENDBLK
  5
1D
330
1B
100
AcDbEntity
 67
     1
  8
0
100
AcDbBlockEnd
  0
BLOCK
  5
24
330
23
100
AcDbEntity
  8
0
100
AcDbBlockBegin
  2
*Paper_Space0
 70
     0
 10
0.0
 20
0.0
 30
0.0
  3
*Paper_Space0
  1

  0
LINE
  5
AF
330
23
100
AcDbEntity
  8
0
  6
Continuous
 62
     7
370
    25
100
AcDbLine
 10
41.5
 20
-5.0
 30
0.0
 11
41.5
 21
0.0
 31
0.0
  0
LINE
  5
B0
330
23
100
AcDbEntity
  8
0
  6
Continuous
 62
     7
370
    25
100
AcDbLine
 10
-41.5
 20
-5.0
 30
0.0
 11
41.5
 21
-5.0
 31
0.0
  0
LINE
  5
B1
330
23
100
AcDbEntity
  8
0
  6
Continuous
 62
     7
370
    25
100
AcDbLine
 10
-41.5
 20
-5.0
 30
0.0
 11
-41.5
 21
0.0
 31
0.0
  0
LINE
  5
B2
330
23
100
AcDbEntity
  8
0
  6
Continuous
 62
     7
370
    25
100
AcDbLine
 10
-41.5
 20
0.0
 30
0.0
 11
41.5
 21
0.0
 31
0.0
  0
VIEWPORT
  5
1A3
330
23
100
AcDbEntity
  8
0
100
AcDbViewport
 10
0.0
 20
0.0
 30
0.0
 40
205.6
 41
156.0
 68
     1
 69
     1
 12
0.0
 22
0.0
 13
0.0
 23
0.0
 14
10.0
 24
10.0
 15
10.0
 25
10.0
 16
0.0
 26
0.0
 36
1.0
 17
0.0
 27
0.0
 37
0.0
 42
50.0
 43
0.0
 44
0.0
 45
124.44
 50
0.0
 51
0.0
 72
   100
 90
   557152
  1

281
     0
 71
     1
 74
     0
110
0.0
120
0.0
130
0.0
111
1.0
121
0.0
131
0.0
112
0.0
122
1.0
132
0.0
 79
     0
146
0.0
  0
ENDBLK
  5
25
330
23
100
AcDbEntity
  8
0
100
AcDbBlockEnd
  0
BLOCK
  5
B5
330
B3
100
AcDbEntity
  8
0
100
AcDbBlockBegin
  2
*Paper_Space1
 70
     0
 10
0.0
 20
0.0
 30
0.0
  3
*Paper_Space1
  1

  0
CIRCLE
  5
BC
330
B3
100
AcDbEntity
  8
0
  6
Continuous
 62
     7
370
    25
100
AcDbCircle
 10
34.5
 20
41.0
 30
0.0
 40
1.75
  0
CIRCLE
  5
BD
330
B3
100
AcDbEntity
  8
0
  6
Continuous
 62
     7
370
    25
100
AcDbCircle
 10
26.5
 20
41.0
 30
0.0
 40
1.750000000000004
  0
CIRCLE
  5
BE
330
B3
100
AcDbEntity
  8
0
  6
Continuous
 62
     7
370
    25
100
AcDbCircle
 10
26.5
 20
-41.0
 30
0.0
 40
1.750000000000014
  0
CIRCLE
  5
BF
330
B3
100
AcDbEntity
  8
0
  6
Continuous
 62
     7
370
    25
100
AcDbCircle
 10
34.5
 20
-41.0
 30
0.0
 40
1.750000000000028
  0
CIRCLE
  5
C0
330
B3
100
AcDbEntity
  8
0
  6
Continuous
 62
     7
370
    25
100
AcDbCircle
 10
-3.43
 20
26.45
 30
0.0
 40
1.750000000000004
  0
CIRCLE
  5
C1
330
B3
100
AcDbEntity
  8
0
  6
Continuous
 62
     7
370
    25
100
AcDbCircle
 10
-3.43
 20
31.45
 30
0.0
 40
1.750000000000009
  0
CIRCLE
  5
C2
330
B3
100
AcDbEntity
  8
0
  6
Continuous
 62
     7
370
    25
100
AcDbCircle
 10
-3.43
 20
-26.45
 30
0.0
 40
1.750000000000009
  0
CIRCLE
  5
C3
330
B3
100
AcDbEntity
  8
0
  6
Continuous
 62
     7
370
    25
100
AcDbCircle
 10
-3.43
 20
-31.45
 30
0.0
 40
1.750000000000003
  0
CIRCLE
  5
C4
330
B3
100
AcDbEntity
  8
0
  6
Continuous
 62
     7
370
    25
100
AcDbCircle
 10
10.5
 20
-31.45
 30
0.0
 40
1.75
  0
CIRCLE
  5
C5
330
B3
100
AcDbEntity
  8
0
  6
Continuous
 62
     7
370
    25
100
AcDbCircle
 10
10.5
 20
-26.45
 30
0.0
 40
1.750000000000002
  0
CIRCLE
  5
C6
330
B3
100
AcDbEntity
  8
0
  6
Continuous
 62
     7
370
    25
100
AcDbCircle
 10
10.5
 20
26.45
 30
0.0
 40
1.75
  0
CIRCLE
  5
C7
330
B3
100
AcDbEntity
  8
0
  6
Continuous
 62
     7
370
    25
100
AcDbCircle
 10
10.5
 20
31.45
 30
0.0
 40
1.749999999999995
  0
LINE
  5
CB
330
B3
100
AcDbEntity
  8
0
  6
Continuous
 62
     7
370
    25
100
AcDbLine
 10
41.5
 20
-21.0
 30
0.0
 11
-31.5
 21
-21.0
 31
0.0
  0
LINE
  5
CC
330
B3
100
AcDbEntity
  8
0
  6
Continuous
 62
     7
370
    25
100
AcDbLine
 10
41.5
 20
-21.0
 30
0.0
 11
41.5
 21
-61.0
 31
0.0
  0
LINE
  5
CD
330
B3
100
AcDbEntity
  8
0
  6
Continuous
 62
     7
370
    25
100
AcDbLine
 10
41.5
 20
61.0
 30
0.0
 11
41.5
 21
21.0
 31
0.0
  0
LINE
  5
CE
330
B3
100
AcDbEntity
  8
0
  6
Continuous
 62
     7
370
    25
100
AcDbLine
 10
41.5
 20
21.0
 30
0.0
 11
-31.5
 21
21.0
 31
0.0
  0
LINE
  5
CF
330
B3
100
AcDbEntity
  8
0
  6
Continuous
 62
     7
370
    25
100
AcDbLine
 10
-31.5
 20
-21.0
 30
0.0
 11
-31.5
 21
21.0
 31
0.0
  0
LINE
  5
D0
330
B3
100
AcDbEntity
  8
0
  6
Continuous
 62
     7
370
    25
100
AcDbLine
 10
-41.5
 20
61.0
 30
0.0
 11
-41.5
 21
-61.0
 31
0.0
  0
LINE
  5
D1
330
B3
100
AcDbEntity
  8
0
  6
Continuous
 62
     7
370
    25
100
AcDbLine
 10
41.5
 20
-61.0
 30
0.0
 11
-41.5
 21
-61.0
 31
0.0
  0
LINE
  5
D2
330
B3
100
AcDbEntity
  8
0
  6
Continuous
 62
     7
370
    25
100
AcDbLine
 10
41.5
 20
61.0
 30
0.0
 11
-41.5
 21
61.0
 31
0.0
  0
VIEWPORT
  5
1A5
330
B3
100
AcDbEntity
  8
0
100
AcDbViewport
 10
0.0
 20
0.0
 30
0.0
 40
205.6
 41
156.0
 68
     1
 69
     1
 12
0.0
 22
0.0
 13
0.0
 23
0.0
 14
10.0
 24
10.0
 15
10.0
 25
10.0
 16
0.0
 26
0.0
 36
1.0
 17
0.0
 27
0.0
 37
0.0
 42
50.0
 43
0.0
 44
0.0
 45
124.44
 50
0.0
 51
0.0
 72
   100
 90
   557152
  1

281
     0
 71
     1
 74
     0
110
0.0
120
0.0
130
0.0
111
1.0
121
0.0
131
0.0
112
0.0
122
1.0
132
0.0
 79
     0
146
0.0
  0
ENDBLK
  5
B6
330
B3
100
AcDbEntity
  8
0
100
AcDbBlockEnd
  0
BLOCK
  5
D5
330
D3
100
AcDbEntity
  8
0
100
AcDbBlockBegin
  2
*Paper_Space2
 70
     0
 10
0.0
 20
0.0
 30
0.0
  3
*Paper_Space2
  1

  0
LINE
  5
E1
330
D3
100
AcDbEntity
  8
0
  6
Continuous
 62
     7
370
    25
100
AcDbLine
 10
5.0
 20
21.0
 30
0.0
 11
0.0
 21
21.0
 31
0.0
  0
LINE
  5
E2
330
D3
100
AcDbEntity
  8
0
  6
Continuous
 62
     7
370
    25
100
AcDbLine
 10
5.0
 20
61.0
 30
0.0
 11
0.0
 21
61.0
 31
0.0
  0
LINE
  5
E3
330
D3
100
AcDbEntity
  8
0
  6
Continuous
 62
     7
370
    25
100
AcDbLine
 10
5.0
 20
-21.0
 30
0.0
 11
0.0
 21
-21.0
 31
0.0
  0
LINE
  5
E4
330
D3
100
AcDbEntity
  8
0
  6
Continuous
 62
     7
370
    25
100
AcDbLine
 10
5.0
 20
-61.0
 30
0.0
 11
5.0
 21
61.0
 31
0.0
  0
LINE
  5
E5
330
D3
100
AcDbEntity
  8
0
  6
Continuous
 62
     7
370
    25
100
AcDbLine
 10
5.0
 20
-61.0
 30
0.0
 11
0.0
 21
-61.0
 31
0.0
  0
LINE
  5
E6
330
D3
100
AcDbEntity
  8
0
  6
Continuous
 62
     7
370
    25
100
AcDbLine
 10
0.0
 20
-61.0
 30
0.0
 11
0.0
 21
61.0
 31
0.0
  0
VIEWPORT
  5
1A7
330
D3
100
AcDbEntity
  8
0
100
AcDbViewport
 10
0.0
 20
0.0
 30
0.0
 40
205.6
 41
156.0
 68
     1
 69
     1
 12
0.0
 22
0.0
 13
0.0
 23
0.0
 14
10.0
 24
10.0
 15
10.0
 25
10.0
 16
0.0
 26
0.0
 36
1.0
 17
0.0
 27
0.0
 37
0.0
 42
50.0
 43
0.0
 44
0.0
 45
124.44
 50
0.0
 51
0.0
 72
   100
 90
   557152
  1

281
     0
 71
     1
 74
     0
110
0.0
120
0.0
130
0.0
111
1.0
121
0.0
131
0.0
112
0.0
122
1.0
132
0.0
 79
     0
146
0.0
  0
ENDBLK
  5
D6
330
D3
100
AcDbEntity
  8
0
100
AcDbBlockEnd
  0
BLOCK
  5
E9
330
E7
100
AcDbEntity
  8
0
100
AcDbBlockBegin
  2
*Paper_Space3
 70
     0
 10
0.0
 20
0.0
 30
0.0
  3
*Paper_Space3
  1

  0
LINE
  5
EF
330
E7
100
AcDbEntity
  8
0
  6
Continuous
 62
     7
370
    25
100
AcDbLine
 10
-5.0
 20
-61.0
 30
0.0
 11
0.0
 21
-61.0
 31
0.0
  0
LINE
  5
F0
330
E7
100
AcDbEntity
  8
0
  6
Continuous
 62
     7
370
    25
100
AcDbLine
 10
-5.0
 20
61.0
 30
0.0
 11
-5.0
 21
-61.0
 31
0.0
  0
LINE
  5
F1
330
E7
100
AcDbEntity
  8
0
  6
Continuous
 62
     7
370
    25
100
AcDbLine
 10
-5.0
 20
61.0
 30
0.0
 11
0.0
 21
61.0
 31
0.0
  0
LINE
  5
F2
330
E7
100
AcDbEntity
  8
0
  6
Continuous
 62
     7
370
    25
100
AcDbLine
 10
0.0
 20
61.0
 30
0.0
 11
0.0
 21
-61.0
 31
0.0
  0
VIEWPORT
  5
1A9
330
E7
100
AcDbEntity
  8
0
100
AcDbViewport
 10
0.0
 20
0.0
 30
0.0
 40
205.6
 41
156.0
 68
     1
 69
     1
 12
0.0
 22
0.0
 13
0.0
 23
0.0
 14
10.0
 24
10.0
 15
10.0
 25
10.0
 16
0.0
 26
0.0
 36
1.0
 17
0.0
 27
0.0
 37
0.0
 42
50.0
 43
0.0
 44
0.0
 45
124.44
 50
0.0
 51
0.0
 72
   100
 90
   557152
  1

281
     0
 71
     1
 74
     0
110
0.0
120
0.0
130
0.0
111
1.0
121
0.0
131
0.0
112
0.0
122
1.0
132
0.0
 79
     0
146
0.0
  0
ENDBLK
  5
EA
330
E7
100
AcDbEntity
  8
0
100
AcDbBlockEnd
  0
BLOCK
  5
F5
330
F3
100
AcDbEntity
  8
0
100
AcDbBlockBegin
  2
*Paper_Space4
 70
     0
 10
0.0
 20
0.0
 30
0.0
  3
*Paper_Space4
  1

  0
LINE
  5
FB
330
F3
100
AcDbEntity
  8
0
  6
Continuous
 62
     7
370
    25
100
AcDbLine
 10
-41.5
 20
5.0
 30
0.0
 11
41.5
 21
5.0
 31
0.0
  0
LINE
  5
FC
330
F3
100
AcDbEntity
  8
0
  6
Continuous
 62
     7
370
    25
100
AcDbLine
 10
41.5
 20
5.0
 30
0.0
 11
41.5
 21
0.0
 31
0.0
  0
LINE
  5
FD
330
F3
100
AcDbEntity
  8
0
  6
Continuous
 62
     7
370
    25
100
AcDbLine
 10
-41.5
 20
0.0
 30
0.0
 11
41.5
 21
0.0
 31
0.0
  0
LINE
  5
FE
330
F3
100
AcDbEntity
  8
0
  6
Continuous
 62
     7
370
    25
100
AcDbLine
 10
-41.5
 20
5.0
 30
0.0
 11
-41.5
 21
0.0
 31
0.0
  0
VIEWPORT
  5
1AB
330
F3
100
AcDbEntity
  8
0
100
AcDbViewport
 10
0.0
 20
0.0
 30
0.0
 40
205.6
 41
156.0
 68
     1
 69
     1
 12
0.0
 22
0.0
 13
0.0
 23
0.0
 14
10.0
 24
10.0
 15
10.0
 25
10.0
 16
0.0
 26
0.0
 36
1.0
 17
0.0
 27
0.0
 37
0.0
 42
50.0
 43
0.0
 44
0.0
 45
124.44
 50
0.0
 51
0.0
 72
   100
 90
   557152
  1

281
     0
 71
     1
 74
     0
110
0.0
120
0.0
130
0.0
111
1.0
121
0.0
131
0.0
112
0.0
122
1.0
132
0.0
 79
     0
146
0.0
  0
ENDBLK
  5
F6
330
F3
100
AcDbEntity
  8
0
100
AcDbBlockEnd
  0
BLOCK
  5
101
330
FF
100
AcDbEntity
  8
0
100
AcDbBlockBegin
  2
*Paper_Space5
 70
     0
 10
0.0
 20
0.0
 30
0.0
  3
*Paper_Space5
  1

  0
LWPOLYLINE
  5
10E
330
FF
100
AcDbEntity
  8
0
  6
Continuous
 62
     7
370
    25
100
AcDbPolyline
 90
       27
 70
   128
 43
0.0
 10
-26.6932809898
 20
44.8058358389
 10
-26.7292386562
 20
45.1685630198
 10
-26.8350219266
 20
45.5517256533
 10
-27.0044830617
 20
45.93305572
 10
-27.2277735964
 20
46.2903917024
 10
-27.4919166964
 20
46.6029665321
 10
-27.7815613249
 20
46.8526144961
 10
-28.0798743889
 20
47.0248269623
 10
-28.3695190173
 20
47.1095955681
 10
-28.6336621174
 20
47.1019938701
 10
-28.8569526521
 20
47.0024636515
 10
-29.0264137872
 20
46.8167892468
 10
-29.1321970575
 20
46.5557613775
 10
-29.1681547239
 20
46.2345500345
 10
-29.1321970575
 20
45.8718228536
 10
-29.0264137872
 20
45.4886602201
 10
-28.8569526521
 20
45.1073301534
 10
-28.6336621174
 20
44.749994171
 10
-28.3695190173
 20
44.4374193413
 10
-28.0798743889
 20
44.1877713773
 10
-27.7815613249
 20
44.0155589111
 10
-27.4919166964
 20
43.9307903053
 10
-27.2277735964
 20
43.9383920033
 10
-27.0044830617
 20
44.0379222219
 10
-26.8350219266
 20
44.2235966266
 10
-26.7292386562
 20
44.4846244959
 10
-26.6932809898
 20
44.8058358389
  0
LWPOLYLINE
  5
10F
330
FF
100
AcDbEntity
  8
0
  6
Continuous
 62
     7
370
    25
100
AcDbPolyline
 90
       27
 70
   128
 43
0.0
 10
-21.0364267403
 20
41.5402033916
 10
-21.0723844067
 20
41.9029305725
 10
-21.1781676771
 20
42.286093206
 10
-21.3476288122
 20
42.6674232727
 10
-21.5709193469
 20
43.0247592551
 10
-21.8350624469
 20
43.3373340848
 10
-22.1247070754
 20
43.5869820489
 10
-22.4230201394
 20
43.759194515
 10
-22.7126647678
 20
43.8439631208
 10
-22.9768078679
 20
43.8363614228
 10
-23.2000984026
 20
43.7368312042
 10
-23.3695595377
 20
43.5511567995
 10
-23.475342808
 20
43.2901289302
 10
-23.5113004745
 20
42.9689175873
 10
-23.475342808
 20
42.6061904064
 10
-23.3695595377
 20
42.2230277728
 10
-23.2000984026
 20
41.8416977061
 10
-22.9768078679
 20
41.4843617237
 10
-22.7126647678
 20
41.171786894
 10
-22.4230201394
 20
40.92213893
 10
-22.1247070754
 20
40.7499264638
 10
-21.8350624469
 20
40.665157858
 10
-21.5709193469
 20
40.672759556
 10
-21.3476288122
 20
40.7722897746
 10
-21.1781676771
 20
40.9579641793
 10
-21.0723844067
 20
41.2189920486
 10
-21.0364267403
 20
41.5402033916
  0
LWPOLYLINE
  5
110
330
FF
100
AcDbEntity
  8
0
  6
Continuous
 62
     7
370
    25
100
AcDbPolyline
 90
       27
 70
   128
 43
0.0
 10
-21.0364267403
 20
-25.4161431831
 10
-21.0723844067
 20
-25.0534160022
 10
-21.1781676771
 20
-24.6702533686
 10
-21.3476288122
 20
-24.2889233019
 10
-21.5709193469
 20
-23.9315873195
 10
-21.8350624469
 20
-23.6190124898
 10
-22.1247070754
 20
-23.3693645258
 10
-22.4230201394
 20
-23.1971520596
 10
-22.7126647678
 20
-23.1123834539
 10
-22.9768078679
 20
-23.1199851518
 10
-23.2000984026
 20
-23.2195153704
 10
-23.3695595377
 20
-23.4051897751
 10
-23.475342808
 20
-23.6662176444
 10
-23.5113004745
 20
-23.9874289874
 10
-23.475342808
 20
-24.3501561683
 10
-23.3695595377
 20
-24.7333188018
 10
-23.2000984026
 20
-25.1146488685
 10
-22.9768078679
 20
-25.4719848509
 10
-22.7126647678
 20
-25.7845596806
 10
-22.4230201394
 20
-26.0342076447
 10
-22.1247070754
 20
-26.2064201109
 10
-21.8350624469
 20
-26.2911887166
 10
-21.5709193469
 20
-26.2835870186
 10
-21.3476288122
 20
-26.1840568
 10
-21.1781676771
 20
-25.9983823953
 10
-21.0723844067
 20
-25.737354526
 10
-21.0364267403
 20
-25.4161431831
  0
LWPOLYLINE
  5
111
330
FF
100
AcDbEntity
  8
0
  6
Continuous
 62
     7
370
    25
100
AcDbPolyline
 90
       27
 70
   128
 43
0.0
 10
-26.6932809898
 20
-22.1505107358
 10
-26.7292386562
 20
-21.7877835549
 10
-26.8350219266
 20
-21.4046209213
 10
-27.0044830617
 20
-21.0232908547
 10
-27.2277735964
 20
-20.6659548722
 10
-27.4919166964
 20
-20.3533800425
 10
-27.7815613249
 20
-20.1037320785
 10
-28.0798743889
 20
-19.9315196123
 10
-28.3695190173
 20
-19.8467510066
 10
-28.6336621174
 20
-19.8543527045
 10
-28.8569526521
 20
-19.9538829231
 10
-29.0264137872
 20
-20.1395573278
 10
-29.1321970575
 20
-20.4005851971
 10
-29.1681547239
 20
-20.7217965401
 10
-29.1321970575
 20
-21.084523721
 10
-29.0264137872
 20
-21.4676863545
 10
-28.8569526521
 20
-21.8490164212
 10
-28.6336621174
 20
-22.2063524036
 10
-28.3695190173
 20
-22.5189272333
 10
-28.0798743889
 20
-22.7685751974
 10
-27.7815613249
 20
-22.9407876636
 10
-27.4919166964
 20
-23.0255562693
 10
-27.2277735964
 20
-23.0179545713
 10
-27.0044830617
 20
-22.9184243527
 10
-26.8350219266
 20
-22.732749948
 10
-26.7292386562
 20
-22.4717220787
 10
-26.6932809898
 20
-22.1505107358
  0
LWPOLYLINE
  5
112
330
FF
100
AcDbEntity
  8
0
  6
Continuous
 62
     7
370
    25
100
AcDbPolyline
 90
       27
 70
   128
 43
0.0
 10
0.1272792206
 20
17.4419871852
 10
0.0913215542
 20
17.8047143661
 10
-0.0144617161
 20
18.1878769996
 10
-0.1839228513
 20
18.5692070663
 10
-0.407213386
 20
18.9265430487
 10
-0.671356486
 20
19.2391178784
 10
-0.9610011145
 20
19.4887658425
 10
-1.2593141784
 20
19.6609783087
 10
-1.5489588069
 20
19.7457469144
 10
-1.813101907
 20
19.7381452165
 10
-2.0363924417
 20
19.6386149979
 10
-2.2058535768
 20
19.4529405932
 10
-2.3116368471
 20
19.1919127238
 10
-2.3475945135
 20
18.8707013809
 10
-2.3116368471
 20
18.5079742
 10
-2.2058535768
 20
18.1248115664
 10
-2.0363924417
 20
17.7434814998
 10
-1.813101907
 20
17.3861455174
 10
-1.5489588069
 20
17.0735706877
 10
-1.2593141784
 20
16.8239227236
 10
-0.9610011145
 20
16.6517102574
 10
-0.671356486
 20
16.5669416517
 10
-0.407213386
 20
16.5745433496
 10
-0.1839228513
 20
16.6740735682
 10
-0.0144617161
 20
16.8597479729
 10
0.0913215542
 20
17.1207758422
 10
0.1272792206
 20
17.4419871852
  0
LWPOLYLINE
  5
113
330
FF
100
AcDbEntity
  8
0
  6
Continuous
 62
     7
370
    25
100
AcDbPolyline
 90
       27
 70
   128
 43
0.0
 10
0.1272792206
 20
21.5246912446
 10
0.0913215542
 20
21.8874184255
 10
-0.0144617161
 20
22.2705810591
 10
-0.1839228513
 20
22.6519111257
 10
-0.407213386
 20
23.0092471082
 10
-0.671356486
 20
23.3218219379
 10
-0.9610011145
 20
23.5714699019
 10
-1.2593141784
 20
23.7436823681
 10
-1.5489588069
 20
23.8284509738
 10
-1.813101907
 20
23.8208492759
 10
-2.0363924417
 20
23.7213190573
 10
-2.2058535768
 20
23.5356446526
 10
-2.3116368471
 20
23.2746167833
 10
-2.3475945135
 20
22.9534054403
 10
-2.3116368471
 20
22.5906782594
 10
-2.2058535768
 20
22.2075156259
 10
-2.0363924417
 20
21.8261855592
 10
-1.813101907
 20
21.4688495768
 10
-1.5489588069
 20
21.1562747471
 10
-1.2593141784
 20
20.906626783
 10
-0.9610011145
 20
20.7344143168
 10
-0.671356486
 20
20.6496457111
 10
-0.407213386
 20
20.6572474091
 10
-0.1839228513
 20
20.7567776277
 10
-0.0144617161
 20
20.9424520324
 10
0.0913215542
 20
21.2034799017
 10
0.1272792206
 20
21.5246912446
  0
LWPOLYLINE
  5
114
330
FF
100
AcDbEntity
  8
0
  6
Continuous
 62
     7
370
    25
100
AcDbPolyline
 90
       27
 70
   128
 43
0.0
 10
0.1272792206
 20
-25.7530217636
 10
0.0913215542
 20
-25.3902945827
 10
-0.0144617161
 20
-25.0071319491
 10
-0.1839228513
 20
-24.6258018824
 10
-0.407213386
 20
-24.2684659
 10
-0.671356486
 20
-23.9558910703
 10
-0.9610011145
 20
-23.7062431063
 10
-1.2593141784
 20
-23.5340306401
 10
-1.5489588069
 20
-23.4492620343
 10
-1.813101907
 20
-23.4568637323
 10
-2.0363924417
 20
-23.5563939509
 10
-2.2058535768
 20
-23.7420683556
 10
-2.3116368471
 20
-24.0030962249
 10
-2.3475945135
 20
-24.3243075679
 10
-2.3116368471
 20
-24.6870347488
 10
-2.2058535768
 20
-25.0701973823
 10
-2.0363924417
 20
-25.451527449
 10
-1.813101907
 20
-25.8088634314
 10
-1.5489588069
 20
-26.1214382611
 10
-1.2593141784
 20
-26.3710862252
 10
-0.9610011145
 20
-26.5432986913
 10
-0.671356486
 20
-26.6280672971
 10
-0.407213386
 20
-26.6204655991
 10
-0.1839228513
 20
-26.5209353805
 10
-0.0144617161
 20
-26.3352609758
 10
0.0913215542
 20
-26.0742331065
 10
0.1272792206
 20
-25.7530217636
  0
LWPOLYLINE
  5
115
330
FF
100
AcDbEntity
  8
0
  6
Continuous
 62
     7
370
    25
100
AcDbPolyline
 90
       27
 70
   128
 43
0.0
 10
0.1272792206
 20
-29.835725823
 10
0.0913215542
 20
-29.4729986421
 10
-0.0144617161
 20
-29.0898360085
 10
-0.1839228513
 20
-28.7085059419
 10
-0.407213386
 20
-28.3511699595
 10
-0.671356486
 20
-28.0385951298
 10
-0.9610011145
 20
-27.7889471657
 10
-1.2593141784
 20
-27.6167346995
 10
-1.5489588069
 20
-27.5319660938
 10
-1.813101907
 20
-27.5395677917
 10
-2.0363924417
 20
-27.6390980103
 10
-2.2058535768
 20
-27.824772415
 10
-2.3116368471
 20
-28.0858002843
 10
-2.3475945135
 20
-28.4070116273
 10
-2.3116368471
 20
-28.7697388082
 10
-2.2058535768
 20
-29.1529014417
 10
-2.0363924417
 20
-29.5342315084
 10
-1.813101907
 20
-29.8915674908
 10
-1.5489588069
 20
-30.2041423205
 10
-1.2593141784
 20
-30.4537902846
 10
-0.9610011145
 20
-30.6260027508
 10
-0.671356486
 20
-30.7107713565
 10
-0.407213386
 20
-30.7031696585
 10
-0.1839228513
 20
-30.60363944
 10
-0.0144617161
 20
-30.4179650352
 10
0.0913215542
 20
-30.1569371659
 10
0.1272792206
 20
-29.835725823
  0
LWPOLYLINE
  5
116
330
FF
100
AcDbEntity
  8
0
  6
Continuous
 62
     7
370
    25
100
AcDbPolyline
 90
       27
 70
   128
 43
0.0
 10
-9.7227182413
 20
-24.1494433241
 10
-9.7586759077
 20
-23.7867161432
 10
-9.8644591781
 20
-23.4035535097
 10
-10.0339203132
 20
-23.022223443
 10
-10.2572108479
 20
-22.6648874606
 10
-10.5213539479
 20
-22.3523126309
 10
-10.8109985764
 20
-22.1026646668
 10
-11.1093116404
 20
-21.9304522007
 10
-11.3989562689
 20
-21.8456835949
 10
-11.6630993689
 20
-21.8532852929
 10
-11.8863899036
 20
-21.9528155115
 10
-12.0558510387
 20
-22.1384899162
 10
-12.1616343091
 20
-22.3995177855
 10
-12.1975919755
 20
-22.7207291284
 10
-12.1616343091
 20
-23.0834563093
 10
-12.0558510387
 20
-23.4666189429
 10
-11.8863899036
 20
-23.8479490096
 10
-11.6630993689
 20
-24.205284992
 10
-11.3989562689
 20
-24.5178598217
 10
-11.1093116404
 20
-24.7675077857
 10
-10.8109985764
 20
-24.9397202519
 10
-10.5213539479
 20
-25.0244888577
 10
-10.2572108479
 20
-25.0168871597
 10
-10.0339203132
 20
-24.9173569411
 10
-9.8644591781
 20
-24.7316825364
 10
-9.7586759077
 20
-24.4706546671
 10
-9.7227182413
 20
-24.1494433241
  0
LWPOLYLINE
  5
117
330
FF
100
AcDbEntity
  8
0
  6
Continuous
 62
     7
370
    25
100
AcDbPolyline
 90
       27
 70
   128
 43
0.0
 10
-9.7227182413
 20
-20.0667392647
 10
-9.7586759077
 20
-19.7040120838
 10
-9.8644591781
 20
-19.3208494503
 10
-10.0339203132
 20
-18.9395193836
 10
-10.2572108479
 20
-18.5821834012
 10
-10.5213539479
 20
-18.2696085715
 10
-10.8109985764
 20
-18.0199606074
 10
-11.1093116404
 20
-17.8477481412
 10
-11.3989562689
 20
-17.7629795355
 10
-11.6630993689
 20
-17.7705812335
 10
-11.8863899036
 20
-17.8701114521
 10
-12.0558510387
 20
-18.0557858568
 10
-12.1616343091
 20
-18.3168137261
 10
-12.1975919755
 20
-18.638025069
 10
-12.1616343091
 20
-19.0007522499
 10
-12.0558510387
 20
-19.3839148835
 10
-11.8863899036
 20
-19.7652449501
 10
-11.6630993689
 20
-20.1225809325
 10
-11.3989562689
 20
-20.4351557623
 10
-11.1093116404
 20
-20.6848037263
 10
-10.8109985764
 20
-20.8570161925
 10
-10.5213539479
 20
-20.9417847982
 10
-10.2572108479
 20
-20.9341831003
 10
-10.0339203132
 20
-20.8346528817
 10
-9.8644591781
 20
-20.648978477
 10
-9.7586759077
 20
-20.3879506077
 10
-9.7227182413
 20
-20.0667392647
  0
LWPOLYLINE
  5
118
330
FF
100
AcDbEntity
  8
0
  6
Continuous
 62
     7
370
    25
100
AcDbPolyline
 90
       27
 70
   128
 43
0.0
 10
-9.7227182413
 20
23.128269684
 10
-9.7586759077
 20
23.4909968649
 10
-9.8644591781
 20
23.8741594985
 10
-10.0339203132
 20
24.2554895652
 10
-10.2572108479
 20
24.6128255476
 10
-10.5213539479
 20
24.9254003773
 10
-10.8109985764
 20
25.1750483413
 10
-11.1093116404
 20
25.3472608075
 10
-11.3989562689
 20
25.4320294133
 10
-11.6630993689
 20
25.4244277153
 10
-11.8863899036
 20
25.3248974967
 10
-12.0558510387
 20
25.139223092
 10
-12.1616343091
 20
24.8781952227
 10
-12.1975919755
 20
24.5569838797
 10
-12.1616343091
 20
24.1942566988
 10
-12.0558510387
 20
23.8110940653
 10
-11.8863899036
 20
23.4297639986
 10
-11.6630993689
 20
23.0724280162
 10
-11.3989562689
 20
22.7598531865
 10
-11.1093116404
 20
22.5102052224
 10
-10.8109985764
 20
22.3379927563
 10
-10.5213539479
 20
22.2532241505
 10
-10.2572108479
 20
22.2608258485
 10
-10.0339203132
 20
22.3603560671
 10
-9.8644591781
 20
22.5460304718
 10
-9.7586759077
 20
22.8070583411
 10
-9.7227182413
 20
23.128269684
  0
LWPOLYLINE
  5
119
330
FF
100
AcDbEntity
  8
0
  6
Continuous
 62
     7
370
    25
100
AcDbPolyline
 90
       27
 70
   128
 43
0.0
 10
-9.7227182413
 20
27.2109737435
 10
-9.7586759077
 20
27.5737009244
 10
-9.8644591781
 20
27.9568635579
 10
-10.0339203132
 20
28.3381936246
 10
-10.2572108479
 20
28.695529607
 10
-10.5213539479
 20
29.0081044367
 10
-10.8109985764
 20
29.2577524008
 10
-11.1093116404
 20
29.4299648669
 10
-11.3989562689
 20
29.5147334727
 10
-11.6630993689
 20
29.5071317747
 10
-11.8863899036
 20
29.4076015561
 10
-12.0558510387
 20
29.2219271514
 10
-12.1616343091
 20
28.9608992821
 10
-12.1975919755
 20
28.6396879392
 10
-12.1616343091
 20
28.2769607583
 10
-12.0558510387
 20
27.8937981247
 10
-11.8863899036
 20
27.512468058
 10
-11.6630993689
 20
27.1551320756
 10
-11.3989562689
 20
26.8425572459
 10
-11.1093116404
 20
26.5929092819
 10
-10.8109985764
 20
26.4206968157
 10
-10.5213539479
 20
26.33592821
 10
-10.2572108479
 20
26.3435299079
 10
-10.0339203132
 20
26.4430601265
 10
-9.8644591781
 20
26.6287345312
 10
-9.7586759077
 20
26.8897624005
 10
-9.7227182413
 20
27.2109737435
  0
LINE
  5
11E
330
FF
100
AcDbEntity
  8
0
  6
Continuous
 62
     7
370
    25
100
AcDbLine
 10
25.8093975133
 20
-68.7904781249
 30
0.0
 11
29.3449314192
 21
-66.7494578454
 31
0.0
  0
LINE
  5
11F
330
FF
100
AcDbEntity
  8
0
  6
Continuous
 62
     7
370
    25
100
AcDbLine
 10
25.8093975133
 20
30.8275009252
 30
0.0
 11
25.8093975133
 21
-68.7904781249
 31
0.0
  0
LINE
  5
120
330
FF
100
AcDbEntity
  8
0
  6
Continuous
 62
     7
370
    25
100
AcDbLine
 10
25.8093975133
 20
30.8275009252
 30
0.0
 11
29.3449314192
 21
32.8685212047
 31
0.0
  0
LINE
  5
121
330
FF
100
AcDbEntity
  8
0
  6
Continuous
 62
     7
370
    25
100
AcDbLine
 10
29.3449314192
 20
32.8685212047
 30
0.0
 11
29.3449314192
 21
-66.7494578454
 31
0.0
  0
LINE
  5
122
330
FF
100
AcDbEntity
  8
0
  6
Continuous
 62
     7
370
    25
100
AcDbLine
 10
-32.8804653252
 20
32.0468050904
 30
0.0
 11
18.7383297014
 21
2.2479090088
 31
0.0
  0
LINE
  5
123
330
FF
100
AcDbEntity
  8
0
  6
Continuous
 62
     7
370
    25
100
AcDbLine
 10
-32.8804653252
 20
64.7084375658
 30
0.0
 11
-32.8804653252
 21
32.0468050904
 31
0.0
  0
LINE
  5
124
330
FF
100
AcDbEntity
  8
0
  6
Continuous
 62
     7
370
    25
100
AcDbLine
 10
-32.8804653252
 20
64.7084375658
 30
0.0
 11
25.8093975133
 21
30.8275009252
 31
0.0
  0
LINE
  5
125
330
FF
100
AcDbEntity
  8
0
  6
Continuous
 62
     7
370
    25
100
AcDbLine
 10
-32.8804653252
 20
-34.9095414843
 30
0.0
 11
25.8093975133
 21
-68.7904781249
 31
0.0
  0
LINE
  5
126
330
FF
100
AcDbEntity
  8
0
  6
Continuous
 62
     7
370
    25
100
AcDbLine
 10
-32.8804653252
 20
-2.2479090088
 30
0.0
 11
-32.8804653252
 21
-34.9095414843
 31
0.0
  0
LINE
  5
127
330
FF
100
AcDbEntity
  8
0
  6
Continuous
 62
     7
370
    25
100
AcDbLine
 10
-32.8804653252
 20
-2.2479090088
 30
0.0
 11
18.7383297014
 21
-32.0468050904
 31
0.0
  0
LINE
  5
128
330
FF
100
AcDbEntity
  8
0
  6
Continuous
 62
     7
370
    25
100
AcDbLine
 10
18.7383297014
 20
-32.0468050904
 30
0.0
 11
18.7383297014
 21
2.2479090088
 31
0.0
  0
LINE
  5
129
330
FF
100
AcDbEntity
  8
0
  6
Continuous
 62
     7
370
    25
100
AcDbLine
 10
-32.8804653252
 20
64.7084375658
 30
0.0
 11
-29.3449314192
 21
66.7494578454
 31
0.0
  0
LINE
  5
12A
330
FF
100
AcDbEntity
  8
0
  6
Continuous
 62
     7
370
    25
100
AcDbLine
 10
-29.3449314192
 20
66.7494578454
 30
0.0
 11
29.3449314192
 21
32.8685212047
 31
0.0
  0
LINE
  5
12B
330
FF
100
AcDbEntity
  8
0
  6
Continuous
 62
     7
370
    25
100
AcDbLine
 10
-32.8804653252
 20
-2.2479090088
 30
0.0
 11
-29.3449314192
 21
-0.2068887293
 31
0.0
  0
LINE
  5
12C
330
FF
100
AcDbEntity
  8
0
  6
Continuous
 62
     7
370
    25
100
AcDbLine
 10
-29.3449314192
 20
-0.2068887293
 30
0.0
 11
18.7383297014
 21
-27.9647645313
 31
0.0
  0
VIEWPORT
  5
1AD
330
FF
100
AcDbEntity
  8
0
100
AcDbViewport
 10
0.0
 20
0.0
 30
0.0
 40
205.6
 41
156.0
 68
     1
 69
     1
 12
0.0
 22
0.0
 13
0.0
 23
0.0
 14
10.0
 24
10.0
 15
10.0
 25
10.0
 16
0.0
 26
0.0
 36
1.0
 17
0.0
 27
0.0
 37
0.0
 42
50.0
 43
0.0
 44
0.0
 45
124.44
 50
0.0
 51
0.0
 72
   100
 90
   557152
  1

281
     0
 71
     1
 74
     0
110
0.0
120
0.0
130
0.0
111
1.0
121
0.0
131
0.0
112
0.0
122
1.0
132
0.0
 79
     0
146
0.0
  0
ENDBLK
  5
102
330
FF
100
AcDbEntity
  8
0
100
AcDbBlockEnd
  0
BLOCK
  5
12F
330
12D
100
AcDbEntity
  8
0
100
AcDbBlockBegin
  2
*Paper_Space6
 70
     0
 10
0.0
 20
0.0
 30
0.0
  3
*Paper_Space6
  1

  0
LWPOLYLINE
  5
13C
330
12D
100
AcDbEntity
  8
0
  6
Continuous
 62
     7
370
    25
100
AcDbPolyline
 90
       27
 70
   128
 43
0.0
 10
-31.2981704296
 20
40.7382973457
 10
-31.3431447003
 20
41.1095041222
 10
-31.4754537712
 20
41.4835837964
 10
-31.6874083201
 20
41.8387962172
 10
-31.966690319
 20
42.1544977299
 10
-32.2970689133
 20
42.4123409102
 10
-32.6593436999
 20
42.5973408496
 10
-33.0324605851
 20
42.6987460241
 10
-33.3947353718
 20
42.7106631335
 10
-33.725113966
 20
42.6323995987
 10
-34.0043959649
 20
42.468503812
 10
-34.2163505138
 20
42.2285008007
 10
-34.3486595848
 20
41.9263386674
 10
-34.3936338555
 20
41.5795779771
 10
-34.3486595848
 20
41.2083712005
 10
-34.2163505138
 20
40.8342915264
 10
-34.0043959649
 20
40.4790791055
 10
-33.725113966
 20
40.1633775928
 10
-33.3947353718
 20
39.9055344125
 10
-33.0324605851
 20
39.7205344731
 10
-32.6593436999
 20
39.6191292986
 10
-32.2970689133
 20
39.6072121892
 10
-31.966690319
 20
39.685475724
 10
-31.6874083201
 20
39.8493715107
 10
-31.4754537712
 20
40.089374522
 10
-31.3431447003
 20
40.3915366553
 10
-31.2981704296
 20
40.7382973457
  0
LWPOLYLINE
  5
13D
330
12D
100
AcDbEntity
  8
0
  6
Continuous
 62
     7
370
    25
100
AcDbPolyline
 90
       27
 70
   128
 43
0.0
 10
-24.2228254562
 20
38.8153701882
 10
-24.2677997269
 20
39.1865769647
 10
-24.4001087978
 20
39.5606566389
 10
-24.6120633467
 20
39.9158690597
 10
-24.8913453456
 20
40.2315705725
 10
-25.2217239399
 20
40.4894137528
 10
-25.5839987265
 20
40.6744136921
 10
-25.9571156117
 20
40.7758188666
 10
-26.3193903983
 20
40.787735976
 10
-26.6497689926
 20
40.7094724413
 10
-26.9290509915
 20
40.5455766546
 10
-27.1410055404
 20
40.3055736432
 10
-27.2733146113
 20
40.0034115099
 10
-27.318288882
 20
39.6566508196
 10
-27.2733146113
 20
39.285444043
 10
-27.1410055404
 20
38.9113643689
 10
-26.9290509915
 20
38.5561519481
 10
-26.6497689926
 20
38.2404504353
 10
-26.3193903983
 20
37.982607255
 10
-25.9571156117
 20
37.7976073156
 10
-25.5839987265
 20
37.6962021412
 10
-25.2217239399
 20
37.6842850318
 10
-24.8913453456
 20
37.7625485665
 10
-24.6120633467
 20
37.9264443532
 10
-24.4001087978
 20
38.1664473646
 10
-24.2677997269
 20
38.4686094978
 10
-24.2228254562
 20
38.8153701882
  0
LWPOLYLINE
  5
13E
330
12D
100
AcDbEntity
  8
0
  6
Continuous
 62
     7
370
    25
100
AcDbPolyline
 90
       27
 70
   128
 43
0.0
 10
-24.2228254562
 20
-31.4723484694
 10
-24.2677997269
 20
-31.1011416928
 10
-24.4001087978
 20
-30.7270620187
 10
-24.6120633467
 20
-30.3718495979
 10
-24.8913453456
 20
-30.0561480851
 10
-25.2217239399
 20
-29.7983049048
 10
-25.5839987265
 20
-29.6133049654
 10
-25.9571156117
 20
-29.511899791
 10
-26.3193903983
 20
-29.4999826816
 10
-26.6497689926
 20
-29.5782462163
 10
-26.9290509915
 20
-29.742142003
 10
-27.1410055404
 20
-29.9821450143
 10
-27.2733146113
 20
-30.2843071476
 10
-27.318288882
 20
-30.631067838
 10
-27.2733146113
 20
-31.0022746145
 10
-27.1410055404
 20
-31.3763542887
 10
-26.9290509915
 20
-31.7315667095
 10
-26.6497689926
 20
-32.0472682223
 10
-26.3193903983
 20
-32.3051114025
 10
-25.9571156117
 20
-32.4901113419
 10
-25.5839987265
 20
-32.5915165164
 10
-25.2217239399
 20
-32.6034336258
 10
-24.8913453456
 20
-32.5251700911
 10
-24.6120633467
 20
-32.3612743043
 10
-24.4001087978
 20
-32.121271293
 10
-24.2677997269
 20
-31.8191091597
 10
-24.2228254562
 20
-31.4723484694
  0
LWPOLYLINE
  5
13F
330
12D
100
AcDbEntity
  8
0
  6
Continuous
 62
     7
370
    25
100
AcDbPolyline
 90
       27
 70
   128
 43
0.0
 10
-31.2981704296
 20
-29.5494213119
 10
-31.3431447003
 20
-29.1782145354
 10
-31.4754537712
 20
-28.8041348612
 10
-31.6874083201
 20
-28.4489224404
 10
-31.966690319
 20
-28.1332209276
 10
-32.2970689133
 20
-27.8753777474
 10
-32.6593436999
 20
-27.690377808
 10
-33.0324605851
 20
-27.5889726335
 10
-33.3947353718
 20
-27.5770555241
 10
-33.725113966
 20
-27.6553190588
 10
-34.0043959649
 20
-27.8192148456
 10
-34.2163505138
 20
-28.0592178569
 10
-34.3486595848
 20
-28.3613799902
 10
-34.3936338555
 20
-28.7081406805
 10
-34.3486595848
 20
-29.0793474571
 10
-34.2163505138
 20
-29.4534271312
 10
-34.0043959649
 20
-29.808639552
 10
-33.725113966
 20
-30.1243410648
 10
-33.3947353718
 20
-30.3821842451
 10
-33.0324605851
 20
-30.5671841845
 10
-32.6593436999
 20
-30.6685893589
 10
-32.2970689133
 20
-30.6805064683
 10
-31.966690319
 20
-30.6022429336
 10
-31.6874083201
 20
-30.4383471469
 10
-31.4754537712
 20
-30.1983441356
 10
-31.3431447003
 20
-29.8961820023
 10
-31.2981704296
 20
-29.5494213119
  0
LWPOLYLINE
  5
140
330
12D
100
AcDbEntity
  8
0
  6
Continuous
 62
     7
370
    25
100
AcDbPolyline
 90
       27
 70
   128
 43
0.0
 10
2.2478089256
 20
19.1494347351
 10
2.2028346549
 20
19.5206415116
 10
2.070525584
 20
19.8947211858
 10
1.8585710351
 20
20.2499336066
 10
1.5792890362
 20
20.5656351194
 10
1.2489104419
 20
20.8234782996
 10
0.8866356553
 20
21.008478239
 10
0.5135187701
 20
21.1098834135
 10
0.1512439835
 20
21.1218005229
 10
-0.1791346108
 20
21.0435369882
 10
-0.4584166097
 20
20.8796412014
 10
-0.6703711586
 20
20.6396381901
 10
-0.8026802295
 20
20.3374760568
 10
-0.8476545002
 20
19.9907153665
 10
-0.8026802295
 20
19.6195085899
 10
-0.6703711586
 20
19.2454289158
 10
-0.4584166097
 20
18.8902164949
 10
-0.1791346108
 20
18.5745149822
 10
0.1512439835
 20
18.3166718019
 10
0.5135187701
 20
18.1316718625
 10
0.8866356553
 20
18.0302666881
 10
1.2489104419
 20
18.0183495787
 10
1.5792890362
 20
18.0966131134
 10
1.8585710351
 20
18.2605089001
 10
2.070525584
 20
18.5005119114
 10
2.2028346549
 20
18.8026740447
 10
2.2478089256
 20
19.1494347351
  0
LWPOLYLINE
  5
141
330
12D
100
AcDbEntity
  8
0
  6
Continuous
 62
     7
370
    25
100
AcDbPolyline
 90
       27
 70
   128
 43
0.0
 10
2.2478089256
 20
23.4352712386
 10
2.2028346549
 20
23.8064780151
 10
2.070525584
 20
24.1805576893
 10
1.8585710351
 20
24.5357701101
 10
1.5792890362
 20
24.8514716229
 10
1.2489104419
 20
25.1093148032
 10
0.8866356553
 20
25.2943147425
 10
0.5135187701
 20
25.395719917
 10
0.1512439835
 20
25.4076370264
 10
-0.1791346108
 20
25.3293734917
 10
-0.4584166097
 20
25.165477705
 10
-0.6703711586
 20
24.9254746936
 10
-0.8026802295
 20
24.6233125604
 10
-0.8476545002
 20
24.27655187
 10
-0.8026802295
 20
23.9053450934
 10
-0.6703711586
 20
23.5312654193
 10
-0.4584166097
 20
23.1760529985
 10
-0.1791346108
 20
22.8603514857
 10
0.1512439835
 20
22.6025083054
 10
0.5135187701
 20
22.417508366
 10
0.8866356553
 20
22.3161031916
 10
1.2489104419
 20
22.3041860822
 10
1.5792890362
 20
22.3824496169
 10
1.8585710351
 20
22.5463454036
 10
2.070525584
 20
22.786348415
 10
2.2028346549
 20
23.0885105482
 10
2.2478089256
 20
23.4352712386
  0
LWPOLYLINE
  5
142
330
12D
100
AcDbEntity
  8
0
  6
Continuous
 62
     7
370
    25
100
AcDbPolyline
 90
       27
 70
   128
 43
0.0
 10
2.2478089256
 20
-26.1947154721
 10
2.2028346549
 20
-25.8235086955
 10
2.070525584
 20
-25.4494290214
 10
1.8585710351
 20
-25.0942166005
 10
1.5792890362
 20
-24.7785150878
 10
1.2489104419
 20
-24.5206719075
 10
0.8866356553
 20
-24.3356719681
 10
0.5135187701
 20
-24.2342667936
 10
0.1512439835
 20
-24.2223496842
 10
-0.1791346108
 20
-24.300613219
 10
-0.4584166097
 20
-24.4645090057
 10
-0.6703711586
 20
-24.704512017
 10
-0.8026802295
 20
-25.0066741503
 10
-0.8476545002
 20
-25.3534348407
 10
-0.8026802295
 20
-25.7246416172
 10
-0.6703711586
 20
-26.0987212914
 10
-0.4584166097
 20
-26.4539337122
 10
-0.1791346108
 20
-26.7696352249
 10
0.1512439835
 20
-27.0274784052
 10
0.5135187701
 20
-27.2124783446
 10
0.8866356553
 20
-27.3138835191
 10
1.2489104419
 20
-27.3258006285
 10
1.5792890362
 20
-27.2475370937
 10
1.8585710351
 20
-27.083641307
 10
2.070525584
 20
-26.8436382957
 10
2.2028346549
 20
-26.5414761624
 10
2.2478089256
 20
-26.1947154721
  0
LWPOLYLINE
  5
143
330
12D
100
AcDbEntity
  8
0
  6
Continuous
 62
     7
370
    25
100
AcDbPolyline
 90
       27
 70
   128
 43
0.0
 10
2.2478089256
 20
-30.4805519756
 10
2.2028346549
 20
-30.109345199
 10
2.070525584
 20
-29.7352655249
 10
1.8585710351
 20
-29.380053104
 10
1.5792890362
 20
-29.0643515913
 10
1.2489104419
 20
-28.806508411
 10
0.8866356553
 20
-28.6215084716
 10
0.5135187701
 20
-28.5201032971
 10
0.1512439835
 20
-28.5081861877
 10
-0.1791346108
 20
-28.5864497225
 10
-0.4584166097
 20
-28.7503455092
 10
-0.6703711586
 20
-28.9903485205
 10
-0.8026802295
 20
-29.2925106538
 10
-0.8476545002
 20
-29.6392713442
 10
-0.8026802295
 20
-30.0104781207
 10
-0.6703711586
 20
-30.3845577949
 10
-0.4584166097
 20
-30.7397702157
 10
-0.1791346108
 20
-31.0554717285
 10
0.1512439835
 20
-31.3133149087
 10
0.5135187701
 20
-31.4983148481
 10
0.8866356553
 20
-31.5997200226
 10
1.2489104419
 20
-31.611637132
 10
1.5792890362
 20
-31.5333735973
 10
1.8585710351
 20
-31.3694778105
 10
2.070525584
 20
-31.1294747992
 10
2.2028346549
 20
-30.8273126659
 10
2.2478089256
 20
-30.4805519756
  0
LWPOLYLINE
  5
144
330
12D
100
AcDbEntity
  8
0
  6
Continuous
 62
     7
370
    25
100
AcDbPolyline
 90
       27
 70
   128
 43
0.0
 10
-10.0721355093
 20
-27.1322550626
 10
-10.11710978
 20
-26.7610482861
 10
-10.2494188509
 20
-26.3869686119
 10
-10.4613733998
 20
-26.0317561911
 10
-10.7406553987
 20
-25.7160546783
 10
-11.071033993
 20
-25.4582114981
 10
-11.4333087797
 20
-25.2732115587
 10
-11.8064256649
 20
-25.1718063842
 10
-12.1687004515
 20
-25.1598892748
 10
-12.4990790458
 20
-25.2381528095
 10
-12.7783610447
 20
-25.4020485963
 10
-12.9903155936
 20
-25.6420516076
 10
-13.1226246645
 20
-25.9442137409
 10
-13.1675989352
 20
-26.2909744312
 10
-13.1226246645
 20
-26.6621812078
 10
-12.9903155936
 20
-27.0362608819
 10
-12.7783610447
 20
-27.3914733028
 10
-12.4990790458
 20
-27.7071748155
 10
-12.1687004515
 20
-27.9650179958
 10
-11.8064256649
 20
-28.1500179352
 10
-11.4333087797
 20
-28.2514231096
 10
-11.071033993
 20
-28.2633402191
 10
-10.7406553987
 20
-28.1850766843
 10
-10.4613733998
 20
-28.0211808976
 10
-10.2494188509
 20
-27.7811778863
 10
-10.11710978
 20
-27.479015753
 10
-10.0721355093
 20
-27.1322550626
  0
LWPOLYLINE
  5
145
330
12D
100
AcDbEntity
  8
0
  6
Continuous
 62
     7
370
    25
100
AcDbPolyline
 90
       27
 70
   128
 43
0.0
 10
-10.0721355093
 20
-22.8464185591
 10
-10.11710978
 20
-22.4752117826
 10
-10.2494188509
 20
-22.1011321084
 10
-10.4613733998
 20
-21.7459196876
 10
-10.7406553987
 20
-21.4302181748
 10
-11.071033993
 20
-21.1723749945
 10
-11.4333087797
 20
-20.9873750552
 10
-11.8064256649
 20
-20.8859698807
 10
-12.1687004515
 20
-20.8740527713
 10
-12.4990790458
 20
-20.952316306
 10
-12.7783610447
 20
-21.1162120928
 10
-12.9903155936
 20
-21.3562151041
 10
-13.1226246645
 20
-21.6583772374
 10
-13.1675989352
 20
-22.0051379277
 10
-13.1226246645
 20
-22.3763447043
 10
-12.9903155936
 20
-22.7504243784
 10
-12.7783610447
 20
-23.1056367992
 10
-12.4990790458
 20
-23.421338312
 10
-12.1687004515
 20
-23.6791814923
 10
-11.8064256649
 20
-23.8641814317
 10
-11.4333087797
 20
-23.9655866061
 10
-11.071033993
 20
-23.9775037155
 10
-10.7406553987
 20
-23.8992401808
 10
-10.4613733998
 20
-23.7353443941
 10
-10.2494188509
 20
-23.4953413827
 10
-10.11710978
 20
-23.1931792495
 10
-10.0721355093
 20
-22.8464185591
  0
LWPOLYLINE
  5
146
330
12D
100
AcDbEntity
  8
0
  6
Continuous
 62
     7
370
    25
100
AcDbPolyline
 90
       27
 70
   128
 43
0.0
 10
-10.0721355093
 20
22.497731648
 10
-10.11710978
 20
22.8689384246
 10
-10.2494188509
 20
23.2430180987
 10
-10.4613733998
 20
23.5982305196
 10
-10.7406553987
 20
23.9139320323
 10
-11.071033993
 20
24.1717752126
 10
-11.4333087797
 20
24.356775152
 10
-11.8064256649
 20
24.4581803265
 10
-12.1687004515
 20
24.4700974359
 10
-12.4990790458
 20
24.3918339011
 10
-12.7783610447
 20
24.2279381144
 10
-12.9903155936
 20
23.9879351031
 10
-13.1226246645
 20
23.6857729698
 10
-13.1675989352
 20
23.3390122794
 10
-13.1226246645
 20
22.9678055029
 10
-12.9903155936
 20
22.5937258287
 10
-12.7783610447
 20
22.2385134079
 10
-12.4990790458
 20
21.9228118951
 10
-12.1687004515
 20
21.6649687149
 10
-11.8064256649
 20
21.4799687755
 10
-11.4333087797
 20
21.378563601
 10
-11.071033993
 20
21.3666464916
 10
-10.7406553987
 20
21.4449100263
 10
-10.4613733998
 20
21.6088058131
 10
-10.2494188509
 20
21.8488088244
 10
-10.11710978
 20
22.1509709577
 10
-10.0721355093
 20
22.497731648
  0
LWPOLYLINE
  5
147
330
12D
100
AcDbEntity
  8
0
  6
Continuous
 62
     7
370
    25
100
AcDbPolyline
 90
       27
 70
   128
 43
0.0
 10
-10.0721355093
 20
26.7835681515
 10
-10.11710978
 20
27.1547749281
 10
-10.2494188509
 20
27.5288546022
 10
-10.4613733998
 20
27.8840670231
 10
-10.7406553987
 20
28.1997685358
 10
-11.071033993
 20
28.4576117161
 10
-11.4333087797
 20
28.6426116555
 10
-11.8064256649
 20
28.74401683
 10
-12.1687004515
 20
28.7559339394
 10
-12.4990790458
 20
28.6776704046
 10
-12.7783610447
 20
28.5137746179
 10
-12.9903155936
 20
28.2737716066
 10
-13.1226246645
 20
27.9716094733
 10
-13.1675989352
 20
27.6248487829
 10
-13.1226246645
 20
27.2536420064
 10
-12.9903155936
 20
26.8795623322
 10
-12.7783610447
 20
26.5243499114
 10
-12.4990790458
 20
26.2086483987
 10
-12.1687004515
 20
25.9508052184
 10
-11.8064256649
 20
25.765805279
 10
-11.4333087797
 20
25.6644001045
 10
-11.071033993
 20
25.6524829951
 10
-10.7406553987
 20
25.7307465299
 10
-10.4613733998
 20
25.8946423166
 10
-10.2494188509
 20
26.1346453279
 10
-10.11710978
 20
26.4368074612
 10
-10.0721355093
 20
26.7835681515
  0
LINE
  5
14C
330
12D
100
AcDbEntity
  8
0
  6
Continuous
 62
     7
370
    25
100
AcDbLine
 10
34.369875105
 20
-64.5399350062
 30
0.0
 11
36.7033520496
 21
-62.2623899722
 31
0.0
  0
LINE
  5
14D
330
12D
100
AcDbEntity
  8
0
  6
Continuous
 62
     7
370
    25
100
AcDbLine
 10
34.369875105
 20
40.0344756794
 30
0.0
 11
34.369875105
 21
-64.5399350062
 31
0.0
  0
LINE
  5
14E
330
12D
100
AcDbEntity
  8
0
  6
Continuous
 62
     7
370
    25
100
AcDbLine
 10
34.369875105
 20
40.0344756794
 30
0.0
 11
36.7033520496
 21
42.3120207134
 31
0.0
  0
LINE
  5
14F
330
12D
100
AcDbEntity
  8
0
  6
Continuous
 62
     7
370
    25
100
AcDbLine
 10
36.7033520496
 20
42.3120207134
 30
0.0
 11
36.7033520496
 21
-62.2623899722
 31
0.0
  0
LINE
  5
150
330
12D
100
AcDbEntity
  8
0
  6
Continuous
 62
     7
370
    25
100
AcDbLine
 10
-39.0368289943
 20
25.6981529101
 30
0.0
 11
25.5256938882
 21
8.1514425982
 31
0.0
  0
LINE
  5
151
330
12D
100
AcDbEntity
  8
0
  6
Continuous
 62
     7
370
    25
100
AcDbLine
 10
-39.0368289943
 20
59.9848449382
 30
0.0
 11
-39.0368289943
 21
25.6981529101
 31
0.0
  0
LINE
  5
152
330
12D
100
AcDbEntity
  8
0
  6
Continuous
 62
     7
370
    25
100
AcDbLine
 10
-39.0368289943
 20
59.9848449382
 30
0.0
 11
34.369875105
 21
40.0344756794
 31
0.0
  0
LINE
  5
153
330
12D
100
AcDbEntity
  8
0
  6
Continuous
 62
     7
370
    25
100
AcDbLine
 10
-39.0368289943
 20
-44.5895657475
 30
0.0
 11
34.369875105
 21
-64.5399350062
 31
0.0
  0
LINE
  5
154
330
12D
100
AcDbEntity
  8
0
  6
Continuous
 62
     7
370
    25
100
AcDbLine
 10
-39.0368289943
 20
-10.3028737194
 30
0.0
 11
-39.0368289943
 21
-44.5895657475
 31
0.0
  0
LINE
  5
155
330
12D
100
AcDbEntity
  8
0
  6
Continuous
 62
     7
370
    25
100
AcDbLine
 10
-39.0368289943
 20
-10.3028737194
 30
0.0
 11
25.5256938882
 21
-27.8495840313
 31
0.0
  0
LINE
  5
156
330
12D
100
AcDbEntity
  8
0
  6
Continuous
 62
     7
370
    25
100
AcDbLine
 10
25.5256938882
 20
-27.8495840313
 30
0.0
 11
25.5256938882
 21
8.1514425982
 31
0.0
  0
LINE
  5
157
330
12D
100
AcDbEntity
  8
0
  6
Continuous
 62
     7
370
    25
100
AcDbLine
 10
-39.0368289943
 20
59.9848449382
 30
0.0
 11
-36.7033520496
 21
62.2623899722
 31
0.0
  0
LINE
  5
158
330
12D
100
AcDbEntity
  8
0
  6
Continuous
 62
     7
370
    25
100
AcDbLine
 10
-36.7033520496
 20
62.2623899722
 30
0.0
 11
36.7033520496
 21
42.3120207134
 31
0.0
  0
LINE
  5
159
330
12D
100
AcDbEntity
  8
0
  6
Continuous
 62
     7
370
    25
100
AcDbLine
 10
-39.0368289943
 20
-10.3028737194
 30
0.0
 11
-36.7033520496
 21
-8.0253286854
 31
0.0
  0
LINE
  5
15A
330
12D
100
AcDbEntity
  8
0
  6
Continuous
 62
     7
370
    25
100
AcDbLine
 10
-36.7033520496
 20
-8.0253286854
 30
0.0
 11
25.5256938882
 21
-24.9378499641
 31
0.0
  0
VIEWPORT
  5
1AF
330
12D
100
AcDbEntity
  8
0
100
AcDbViewport
 10
0.0
 20
0.0
 30
0.0
 40
205.6
 41
156.0
 68
     1
 69
     1
 12
0.0
 22
0.0
 13
0.0
 23
0.0
 14
10.0
 24
10.0
 15
10.0
 25
10.0
 16
0.0
 26
0.0
 36
1.0
 17
0.0
 27
0.0
 37
0.0
 42
50.0
 43
0.0
 44
0.0
 45
124.44
 50
0.0
 51
0.0
 72
   100
 90
   557152
  1

281
     0
 71
     1
 74
     0
110
0.0
120
0.0
130
0.0
111
1.0
121
0.0
131
0.0
112
0.0
122
1.0
132
0.0
 79
     0
146
0.0
  0
ENDBLK
  5
130
330
12D
100
AcDbEntity
  8
0
100
AcDbBlockEnd
  0
BLOCK
  5
15D
330
15B
100
AcDbEntity
  8
0
100
AcDbBlockBegin
  2
*Paper_Space7
 70
     0
 10
0.0
 20
0.0
 30
0.0
  3
*Paper_Space7
  1

  0
LWPOLYLINE
  5
16A
330
15B
100
AcDbEntity
  8
0
  6
Continuous
 62
     7
370
    25
100
AcDbPolyline
 90
       27
 70
   128
 43
0.0
 10
-32.4025868078
 20
40.9557713074
 10
-32.4501543293
 20
41.3566149529
 10
-32.5900924424
 20
41.7461489116
 10
-32.8142684526
 20
42.1017348856
 10
-33.1096540651
 20
42.4027075107
 10
-33.4590825417
 20
42.6315753518
 10
-33.8422463695
 20
42.7750374419
 10
-34.2368774596
 20
42.8247562859
 10
-34.6200412874
 20
42.7778424052
 10
-34.969469764
 20
42.6370222641
 10
-35.2648553764
 20
42.4104798172
 10
-35.4890313867
 20
42.1113808882
 10
-35.6289694998
 20
41.7571080196
 10
-35.6765370213
 20
41.3682502629
 10
-35.6289694998
 20
40.9674066173
 10
-35.4890313867
 20
40.5778726586
 10
-35.2648553764
 20
40.2222866846
 10
-34.969469764
 20
39.9213140595
 10
-34.6200412874
 20
39.6924462184
 10
-34.2368774596
 20
39.5489841283
 10
-33.8422463695
 20
39.4992652843
 10
-33.4590825417
 20
39.546179165
 10
-33.1096540651
 20
39.6869993061
 10
-32.8142684526
 20
39.913541753
 10
-32.5900924424
 20
40.212640682
 10
-32.4501543293
 20
40.5669135506
 10
-32.4025868078
 20
40.9557713074
  0
LWPOLYLINE
  5
16B
330
15B
100
AcDbEntity
  8
0
  6
Continuous
 62
     7
370
    25
100
AcDbPolyline
 90
       27
 70
   128
 43
0.0
 10
-24.919272034
 20
40.0129622662
 10
-24.9668395555
 20
40.4138059118
 10
-25.1067776686
 20
40.8033398704
 10
-25.3309536788
 20
41.1589258445
 10
-25.6263392913
 20
41.4598984695
 10
-25.9757677679
 20
41.6887663106
 10
-26.3589315957
 20
41.8322284008
 10
-26.7535626858
 20
41.8819472448
 10
-27.1367265136
 20
41.8350333641
 10
-27.4861549902
 20
41.6942132229
 10
-27.7815406027
 20
41.4676707761
 10
-28.0057166129
 20
41.168571847
 10
-28.145654726
 20
40.8142989785
 10
-28.1932222475
 20
40.4254412217
 10
-28.145654726
 20
40.0245975762
 10
-28.0057166129
 20
39.6350636175
 10
-27.7815406027
 20
39.2794776435
 10
-27.4861549902
 20
38.9785050184
 10
-27.1367265136
 20
38.7496371773
 10
-26.7535626858
 20
38.6061750871
 10
-26.3589315957
 20
38.5564562431
 10
-25.9757677679
 20
38.6033701239
 10
-25.6263392913
 20
38.744190265
 10
-25.3309536788
 20
38.9707327119
 10
-25.1067776686
 20
39.2698316409
 10
-24.9668395555
 20
39.6241045095
 10
-24.919272034
 20
40.0129622662
  0
LWPOLYLINE
  5
16C
330
15B
100
AcDbEntity
  8
0
  6
Continuous
 62
     7
370
    25
100
AcDbPolyline
 90
       27
 70
   128
 43
0.0
 10
-24.919272034
 20
-37.2973791458
 10
-24.9668395555
 20
-36.8965355003
 10
-25.1067776686
 20
-36.5070015416
 10
-25.3309536788
 20
-36.1514155676
 10
-25.6263392913
 20
-35.8504429425
 10
-25.9757677679
 20
-35.6215751014
 10
-26.3589315957
 20
-35.4781130112
 10
-26.7535626858
 20
-35.4283941673
 10
-27.1367265136
 20
-35.475308048
 10
-27.4861549902
 20
-35.6161281891
 10
-27.7815406027
 20
-35.842670636
 10
-28.0057166129
 20
-36.141769565
 10
-28.145654726
 20
-36.4960424336
 10
-28.1932222475
 20
-36.8849001903
 10
-28.145654726
 20
-37.2857438359
 10
-28.0057166129
 20
-37.6752777946
 10
-27.7815406027
 20
-38.0308637686
 10
-27.4861549902
 20
-38.3318363936
 10
-27.1367265136
 20
-38.5607042348
 10
-26.7535626858
 20
-38.7041663249
 10
-26.3589315957
 20
-38.7538851689
 10
-25.9757677679
 20
-38.7069712882
 10
-25.6263392913
 20
-38.566151147
 10
-25.3309536788
 20
-38.3396087002
 10
-25.1067776686
 20
-38.0405097712
 10
-24.9668395555
 20
-37.6862369026
 10
-24.919272034
 20
-37.2973791458
  0
LWPOLYLINE
  5
16D
330
15B
100
AcDbEntity
  8
0
  6
Continuous
 62
     7
370
    25
100
AcDbPolyline
 90
       27
 70
   128
 43
0.0
 10
-32.4025868078
 20
-36.3545701047
 10
-32.4501543293
 20
-35.9537264591
 10
-32.5900924424
 20
-35.5641925004
 10
-32.8142684526
 20
-35.2086065264
 10
-33.1096540651
 20
-34.9076339014
 10
-33.4590825417
 20
-34.6787660602
 10
-33.8422463695
 20
-34.5353039701
 10
-34.2368774596
 20
-34.4855851261
 10
-34.6200412874
 20
-34.5324990068
 10
-34.969469764
 20
-34.673319148
 10
-35.2648553764
 20
-34.8998615948
 10
-35.4890313867
 20
-35.1989605238
 10
-35.6289694998
 20
-35.5532333924
 10
-35.6765370213
 20
-35.9420911492
 10
-35.6289694998
 20
-36.3429347947
 10
-35.4890313867
 20
-36.7324687534
 10
-35.2648553764
 20
-37.0880547274
 10
-34.969469764
 20
-37.3890273525
 10
-34.6200412874
 20
-37.6178951936
 10
-34.2368774596
 20
-37.7613572838
 10
-33.8422463695
 20
-37.8110761277
 10
-33.4590825417
 20
-37.764162247
 10
-33.1096540651
 20
-37.6233421059
 10
-32.8142684526
 20
-37.396799659
 10
-32.5900924424
 20
-37.09770073
 10
-32.4501543293
 20
-36.7434278614
 10
-32.4025868078
 20
-36.3545701047
  0
LWPOLYLINE
  5
16E
330
15B
100
AcDbEntity
  8
0
  6
Continuous
 62
     7
370
    25
100
AcDbPolyline
 90
       27
 70
   128
 43
0.0
 10
3.0776793635
 20
22.7678063856
 10
3.0301118419
 20
23.1686500312
 10
2.8901737288
 20
23.5581839898
 10
2.6659977186
 20
23.9137699639
 10
2.3706121061
 20
24.2147425889
 10
2.0211836295
 20
24.44361043
 10
1.6380198017
 20
24.5870725202
 10
1.2433887117
 20
24.6367913642
 10
0.8602248839
 20
24.5898774835
 10
0.5107964073
 20
24.4490573423
 10
0.2154107948
 20
24.2225148955
 10
-0.0087652154
 20
23.9234159664
 10
-0.1487033285
 20
23.5691430979
 10
-0.1962708501
 20
23.1802853411
 10
-0.1487033285
 20
22.7794416956
 10
-0.0087652154
 20
22.3899077369
 10
0.2154107948
 20
22.0343217629
 10
0.5107964073
 20
21.7333491378
 10
0.8602248839
 20
21.5044812967
 10
1.2433887117
 20
21.3610192065
 10
1.6380198017
 20
21.3113003626
 10
2.0211836295
 20
21.3582142433
 10
2.3706121061
 20
21.4990343844
 10
2.6659977186
 20
21.7255768313
 10
2.8901737288
 20
22.0246757603
 10
3.0301118419
 20
22.3789486289
 10
3.0776793635
 20
22.7678063856
  0
LWPOLYLINE
  5
16F
330
15B
100
AcDbEntity
  8
0
  6
Continuous
 62
     7
370
    25
100
AcDbPolyline
 90
       27
 70
   128
 43
0.0
 10
3.0776793635
 20
27.4818515937
 10
3.0301118419
 20
27.8826952392
 10
2.8901737288
 20
28.2722291979
 10
2.6659977186
 20
28.6278151719
 10
2.3706121061
 20
28.928787797
 10
2.0211836295
 20
29.1576556381
 10
1.6380198017
 20
29.3011177283
 10
1.2433887117
 20
29.3508365722
 10
0.8602248839
 20
29.3039226915
 10
0.5107964073
 20
29.1631025504
 10
0.2154107948
 20
28.9365601035
 10
-0.0087652154
 20
28.6374611745
 10
-0.1487033285
 20
28.2831883059
 10
-0.1962708501
 20
27.8943305492
 10
-0.1487033285
 20
27.4934869036
 10
-0.0087652154
 20
27.1039529449
 10
0.2154107948
 20
26.7483669709
 10
0.5107964073
 20
26.4473943458
 10
0.8602248839
 20
26.2185265047
 10
1.2433887117
 20
26.0750644146
 10
1.6380198017
 20
26.0253455706
 10
2.0211836295
 20
26.0722594513
 10
2.3706121061
 20
26.2130795925
 10
2.6659977186
 20
26.4396220393
 10
2.8901737288
 20
26.7387209683
 10
3.0301118419
 20
27.0929938369
 10
3.0776793635
 20
27.4818515937
  0
LWPOLYLINE
  5
170
330
15B
100
AcDbEntity
  8
0
  6
Continuous
 62
     7
370
    25
100
AcDbPolyline
 90
       27
 70
   128
 43
0.0
 10
3.0776793635
 20
-27.1067919156
 10
3.0301118419
 20
-26.70594827
 10
2.8901737288
 20
-26.3164143113
 10
2.6659977186
 20
-25.9608283373
 10
2.3706121061
 20
-25.6598557122
 10
2.0211836295
 20
-25.4309878711
 10
1.6380198017
 20
-25.287525781
 10
1.2433887117
 20
-25.237806937
 10
0.8602248839
 20
-25.2847208177
 10
0.5107964073
 20
-25.4255409589
 10
0.2154107948
 20
-25.6520834057
 10
-0.0087652154
 20
-25.9511823347
 10
-0.1487033285
 20
-26.3054552033
 10
-0.1962708501
 20
-26.6943129601
 10
-0.1487033285
 20
-27.0951566056
 10
-0.0087652154
 20
-27.4846905643
 10
0.2154107948
 20
-27.8402765383
 10
0.5107964073
 20
-28.1412491634
 10
0.8602248839
 20
-28.3701170045
 10
1.2433887117
 20
-28.5135790947
 10
1.6380198017
 20
-28.5632979386
 10
2.0211836295
 20
-28.5163840579
 10
2.3706121061
 20
-28.3755639168
 10
2.6659977186
 20
-28.1490214699
 10
2.8901737288
 20
-27.8499225409
 10
3.0301118419
 20
-27.4956496723
 10
3.0776793635
 20
-27.1067919156
  0
LWPOLYLINE
  5
171
330
15B
100
AcDbEntity
  8
0
  6
Continuous
 62
     7
370
    25
100
AcDbPolyline
 90
       27
 70
   128
 43
0.0
 10
3.0776793635
 20
-31.8208371236
 10
3.0301118419
 20
-31.4199934781
 10
2.8901737288
 20
-31.0304595194
 10
2.6659977186
 20
-30.6748735454
 10
2.3706121061
 20
-30.3739009203
 10
2.0211836295
 20
-30.1450330792
 10
1.6380198017
 20
-30.001570989
 10
1.2433887117
 20
-29.9518521451
 10
0.8602248839
 20
-29.9987660258
 10
0.5107964073
 20
-30.1395861669
 10
0.2154107948
 20
-30.3661286138
 10
-0.0087652154
 20
-30.6652275428
 10
-0.1487033285
 20
-31.0195004114
 10
-0.1962708501
 20
-31.4083581681
 10
-0.1487033285
 20
-31.8092018137
 10
-0.0087652154
 20
-32.1987357723
 10
0.2154107948
 20
-32.5543217464
 10
0.5107964073
 20
-32.8552943714
 10
0.8602248839
 20
-33.0841622126
 10
1.2433887117
 20
-33.2276243027
 10
1.6380198017
 20
-33.2773431467
 10
2.0211836295
 20
-33.230429266
 10
2.3706121061
 20
-33.0896091248
 10
2.6659977186
 20
-32.863066678
 10
2.8901737288
 20
-32.5639677489
 10
3.0301118419
 20
-32.2096948804
 10
3.0776793635
 20
-31.8208371236
  0
LWPOLYLINE
  5
172
330
15B
100
AcDbEntity
  8
0
  6
Continuous
 62
     7
370
    25
100
AcDbPolyline
 90
       27
 70
   128
 43
0.0
 10
-9.9526424864
 20
-30.1791708807
 10
-10.0002100079
 20
-29.7783272352
 10
-10.140148121
 20
-29.3887932765
 10
-10.3643241313
 20
-29.0332073025
 10
-10.6597097437
 20
-28.7322346774
 10
-11.0091382203
 20
-28.5033668363
 10
-11.3923020481
 20
-28.3599047461
 10
-11.7869331382
 20
-28.3101859022
 10
-12.170096966
 20
-28.3570997829
 10
-12.5195254426
 20
-28.497919924
 10
-12.8149110551
 20
-28.7244623709
 10
-13.0390870653
 20
-29.0235612999
 10
-13.1790251784
 20
-29.3778341685
 10
-13.2265926999
 20
-29.7666919252
 10
-13.1790251784
 20
-30.1675355708
 10
-13.0390870653
 20
-30.5570695295
 10
-12.8149110551
 20
-30.9126555035
 10
-12.5195254426
 20
-31.2136281285
 10
-12.170096966
 20
-31.4424959697
 10
-11.7869331382
 20
-31.5859580598
 10
-11.3923020481
 20
-31.6356769038
 10
-11.0091382203
 20
-31.5887630231
 10
-10.6597097437
 20
-31.4479428819
 10
-10.3643241313
 20
-31.2214004351
 10
-10.140148121
 20
-30.9223015061
 10
-10.0002100079
 20
-30.5680286375
 10
-9.9526424864
 20
-30.1791708807
  0
LWPOLYLINE
  5
173
330
15B
100
AcDbEntity
  8
0
  6
Continuous
 62
     7
370
    25
100
AcDbPolyline
 90
       27
 70
   128
 43
0.0
 10
-9.9526424864
 20
-25.4651256727
 10
-10.0002100079
 20
-25.0642820271
 10
-10.140148121
 20
-24.6747480684
 10
-10.3643241313
 20
-24.3191620944
 10
-10.6597097437
 20
-24.0181894694
 10
-11.0091382203
 20
-23.7893216282
 10
-11.3923020481
 20
-23.6458595381
 10
-11.7869331382
 20
-23.5961406941
 10
-12.170096966
 20
-23.6430545748
 10
-12.5195254426
 20
-23.783874716
 10
-12.8149110551
 20
-24.0104171628
 10
-13.0390870653
 20
-24.3095160918
 10
-13.1790251784
 20
-24.6637889604
 10
-13.2265926999
 20
-25.0526467172
 10
-13.1790251784
 20
-25.4534903627
 10
-13.0390870653
 20
-25.8430243214
 10
-12.8149110551
 20
-26.1986102954
 10
-12.5195254426
 20
-26.4995829205
 10
-12.170096966
 20
-26.7284507616
 10
-11.7869331382
 20
-26.8719128518
 10
-11.3923020481
 20
-26.9216316957
 10
-11.0091382203
 20
-26.874717815
 10
-10.6597097437
 20
-26.7338976739
 10
-10.3643241313
 20
-26.507355227
 10
-10.140148121
 20
-26.208256298
 10
-10.0002100079
 20
-25.8539834294
 10
-9.9526424864
 20
-25.4651256727
  0
LWPOLYLINE
  5
174
330
15B
100
AcDbEntity
  8
0
  6
Continuous
 62
     7
370
    25
100
AcDbPolyline
 90
       27
 70
   128
 43
0.0
 10
-9.9526424864
 20
24.4094726285
 10
-10.0002100079
 20
24.8103162741
 10
-10.140148121
 20
25.1998502327
 10
-10.3643241313
 20
25.5554362068
 10
-10.6597097437
 20
25.8564088318
 10
-11.0091382203
 20
26.0852766729
 10
-11.3923020481
 20
26.2287387631
 10
-11.7869331382
 20
26.2784576071
 10
-12.170096966
 20
26.2315437264
 10
-12.5195254426
 20
26.0907235852
 10
-12.8149110551
 20
25.8641811383
 10
-13.0390870653
 20
25.5650822093
 10
-13.1790251784
 20
25.2108093408
 10
-13.2265926999
 20
24.821951584
 10
-13.1790251784
 20
24.4211079384
 10
-13.0390870653
 20
24.0315739798
 10
-12.8149110551
 20
23.6759880057
 10
-12.5195254426
 20
23.3750153807
 10
-12.170096966
 20
23.1461475396
 10
-11.7869331382
 20
23.0026854494
 10
-11.3923020481
 20
22.9529666054
 10
-11.0091382203
 20
22.9998804861
 10
-10.6597097437
 20
23.1407006273
 10
-10.3643241313
 20
23.3672430742
 10
-10.140148121
 20
23.6663420032
 10
-10.0002100079
 20
24.0206148717
 10
-9.9526424864
 20
24.4094726285
  0
LWPOLYLINE
  5
175
330
15B
100
AcDbEntity
  8
0
  6
Continuous
 62
     7
370
    25
100
AcDbPolyline
 90
       27
 70
   128
 43
0.0
 10
-9.9526424864
 20
29.1235178366
 10
-10.0002100079
 20
29.5243614821
 10
-10.140148121
 20
29.9138954408
 10
-10.3643241313
 20
30.2694814148
 10
-10.6597097437
 20
30.5704540399
 10
-11.0091382203
 20
30.799321881
 10
-11.3923020481
 20
30.9427839711
 10
-11.7869331382
 20
30.9925028151
 10
-12.170096966
 20
30.9455889344
 10
-12.5195254426
 20
30.8047687933
 10
-12.8149110551
 20
30.5782263464
 10
-13.0390870653
 20
30.2791274174
 10
-13.1790251784
 20
29.9248545488
 10
-13.2265926999
 20
29.535996792
 10
-13.1790251784
 20
29.1351531465
 10
-13.0390870653
 20
28.7456191878
 10
-12.8149110551
 20
28.3900332138
 10
-12.5195254426
 20
28.0890605887
 10
-12.170096966
 20
27.8601927476
 10
-11.7869331382
 20
27.7167306575
 10
-11.3923020481
 20
27.6670118135
 10
-11.0091382203
 20
27.7139256942
 10
-10.6597097437
 20
27.8547458353
 10
-10.3643241313
 20
28.0812882822
 10
-10.140148121
 20
28.3803872112
 10
-10.0002100079
 20
28.7346600798
 10
-9.9526424864
 20
29.1235178366
  0
LINE
  5
186
330
15B
100
AcDbEntity
  8
0
  6
Continuous
 62
     7
370
    25
100
AcDbLine
 10
37.0519284365
 20
-63.96119735
 30
0.0
 11
38.8196953891
 21
-62.4021734391
 31
0.0
  0
LINE
  5
187
330
15B
100
AcDbEntity
  8
0
  6
Continuous
 62
     7
370
    25
100
AcDbLine
 10
37.0519284365
 20
51.0615057265
 30
0.0
 11
37.0519284365
 21
-63.96119735
 31
0.0
  0
LINE
  5
188
330
15B
100
AcDbEntity
  8
0
  6
Continuous
 62
     7
370
    25
100
AcDbLine
 10
37.0519284365
 20
51.0615057265
 30
0.0
 11
38.8196953891
 21
52.6205296373
 31
0.0
  0
LINE
  5
189
330
15B
100
AcDbEntity
  8
0
  6
Continuous
 62
     7
370
    25
100
AcDbLine
 10
38.8196953891
 20
52.6205296373
 30
0.0
 11
38.8196953891
 21
-62.4021734391
 31
0.0
  0
LINE
  5
18A
330
15B
100
AcDbEntity
  8
0
  6
Continuous
 62
     7
370
    25
100
AcDbLine
 10
-40.5874623416
 20
23.1307878639
 30
0.0
 11
27.6977849692
 21
14.5276553635
 31
0.0
  0
LINE
  5
18B
330
15B
100
AcDbEntity
  8
0
  6
Continuous
 62
     7
370
    25
100
AcDbLine
 10
-40.5874623416
 20
60.8431495283
 30
0.0
 11
-40.5874623416
 21
23.1307878639
 31
0.0
  0
LINE
  5
18C
330
15B
100
AcDbEntity
  8
0
  6
Continuous
 62
     7
370
    25
100
AcDbLine
 10
-40.5874623416
 20
60.8431495283
 30
0.0
 11
37.0519284365
 21
51.0615057265
 31
0.0
  0
LINE
  5
18D
330
15B
100
AcDbEntity
  8
0
  6
Continuous
 62
     7
370
    25
100
AcDbLine
 10
-40.5874623416
 20
-54.1795535481
 30
0.0
 11
37.0519284365
 21
-63.96119735
 31
0.0
  0
LINE
  5
18E
330
15B
100
AcDbEntity
  8
0
  6
Continuous
 62
     7
370
    25
100
AcDbLine
 10
-40.5874623416
 20
-16.4671918837
 30
0.0
 11
-40.5874623416
 21
-54.1795535481
 31
0.0
  0
LINE
  5
18F
330
15B
100
AcDbEntity
  8
0
  6
Continuous
 62
     7
370
    25
100
AcDbLine
 10
-40.5874623416
 20
-16.4671918837
 30
0.0
 11
27.6977849692
 21
-25.0703243841
 31
0.0
  0
LINE
  5
190
330
15B
100
AcDbEntity
  8
0
  6
Continuous
 62
     7
370
    25
100
AcDbLine
 10
27.6977849692
 20
-25.0703243841
 30
0.0
 11
27.6977849692
 21
14.5276553635
 31
0.0
  0
LINE
  5
191
330
15B
100
AcDbEntity
  8
0
  6
Continuous
 62
     7
370
    25
100
AcDbLine
 10
-40.5874623416
 20
60.8431495283
 30
0.0
 11
-38.8196953891
 21
62.4021734391
 31
0.0
  0
LINE
  5
192
330
15B
100
AcDbEntity
  8
0
  6
Continuous
 62
     7
370
    25
100
AcDbLine
 10
-38.8196953891
 20
62.4021734391
 30
0.0
 11
38.8196953891
 21
52.6205296373
 31
0.0
  0
LINE
  5
193
330
15B
100
AcDbEntity
  8
0
  6
Continuous
 62
     7
370
    25
100
AcDbLine
 10
-40.5874623416
 20
-16.4671918837
 30
0.0
 11
-38.8196953891
 21
-14.9081679729
 31
0.0
  0
LINE
  5
194
330
15B
100
AcDbEntity
  8
0
  6
Continuous
 62
     7
370
    25
100
AcDbLine
 10
-38.8196953891
 20
-14.9081679729
 30
0.0
 11
27.6977849692
 21
-23.2885827719
 31
0.0
  0
ARC
  5
195
330
15B
100
AcDbEntity
  8
0
  6
Continuous
 62
     7
370
    25
100
AcDbCircle
 10
3.4849706807
 20
29.4909645952
 30
0.0
 40
1.915866174938279
100
AcDbArc
 50
185.2678584247
 51
257.5513857952
  0
ARC
  5
196
330
15B
100
AcDbEntity
  8
0
  6
Continuous
 62
     7
370
    25
100
AcDbCircle
 10
3.4849706807
 20
24.7769193872
 30
0.0
 40
1.915866174938282
100
AcDbArc
 50
185.2678584247
 51
257.5513857952
  0
ARC
  5
197
330
15B
100
AcDbEntity
  8
0
  6
Continuous
 62
     7
370
    25
100
AcDbCircle
 10
-9.5453511692
 20
31.1326308381
 30
0.0
 40
1.915866174938387
100
AcDbArc
 50
185.2678584247
 51
257.5513857952
  0
ARC
  5
198
330
15B
100
AcDbEntity
  8
0
  6
Continuous
 62
     7
370
    25
100
AcDbCircle
 10
-9.5453511692
 20
26.4185856301
 30
0.0
 40
1.915866174938387
100
AcDbArc
 50
185.2678584247
 51
257.5513857952
  0
ARC
  5
199
330
15B
100
AcDbEntity
  8
0
  6
Continuous
 62
     7
370
    25
100
AcDbCircle
 10
-24.5119807168
 20
42.0220752678
 30
0.0
 40
1.915866174938281
100
AcDbArc
 50
185.2678584247
 51
257.5513857952
  0
ARC
  5
19A
330
15B
100
AcDbEntity
  8
0
  6
Continuous
 62
     7
370
    25
100
AcDbCircle
 10
-31.9952954906
 20
42.9648843089
 30
0.0
 40
1.915866174938486
100
AcDbArc
 50
185.2678584247
 51
257.5513857952
  0
ARC
  5
19B
330
15B
100
AcDbEntity
  8
0
  6
Continuous
 62
     7
370
    25
100
AcDbCircle
 10
3.4849706807
 20
-25.097678914
 30
0.0
 40
1.915866174938426
100
AcDbArc
 50
185.2678584247
 51
257.5513857952
  0
ARC
  5
19C
330
15B
100
AcDbEntity
  8
0
  6
Continuous
 62
     7
370
    25
100
AcDbCircle
 10
3.4849706807
 20
-29.811724122
 30
0.0
 40
1.915866174938384
100
AcDbArc
 50
185.2678584247
 51
257.5513857952
  0
ARC
  5
19D
330
15B
100
AcDbEntity
  8
0
  6
Continuous
 62
     7
370
    25
100
AcDbCircle
 10
-9.5453511692
 20
-23.4560126711
 30
0.0
 40
1.915866174938332
100
AcDbArc
 50
185.2678584247
 51
257.5513857952
  0
ARC
  5
19E
330
15B
100
AcDbEntity
  8
0
  6
Continuous
 62
     7
370
    25
100
AcDbCircle
 10
-9.5453511692
 20
-28.1700578791
 30
0.0
 40
1.915866174938303
100
AcDbArc
 50
185.2678584247
 51
257.5513857952
  0
ARC
  5
19F
330
15B
100
AcDbEntity
  8
0
  6
Continuous
 62
     7
370
    25
100
AcDbCircle
 10
-24.5119807168
 20
-35.2882661442
 30
0.0
 40
1.915866174938194
100
AcDbArc
 50
185.2678584247
 51
257.5513857952
  0
ARC
  5
1A0
330
15B
100
AcDbEntity
  8
0
  6
Continuous
 62
     7
370
    25
100
AcDbCircle
 10
-31.9952954906
 20
-34.3454571031
 30
0.0
 40
1.915866174938411
100
AcDbArc
 50
185.2678584247
 51
257.5513857952
  0
VIEWPORT
  5
1B1
330
15B
100
AcDbEntity
  8
0
100
AcDbViewport
 10
0.0
 20
0.0
 30
0.0
 40
205.6
 41
156.0
 68
     1
 69
     1
 12
0.0
 22
0.0
 13
0.0
 23
0.0
 14
10.0
 24
10.0
 15
10.0
 25
10.0
 16
0.0
 26
0.0
 36
1.0
 17
0.0
 27
0.0
 37
0.0
 42
50.0
 43
0.0
 44
0.0
 45
124.44
 50
0.0
 51
0.0
 72
   100
 90
   557152
  1

281
     0
 71
     1
 74
     0
110
0.0
120
0.0
130
0.0
111
1.0
121
0.0
131
0.0
112
0.0
122
1.0
132
0.0
 79
     0
146
0.0
  0
ENDBLK
  5
15E
330
15B
100
AcDbEntity
  8
0
100
AcDbBlockEnd
  0
ENDSEC
  0
SECTION
  2
ENTITIES
  0
CIRCLE
  5
73
330
1F
100
AcDbEntity
  8
0
  6
Continuous
 62
     7
370
    25
100
AcDbCircle
 10
34.5
 20
-41.0
 30
0.0
 40
1.75
  0
CIRCLE
  5
74
330
1F
100
AcDbEntity
  8
0
  6
Continuous
 62
     7
370
    25
100
AcDbCircle
 10
26.5
 20
-41.0
 30
0.0
 40
1.750000000000004
  0
CIRCLE
  5
75
330
1F
100
AcDbEntity
  8
0
  6
Continuous
 62
     7
370
    25
100
AcDbCircle
 10
26.5
 20
41.0
 30
0.0
 40
1.750000000000011
  0
CIRCLE
  5
76
330
1F
100
AcDbEntity
  8
0
  6
Continuous
 62
     7
370
    25
100
AcDbCircle
 10
34.5
 20
41.0
 30
0.0
 40
1.750000000000007
  0
CIRCLE
  5
77
330
1F
100
AcDbEntity
  8
0
  6
Continuous
 62
     7
370
    25
100
AcDbCircle
 10
-3.43
 20
-26.45
 30
0.0
 40
1.750000000000003
  0
CIRCLE
  5
78
330
1F
100
AcDbEntity
  8
0
  6
Continuous
 62
     7
370
    25
100
AcDbCircle
 10
-3.43
 20
-31.45
 30
0.0
 40
1.750000000000009
  0
CIRCLE
  5
79
330
1F
100
AcDbEntity
  8
0
  6
Continuous
 62
     7
370
    25
100
AcDbCircle
 10
-3.43
 20
26.45
 30
0.0
 40
1.750000000000009
  0
CIRCLE
  5
7A
330
1F
100
AcDbEntity
  8
0
  6
Continuous
 62
     7
370
    25
100
AcDbCircle
 10
-3.43
 20
31.45
 30
0.0
 40
1.750000000000003
  0
CIRCLE
  5
7B
330
1F
100
AcDbEntity
  8
0
  6
Continuous
 62
     7
370
    25
100
AcDbCircle
 10
10.5
 20
31.45
 30
0.0
 40
1.749999999999998
  0
CIRCLE
  5
7C
330
1F
100
AcDbEntity
  8
0
  6
Continuous
 62
     7
370
    25
100
AcDbCircle
 10
10.5
 20
26.45
 30
0.0
 40
1.750000000000002
  0
CIRCLE
  5
7D
330
1F
100
AcDbEntity
  8
0
  6
Continuous
 62
     7
370
    25
100
AcDbCircle
 10
10.5
 20
-26.45
 30
0.0
 40
1.749999999999998
  0
CIRCLE
  5
7E
330
1F
100
AcDbEntity
  8
0
  6
Continuous
 62
     7
370
    25
100
AcDbCircle
 10
10.5
 20
-31.45
 30
0.0
 40
1.749999999999995
  0
LINE
  5
87
330
1F
100
AcDbEntity
  8
0
  6
Continuous
 62
     7
370
    25
100
AcDbLine
 10
41.5
 20
-21.0
 30
0.0
 11
-31.5
 21
-21.0
 31
0.0
  0
LINE
  5
88
330
1F
100
AcDbEntity
  8
0
  6
Continuous
 62
     7
370
    25
100
AcDbLine
 10
41.5
 20
-61.0
 30
0.0
 11
41.5
 21
-21.0
 31
0.0
  0
LINE
  5
89
330
1F
100
AcDbEntity
  8
0
  6
Continuous
 62
     7
370
    25
100
AcDbLine
 10
41.5
 20
-61.0
 30
0.0
 11
-41.5
 21
-61.0
 31
0.0
  0
LINE
  5
8A
330
1F
100
AcDbEntity
  8
0
  6
Continuous
 62
     7
370
    25
100
AcDbLine
 10
-41.5
 20
-61.0
 30
0.0
 11
-41.5
 21
61.0
 31
0.0
  0
LINE
  5
8B
330
1F
100
AcDbEntity
  8
0
  6
Continuous
 62
     7
370
    25
100
AcDbLine
 10
41.5
 20
61.0
 30
0.0
 11
-41.5
 21
61.0
 31
0.0
  0
LINE
  5
8C
330
1F
100
AcDbEntity
  8
0
  6
Continuous
 62
     7
370
    25
100
AcDbLine
 10
41.5
 20
21.0
 30
0.0
 11
41.5
 21
61.0
 31
0.0
  0
LINE
  5
8D
330
1F
100
AcDbEntity
  8
0
  6
Continuous
 62
     7
370
    25
100
AcDbLine
 10
41.5
 20
21.0
 30
0.0
 11
-31.5
 21
21.0
 31
0.0
  0
LINE
  5
8E
330
1F
100
AcDbEntity
  8
0
  6
Continuous
 62
     7
370
    25
100
AcDbLine
 10
-31.5
 20
21.0
 30
0.0
 11
-31.5
 21
-21.0
 31
0.0
  0
CIRCLE
  5
8F
330
1B
100
AcDbEntity
 67
     1
  8
0
  6
Continuous
 62
     7
370
    25
100
AcDbCircle
 10
-34.5
 20
41.0
 30
0.0
 40
1.75
  0
CIRCLE
  5
90
330
1B
100
AcDbEntity
 67
     1
  8
0
  6
Continuous
 62
     7
370
    25
100
AcDbCircle
 10
-26.5
 20
41.0
 30
0.0
 40
1.750000000000004
  0
CIRCLE
  5
91
330
1B
100
AcDbEntity
 67
     1
  8
0
  6
Continuous
 62
     7
370
    25
100
AcDbCircle
 10
-26.5
 20
-41.0
 30
0.0
 40
1.750000000000011
  0
CIRCLE
  5
92
330
1B
100
AcDbEntity
 67
     1
  8
0
  6
Continuous
 62
     7
370
    25
100
AcDbCircle
 10
-34.5
 20
-41.0
 30
0.0
 40
1.750000000000007
  0
CIRCLE
  5
93
330
1B
100
AcDbEntity
 67
     1
  8
0
  6
Continuous
 62
     7
370
    25
100
AcDbCircle
 10
3.43
 20
26.45
 30
0.0
 40
1.750000000000003
  0
CIRCLE
  5
94
330
1B
100
AcDbEntity
 67
     1
  8
0
  6
Continuous
 62
     7
370
    25
100
AcDbCircle
 10
3.43
 20
31.45
 30
0.0
 40
1.750000000000009
  0
CIRCLE
  5
95
330
1B
100
AcDbEntity
 67
     1
  8
0
  6
Continuous
 62
     7
370
    25
100
AcDbCircle
 10
3.43
 20
-26.45
 30
0.0
 40
1.750000000000009
  0
CIRCLE
  5
96
330
1B
100
AcDbEntity
 67
     1
  8
0
  6
Continuous
 62
     7
370
    25
100
AcDbCircle
 10
3.43
 20
-31.45
 30
0.0
 40
1.750000000000003
  0
CIRCLE
  5
97
330
1B
100
AcDbEntity
 67
     1
  8
0
  6
Continuous
 62
     7
370
    25
100
AcDbCircle
 10
-10.5
 20
-31.45
 30
0.0
 40
1.749999999999998
  0
CIRCLE
  5
98
330
1B
100
AcDbEntity
 67
     1
  8
0
  6
Continuous
 62
     7
370
    25
100
AcDbCircle
 10
-10.5
 20
-26.45
 30
0.0
 40
1.750000000000002
  0
CIRCLE
  5
99
330
1B
100
AcDbEntity
 67
     1
  8
0
  6
Continuous
 62
     7
370
    25
100
AcDbCircle
 10
-10.5
 20
26.45
 30
0.0
 40
1.749999999999998
  0
CIRCLE
  5
9A
330
1B
100
AcDbEntity
 67
     1
  8
0
  6
Continuous
 62
     7
370
    25
100
AcDbCircle
 10
-10.5
 20
31.45
 30
0.0
 40
1.749999999999995
  0
LINE
  5
A3
330
1B
100
AcDbEntity
 67
     1
  8
0
  6
Continuous
 62
     7
370
    25
100
AcDbLine
 10
-41.5
 20
21.0
 30
0.0
 11
31.5
 21
21.0
 31
0.0
  0
LINE
  5
A4
330
1B
100
AcDbEntity
 67
     1
  8
0
  6
Continuous
 62
     7
370
    25
100
AcDbLine
 10
-41.5
 20
61.0
 30
0.0
 11
-41.5
 21
21.0
 31
0.0
  0
LINE
  5
A5
330
1B
100
AcDbEntity
 67
     1
  8
0
  6
Continuous
 62
     7
370
    25
100
AcDbLine
 10
-41.5
 20
61.0
 30
0.0
 11
41.5
 21
61.0
 31
0.0
  0
LINE
  5
A6
330
1B
100
AcDbEntity
 67
     1
  8
0
  6
Continuous
 62
     7
370
    25
100
AcDbLine
 10
41.5
 20
61.0
 30
0.0
 11
41.5
 21
-61.0
 31
0.0
  0
LINE
  5
A7
330
1B
100
AcDbEntity
 67
     1
  8
0
  6
Continuous
 62
     7
370
    25
100
AcDbLine
 10
-41.5
 20
-61.0
 30
0.0
 11
41.5
 21
-61.0
 31
0.0
  0
LINE
  5
A8
330
1B
100
AcDbEntity
 67
     1
  8
0
  6
Continuous
 62
     7
370
    25
100
AcDbLine
 10
-41.5
 20
-21.0
 30
0.0
 11
-41.5
 21
-61.0
 31
0.0
  0
LINE
  5
A9
330
1B
100
AcDbEntity
 67
     1
  8
0
  6
Continuous
 62
     7
370
    25
100
AcDbLine
 10
-41.5
 20
-21.0
 30
0.0
 11
31.5
 21
-21.0
 31
0.0
  0
LINE
  5
AA
330
1B
100
AcDbEntity
 67
     1
  8
0
  6
Continuous
 62
     7
370
    25
100
AcDbLine
 10
31.5
 20
-21.0
 30
0.0
 11
31.5
 21
21.0
 31
0.0
  0
VIEWPORT
  5
1A1
330
1B
100
AcDbEntity
 67
     1
  8
0
100
AcDbViewport
 10
0.0
 20
0.0
 30
0.0
 40
205.6
 41
156.0
 68
     1
 69
     1
 12
0.0
 22
0.0
 13
0.0
 23
0.0
 14
10.0
 24
10.0
 15
10.0
 25
10.0
 16
0.0
 26
0.0
 36
1.0
 17
0.0
 27
0.0
 37
0.0
 42
50.0
 43
0.0
 44
0.0
 45
124.44
 50
0.0
 51
0.0
 72
   100
 90
   557152
  1

281
     0
 71
     1
 74
     0
110
0.0
120
0.0
130
0.0
111
1.0
121
0.0
131
0.0
112
0.0
122
1.0
132
0.0
 79
     0
146
0.0
  0
ENDSEC
  0
SECTION
  2
OBJECTS
  0
DICTIONARY
  5
C
330
0
100
AcDbDictionary
281
     1
  3
ACAD_GROUP
350
D
  3
ACAD_LAYOUT
350
1A
  3
ACAD_MLINESTYLE
350
17
  3
ACAD_PLOTSETTINGS
350
19
  3
ACAD_PLOTSTYLENAME
350
E
  3
ACAD_SCALELIST
350
47
  3
DWGPROPS
350
1B3
  0
DICTIONARY
  5
D
102
{ACAD_REACTORS
330
C
102
}
330
C
100
AcDbDictionary
281
     1
  0
DICTIONARY
  5
1A
102
{ACAD_REACTORS
330
C
102
}
330
C
100
AcDbDictionary
281
     1
  3
_Back
350
B4
  3
_Bottom
350
F4
  3
_Dimetric
350
15C
  3
_Front
350
1E
  3
_Isometric
350
100
  3
_Left
350
D4
  3
_Right
350
E8
  3
_Top
350
26
  3
_Trimetric
350
12E
  3
Model
350
22
  0
DICTIONARY
  5
17
102
{ACAD_REACTORS
330
C
102
}
330
C
100
AcDbDictionary
281
     1
  3
Standard
350
18
  0
DICTIONARY
  5
19
102
{ACAD_REACTORS
330
C
102
}
330
C
100
AcDbDictionary
281
     1
  0
ACDBDICTIONARYWDFLT
  5
E
102
{ACAD_REACTORS
330
C
102
}
330
C
100
AcDbDictionary
281
     1
  3
Normal
350
F
100
AcDbDictionaryWithDefault
340
F
  0
DICTIONARY
  5
47
102
{ACAD_REACTORS
330
C
102
}
330
C
100
AcDbDictionary
281
     1
  3
A0
350
48
  3
A1
350
49
  3
A2
350
4A
  3
A3
350
4B
  3
A4
350
4C
  3
A5
350
4D
  3
A6
350
4E
  3
A7
350
4F
  3
A8
350
50
  3
A9
350
51
  3
B0
350
52
  3
B1
350
53
  3
B2
350
54
  3
B3
350
55
  3
B4
350
56
  3
B5
350
57
  3
B6
350
58
  3
B7
350
59
  3
B8
350
5A
  3
B9
350
5B
  3
C0
350
5C
  3
C1
350
5D
  3
C2
350
5E
  3
C3
350
5F
  3
C4
350
60
  3
C5
350
61
  3
C6
350
62
  3
C7
350
63
  3
C8
350
64
  3
C9
350
65
  3
D0
350
66
  3
D1
350
67
  3
D2
350
68
  0
XRECORD
  5
1B3
102
{ACAD_REACTORS
330
C
102
}
330
C
100
AcDbXrecord
280
     1
  1
DWGPROPS COOKIE
  2

  3

  4

  6

  7

  8
ASUS
  9

300
=
301
=
302
=
303
=
304
=
305
=
306
=
307
=
308
=
309
=
 40
0.0
 41
2460761.294875463
 42
2460761.294921354
  1

 90
        0
  0
LAYOUT
  5
B4
102
{ACAD_REACTORS
330
1A
102
}
330
1A
100
AcDbPlotSettings
  1

  2
none_device
  4
ISO_A4_(210.00_x_297.00_MM)
  6

 40
7.5
 41
20.0
 42
7.5
 43
20.0
 44
210.0
 45
297.0
 46
0.0
 47
0.0
 48
0.0
 49
0.0
140
0.0
141
0.0
142
1.0
143
0.6256410256
 70
   688
 72
     1
 73
     1
 74
     1
  7

 75
     0
147
1.5983606557
148
41.5
149
61.0
100
AcDbLayout
  1
_Back
 70
     1
 71
     3
 10
0.0
 20
0.0
 11
0.0
 21
0.0
 12
0.0
 22
0.0
 32
0.0
 14
0.0
 24
0.0
 34
0.0
 15
0.0
 25
0.0
 35
0.0
146
0.0
 13
0.0
 23
0.0
 33
0.0
 16
1.0
 26
0.0
 36
0.0
 17
0.0
 27
1.0
 37
0.0
 76
     0
330
B3
331
1A5
  0
LAYOUT
  5
F4
102
{ACAD_REACTORS
330
1A
102
}
330
1A
100
AcDbPlotSettings
  1

  2
none_device
  4
ISO_A4_(210.00_x_297.00_MM)
  6

 40
7.5
 41
20.0
 42
7.5
 43
20.0
 44
210.0
 45
297.0
 46
0.0
 47
0.0
 48
0.0
 49
0.0
140
0.0
141
0.0
142
1.0
143
0.6256410256
 70
   688
 72
     1
 73
     1
 74
     1
  7

 75
     0
147
1.5983606557
148
41.5
149
61.0
100
AcDbLayout
  1
_Bottom
 70
     1
 71
     6
 10
0.0
 20
0.0
 11
0.0
 21
0.0
 12
0.0
 22
0.0
 32
0.0
 14
0.0
 24
0.0
 34
0.0
 15
0.0
 25
0.0
 35
0.0
146
0.0
 13
0.0
 23
0.0
 33
0.0
 16
1.0
 26
0.0
 36
0.0
 17
0.0
 27
1.0
 37
0.0
 76
     0
330
F3
331
1AB
  0
LAYOUT
  5
15C
102
{ACAD_REACTORS
330
1A
102
}
330
1A
100
AcDbPlotSettings
  1

  2
none_device
  4
ISO_A4_(210.00_x_297.00_MM)
  6

 40
7.5
 41
20.0
 42
7.5
 43
20.0
 44
210.0
 45
297.0
 46
0.0
 47
0.0
 48
0.0
 49
0.0
140
0.0
141
0.0
142
1.0
143
0.6256410256
 70
   688
 72
     1
 73
     1
 74
     1
  7

 75
     0
147
1.5983606557
148
41.5
149
61.0
100
AcDbLayout
  1
_Dimetric
 70
     1
 71
     9
 10
0.0
 20
0.0
 11
0.0
 21
0.0
 12
0.0
 22
0.0
 32
0.0
 14
0.0
 24
0.0
 34
0.0
 15
0.0
 25
0.0
 35
0.0
146
0.0
 13
0.0
 23
0.0
 33
0.0
 16
1.0
 26
0.0
 36
0.0
 17
0.0
 27
1.0
 37
0.0
 76
     0
330
15B
331
1B1
  0
LAYOUT
  5
1E
102
{ACAD_REACTORS
330
1A
102
}
330
1A
100
AcDbPlotSettings
  1

  2
none_device
  4
ISO_A4_(210.00_x_297.00_MM)
  6

 40
7.5
 41
20.0
 42
7.5
 43
20.0
 44
210.0
 45
297.0
 46
0.0
 47
0.0
 48
0.0
 49
0.0
140
0.0
141
0.0
142
1.0
143
0.6256410256
 70
   688
 72
     1
 73
     1
 74
     1
  7

 75
     0
147
1.5983606557
148
41.5
149
61.0
100
AcDbLayout
  1
_Front
 70
     1
 71
     1
 10
-54.0128205128
 20
-65.6923076923
 11
131.8025641026
 21
65.6923076923
 12
0.0
 22
0.0
 32
0.0
 14
-41.5
 24
-61.0
 34
0.0
 15
41.5
 25
61.0
 35
0.0
146
0.0
 13
0.0
 23
0.0
 33
0.0
 16
1.0
 26
0.0
 36
0.0
 17
0.0
 27
1.0
 37
0.0
 76
     0
330
1B
331
1A1
  0
LAYOUT
  5
100
102
{ACAD_REACTORS
330
1A
102
}
330
1A
100
AcDbPlotSettings
  1

  2
none_device
  4
ISO_A4_(210.00_x_297.00_MM)
  6

 40
7.5
 41
20.0
 42
7.5
 43
20.0
 44
210.0
 45
297.0
 46
0.0
 47
0.0
 48
0.0
 49
0.0
140
0.0
141
0.0
142
1.0
143
0.6256410256
 70
   688
 72
     1
 73
     1
 74
     1
  7

 75
     0
147
1.5983606557
148
41.5
149
61.0
100
AcDbLayout
  1
_Isometric
 70
     1
 71
     7
 10
0.0
 20
0.0
 11
0.0
 21
0.0
 12
0.0
 22
0.0
 32
0.0
 14
0.0
 24
0.0
 34
0.0
 15
0.0
 25
0.0
 35
0.0
146
0.0
 13
0.0
 23
0.0
 33
0.0
 16
1.0
 26
0.0
 36
0.0
 17
0.0
 27
1.0
 37
0.0
 76
     0
330
FF
331
1AD
  0
LAYOUT
  5
D4
102
{ACAD_REACTORS
330
1A
102
}
330
1A
100
AcDbPlotSettings
  1

  2
none_device
  4
ISO_A4_(210.00_x_297.00_MM)
  6

 40
7.5
 41
20.0
 42
7.5
 43
20.0
 44
210.0
 45
297.0
 46
0.0
 47
0.0
 48
0.0
 49
0.0
140
0.0
141
0.0
142
1.0
143
0.6256410256
 70
   688
 72
     1
 73
     1
 74
     1
  7

 75
     0
147
1.5983606557
148
41.5
149
61.0
100
AcDbLayout
  1
_Left
 70
     1
 71
     4
 10
0.0
 20
0.0
 11
0.0
 21
0.0
 12
0.0
 22
0.0
 32
0.0
 14
0.0
 24
0.0
 34
0.0
 15
0.0
 25
0.0
 35
0.0
146
0.0
 13
0.0
 23
0.0
 33
0.0
 16
1.0
 26
0.0
 36
0.0
 17
0.0
 27
1.0
 37
0.0
 76
     0
330
D3
331
1A7
  0
LAYOUT
  5
E8
102
{ACAD_REACTORS
330
1A
102
}
330
1A
100
AcDbPlotSettings
  1

  2
none_device
  4
ISO_A4_(210.00_x_297.00_MM)
  6

 40
7.5
 41
20.0
 42
7.5
 43
20.0
 44
210.0
 45
297.0
 46
0.0
 47
0.0
 48
0.0
 49
0.0
140
0.0
141
0.0
142
1.0
143
0.6256410256
 70
   688
 72
     1
 73
     1
 74
     1
  7

 75
     0
147
1.5983606557
148
41.5
149
61.0
100
AcDbLayout
  1
_Right
 70
     1
 71
     5
 10
0.0
 20
0.0
 11
0.0
 21
0.0
 12
0.0
 22
0.0
 32
0.0
 14
0.0
 24
0.0
 34
0.0
 15
0.0
 25
0.0
 35
0.0
146
0.0
 13
0.0
 23
0.0
 33
0.0
 16
1.0
 26
0.0
 36
0.0
 17
0.0
 27
1.0
 37
0.0
 76
     0
330
E7
331
1A9
  0
LAYOUT
  5
26
102
{ACAD_REACTORS
330
1A
102
}
330
1A
100
AcDbPlotSettings
  1

  2
none_device
  4
ISO_A4_(210.00_x_297.00_MM)
  6

 40
7.5
 41
20.0
 42
7.5
 43
20.0
 44
210.0
 45
297.0
 46
0.0
 47
0.0
 48
0.0
 49
0.0
140
0.0
141
0.0
142
1.0
143
0.6256410256
 70
   688
 72
     1
 73
     1
 74
     1
  7

 75
     0
147
1.5983606557
148
41.5
149
61.0
100
AcDbLayout
  1
_Top
 70
     1
 71
     2
 10
0.0
 20
0.0
 11
0.0
 21
0.0
 12
0.0
 22
0.0
 32
0.0
 14
0.0
 24
0.0
 34
0.0
 15
0.0
 25
0.0
 35
0.0
146
0.0
 13
0.0
 23
0.0
 33
0.0
 16
1.0
 26
0.0
 36
0.0
 17
0.0
 27
1.0
 37
0.0
 76
     0
330
23
331
1A3
  0
LAYOUT
  5
12E
102
{ACAD_REACTORS
330
1A
102
}
330
1A
100
AcDbPlotSettings
  1

  2
none_device
  4
ISO_A4_(210.00_x_297.00_MM)
  6

 40
7.5
 41
20.0
 42
7.5
 43
20.0
 44
210.0
 45
297.0
 46
0.0
 47
0.0
 48
0.0
 49
0.0
140
0.0
141
0.0
142
1.0
143
0.6256410256
 70
   688
 72
     1
 73
     1
 74
     1
  7

 75
     0
147
1.5983606557
148
41.5
149
61.0
100
AcDbLayout
  1
_Trimetric
 70
     1
 71
     8
 10
0.0
 20
0.0
 11
0.0
 21
0.0
 12
0.0
 22
0.0
 32
0.0
 14
0.0
 24
0.0
 34
0.0
 15
0.0
 25
0.0
 35
0.0
146
0.0
 13
0.0
 23
0.0
 33
0.0
 16
1.0
 26
0.0
 36
0.0
 17
0.0
 27
1.0
 37
0.0
 76
     0
330
12D
331
1AF
  0
LAYOUT
  5
22
102
{ACAD_REACTORS
330
1A
102
}
330
1A
100
AcDbPlotSettings
  1

  2
none_device
  4
ANSI_A_(11.00_x_8.50_Inches)
  6

 40
6.35
 41
19.05
 42
6.35000508
 43
19.05000254
 44
279.4
 45
215.9
 46
133.34999746
 47
88.89999873
 48
0.0
 49
0.0
140
0.0
141
0.0
142
0.0689754098
143
1.0
 70
  1696
 72
     0
 73
     0
 74
     0
  7

 75
     0
147
0.0179189148
148
-1300.4909072572
149
0.0
100
AcDbLayout
  1
Model
 70
     1
 71
     0
 10
0.0
 20
0.0
 11
420.0
 21
297.0
 12
0.0
 22
0.0
 32
0.0
 14
-41.5
 24
-61.0
 34
0.0
 15
41.5
 25
61.0
 35
0.0
146
0.0
 13
0.0
 23
0.0
 33
0.0
 16
1.0
 26
0.0
 36
0.0
 17
0.0
 27
1.0
 37
0.0
 76
     0
330
1F
331
29
  0
MLINESTYLE
  5
18
102
{ACAD_REACTORS
330
17
102
}
330
17
100
AcDbMlineStyle
  2
Standard
 70
     0
  3

 62
   256
 51
90.0
 52
90.0
 71
     2
 49
0.5
 62
   256
  6
BYLAYER
 49
-0.5
 62
   256
  6
BYLAYER
  0
ACDBPLACEHOLDER
  5
F
102
{ACAD_REACTORS
330
E
102
}
330
E
  0
SCALE
  5
48
102
{ACAD_REACTORS
330
47
102
}
330
47
100
AcDbScale
 70
     0
300
1:1
140
1.0
141
1.0
290
     1
  0
SCALE
  5
49
102
{ACAD_REACTORS
330
47
102
}
330
47
100
AcDbScale
 70
     0
300
1:2
140
1.0
141
2.0
290
     0
  0
SCALE
  5
4A
102
{ACAD_REACTORS
330
47
102
}
330
47
100
AcDbScale
 70
     0
300
1:4
140
1.0
141
4.0
290
     0
  0
SCALE
  5
4B
102
{ACAD_REACTORS
330
47
102
}
330
47
100
AcDbScale
 70
     0
300
1:5
140
1.0
141
5.0
290
     0
  0
SCALE
  5
4C
102
{ACAD_REACTORS
330
47
102
}
330
47
100
AcDbScale
 70
     0
300
1:8
140
1.0
141
8.0
290
     0
  0
SCALE
  5
4D
102
{ACAD_REACTORS
330
47
102
}
330
47
100
AcDbScale
 70
     0
300
1:10
140
1.0
141
10.0
290
     0
  0
SCALE
  5
4E
102
{ACAD_REACTORS
330
47
102
}
330
47
100
AcDbScale
 70
     0
300
1:16
140
1.0
141
16.0
290
     0
  0
SCALE
  5
4F
102
{ACAD_REACTORS
330
47
102
}
330
47
100
AcDbScale
 70
     0
300
1:20
140
1.0
141
20.0
290
     0
  0
SCALE
  5
50
102
{ACAD_REACTORS
330
47
102
}
330
47
100
AcDbScale
 70
     0
300
1:30
140
1.0
141
30.0
290
     0
  0
SCALE
  5
51
102
{ACAD_REACTORS
330
47
102
}
330
47
100
AcDbScale
 70
     0
300
1:40
140
1.0
141
40.0
290
     0
  0
SCALE
  5
52
102
{ACAD_REACTORS
330
47
102
}
330
47
100
AcDbScale
 70
     0
300
1:50
140
1.0
141
50.0
290
     0
  0
SCALE
  5
53
102
{ACAD_REACTORS
330
47
102
}
330
47
100
AcDbScale
 70
     0
300
1:100
140
1.0
141
100.0
290
     0
  0
SCALE
  5
54
102
{ACAD_REACTORS
330
47
102
}
330
47
100
AcDbScale
 70
     0
300
2:1
140
2.0
141
1.0
290
     0
  0
SCALE
  5
55
102
{ACAD_REACTORS
330
47
102
}
330
47
100
AcDbScale
 70
     0
300
4:1
140
4.0
141
1.0
290
     0
  0
SCALE
  5
56
102
{ACAD_REACTORS
330
47
102
}
330
47
100
AcDbScale
 70
     0
300
8:1
140
8.0
141
1.0
290
     0
  0
SCALE
  5
57
102
{ACAD_REACTORS
330
47
102
}
330
47
100
AcDbScale
 70
     0
300
10:1
140
10.0
141
1.0
290
     0
  0
SCALE
  5
58
102
{ACAD_REACTORS
330
47
102
}
330
47
100
AcDbScale
 70
     0
300
100:1
140
100.0
141
1.0
290
     0
  0
SCALE
  5
59
102
{ACAD_REACTORS
330
47
102
}
330
47
100
AcDbScale
 70
     0
300
1/128" = 1'-0"
140
0.0078125
141
12.0
290
     0
  0
SCALE
  5
5A
102
{ACAD_REACTORS
330
47
102
}
330
47
100
AcDbScale
 70
     0
300
1/64" = 1'-0"
140
0.015625
141
12.0
290
     0
  0
SCALE
  5
5B
102
{ACAD_REACTORS
330
47
102
}
330
47
100
AcDbScale
 70
     0
300
1/32" = 1'-0"
140
0.03125
141
12.0
290
     0
  0
SCALE
  5
5C
102
{ACAD_REACTORS
330
47
102
}
330
47
100
AcDbScale
 70
     0
300
1/16" = 1'-0"
140
0.0625
141
12.0
290
     0
  0
SCALE
  5
5D
102
{ACAD_REACTORS
330
47
102
}
330
47
100
AcDbScale
 70
     0
300
3/32" = 1'-0"
140
0.09375
141
12.0
290
     0
  0
SCALE
  5
5E
102
{ACAD_REACTORS
330
47
102
}
330
47
100
AcDbScale
 70
     0
300
1/8" = 1'-0"
140
0.125
141
12.0
290
     0
  0
SCALE
  5
5F
102
{ACAD_REACTORS
330
47
102
}
330
47
100
AcDbScale
 70
     0
300
3/16" = 1'-0"
140
0.1875
141
12.0
290
     0
  0
SCALE
  5
60
102
{ACAD_REACTORS
330
47
102
}
330
47
100
AcDbScale
 70
     0
300
1/4" = 1'-0"
140
0.25
141
12.0
290
     0
  0
SCALE
  5
61
102
{ACAD_REACTORS
330
47
102
}
330
47
100
AcDbScale
 70
     0
300
3/8" = 1'-0"
140
0.375
141
12.0
290
     0
  0
SCALE
  5
62
102
{ACAD_REACTORS
330
47
102
}
330
47
100
AcDbScale
 70
     0
300
1/2" = 1'-0"
140
0.5
141
12.0
290
     0
  0
SCALE
  5
63
102
{ACAD_REACTORS
330
47
102
}
330
47
100
AcDbScale
 70
     0
300
3/4" = 1'-0"
140
0.75
141
12.0
290
     0
  0
SCALE
  5
64
102
{ACAD_REACTORS
330
47
102
}
330
47
100
AcDbScale
 70
     0
300
1" = 1'-0"
140
1.0
141
12.0
290
     0
  0
SCALE
  5
65
102
{ACAD_REACTORS
330
47
102
}
330
47
100
AcDbScale
 70
     0
300
1-1/2" = 1'-0"
140
1.5
141
12.0
290
     0
  0
SCALE
  5
66
102
{ACAD_REACTORS
330
47
102
}
330
47
100
AcDbScale
 70
     0
300
3" = 1'-0"
140
3.0
141
12.0
290
     0
  0
SCALE
  5
67
102
{ACAD_REACTORS
330
47
102
}
330
47
100
AcDbScale
 70
     0
300
6" = 1'-0"
140
6.0
141
12.0
290
     0
  0
SCALE
  5
68
102
{ACAD_REACTORS
330
47
102
}
330
47
100
AcDbScale
 70
     0
300
1'-0" = 1'-0"
140
12.0
141
12.0
290
     0
  0
ENDSEC
  0
EOF
