  0
SECTION
  2
HEADER
  9
$ACADVER
  1
AC1015
  9
$ACADMAINTVER
 70
     6
  9
$DWGCODEPAGE
  3
ANSI_1252
  9
$INSBASE
 10
0.0
 20
0.0
 30
0.0
  9
$EXTMIN
 10
-13.1996587031
 20
-21.9368600683
 30
0.0
  9
$EXTMAX
 10
21.8003412969
 20
8.0631399317
 30
0.0
  9
$LIMMIN
 10
0.0
 20
0.0
  9
$LIMMAX
 10
420.0
 20
297.0
  9
$ORTHOMODE
 70
     0
  9
$REGENMODE
 70
     1
  9
$FILLMODE
 70
     1
  9
$QTEXTMODE
 70
     0
  9
$MIRRTEXT
 70
     1
  9
$LTSCALE
 40
1.0
  9
$ATTMODE
 70
     1
  9
$TEXTSIZE
 40
3.5
  9
$TRACEWID
 40
1.0
  9
$TEXTSTYLE
  7
Standard
  9
$CLAYER
  8
0
  9
$CELTYPE
  6
ByLayer
  9
$CECOLOR
 62
   256
  9
$CELTSCALE
 40
1.0
  9
$DISPSILH
 70
     0
  9
$DIMSCALE
 40
1.0
  9
$DIMASZ
 40
3.302
  9
$DIMEXO
 40
0.0
  9
$DIMDLI
 40
3.75
  9
$DIMRND
 40
0.0
  9
$DIMDLE
 40
0.0
  9
$DIMEXE
 40
1.0
  9
$DIMTP
 40
0.0
  9
$DIMTM
 40
0.0
  9
$DIMTXT
 40
3.5
  9
$DIMCEN
 40
2.5
  9
$DIMTSZ
 40
0.0
  9
$DIMTOL
 70
     0
  9
$DIMLIM
 70
     0
  9
$DIMTIH
 70
     1
  9
$DIMTOH
 70
     1
  9
$DIMSE1
 70
     0
  9
$DIMSE2
 70
     0
  9
$DIMTAD
 70
     1
  9
$DIMZIN
 70
     1
  9
$DIMBLK
  1

  9
$DIMASO
 70
     1
  9
$DIMSHO
 70
     1
  9
$DIMPOST
  1

  9
$DIMAPOST
  1

  9
$DIMALT
 70
     0
  9
$DIMALTD
 70
     3
  9
$DIMALTF
 40
0.0393700787
  9
$DIMLFAC
 40
1.0
  9
$DIMTOFL
 70
     1
  9
$DIMTVP
 40
0.0
  9
$DIMTIX
 70
     0
  9
$DIMSOXD
 70
     0
  9
$DIMSAH
 70
     0
  9
$DIMBLK1
  1

  9
$DIMBLK2
  1

  9
$DIMSTYLE
  2
ISO-25
  9
$DIMCLRD
 70
     0
  9
$DIMCLRE
 70
     0
  9
$DIMCLRT
 70
     0
  9
$DIMTFAC
 40
1.0
  9
$DIMGAP
 40
1.524
  9
$DIMJUST
 70
     0
  9
$DIMSD1
 70
     0
  9
$DIMSD2
 70
     0
  9
$DIMTOLJ
 70
     0
  9
$DIMTZIN
 70
     1
  9
$DIMALTZ
 70
     0
  9
$DIMALTTZ
 70
     0
  9
$DIMUPT
 70
     0
  9
$DIMDEC
 70
     2
  9
$DIMTDEC
 70
     2
  9
$DIMALTU
 70
     2
  9
$DIMALTTD
 70
     3
  9
$DIMTXSTY
  7
Standard
  9
$DIMAUNIT
 70
     0
  9
$DIMADEC
 70
     2
  9
$DIMALTRND
 40
0.0
  9
$DIMAZIN
 70
     0
  9
$DIMDSEP
 70
    44
  9
$DIMATFIT
 70
     3
  9
$DIMFRAC
 70
     0
  9
$DIMLDRBLK
  1

  9
$DIMLUNIT
 70
     2
  9
$DIMLWD
 70
    -2
  9
$DIMLWE
 70
    -2
  9
$DIMTMOVE
 70
     0
  9
$LUNITS
 70
     2
  9
$LUPREC
 70
     2
  9
$SKETCHINC
 40
1.0
  9
$FILLETRAD
 40
10.0
  9
$AUNITS
 70
     0
  9
$AUPREC
 70
     2
  9
$MENU
  1
.
  9
$ELEVATION
 40
0.0
  9
$PELEVATION
 40
0.0
  9
$THICKNESS
 40
0.0
  9
$LIMCHECK
 70
     0
  9
$CHAMFERA
 40
0.0
  9
$CHAMFERB
 40
0.0
  9
$CHAMFERC
 40
0.0
  9
$CHAMFERD
 40
0.0
  9
$SKPOLY
 70
     0
  9
$TDCREATE
 40
2460761.523450938
  9
$TDUCREATE
 40
2460761.294284271
  9
$TDUPDATE
 40
2460761.523505058
  9
$TDUUPDATE
 40
2460761.294338391
  9
$TDINDWG
 40
0.0000000116
  9
$TDUSRTIMER
 40
0.0000000116
  9
$USRTIMER
 70
     1
  9
$ANGBASE
 50
0.0
  9
$ANGDIR
 70
     0
  9
$PDMODE
 70
     0
  9
$PDSIZE
 40
-1.0
  9
$PLINEWID
 40
0.0
  9
$SPLFRAME
 70
     0
  9
$SPLINETYPE
 70
     6
  9
$SPLINESEGS
 70
     8
  9
$HANDSEED
  5
128
  9
$SURFTAB1
 70
     6
  9
$SURFTAB2
 70
     6
  9
$SURFTYPE
 70
     6
  9
$SURFU
 70
     6
  9
$SURFV
 70
     6
  9
$UCSBASE
  2

  9
$UCSNAME
  2

  9
$UCSORG
 10
0.0
 20
0.0
 30
0.0
  9
$UCSXDIR
 10
1.0
 20
0.0
 30
0.0
  9
$UCSYDIR
 10
0.0
 20
1.0
 30
0.0
  9
$UCSORTHOREF
  2

  9
$UCSORTHOVIEW
 70
     0
  9
$UCSORGTOP
 10
0.0
 20
0.0
 30
0.0
  9
$UCSORGBOTTOM
 10
0.0
 20
0.0
 30
0.0
  9
$UCSORGLEFT
 10
0.0
 20
0.0
 30
0.0
  9
$UCSORGRIGHT
 10
0.0
 20
0.0
 30
0.0
  9
$UCSORGFRONT
 10
0.0
 20
0.0
 30
0.0
  9
$UCSORGBACK
 10
0.0
 20
0.0
 30
0.0
  9
$PUCSBASE
  2

  9
$PUCSNAME
  2

  9
$PUCSORG
 10
0.0
 20
0.0
 30
0.0
  9
$PUCSXDIR
 10
1.0
 20
0.0
 30
0.0
  9
$PUCSYDIR
 10
0.0
 20
1.0
 30
0.0
  9
$PUCSORTHOREF
  2

  9
$PUCSORTHOVIEW
 70
     0
  9
$PUCSORGTOP
 10
0.0
 20
0.0
 30
0.0
  9
$PUCSORGBOTTOM
 10
0.0
 20
0.0
 30
0.0
  9
$PUCSORGLEFT
 10
0.0
 20
0.0
 30
0.0
  9
$PUCSORGRIGHT
 10
0.0
 20
0.0
 30
0.0
  9
$PUCSORGFRONT
 10
0.0
 20
0.0
 30
0.0
  9
$PUCSORGBACK
 10
0.0
 20
0.0
 30
0.0
  9
$USERI1
 70
     0
  9
$USERI2
 70
     0
  9
$USERI3
 70
     0
  9
$USERI4
 70
     0
  9
$USERI5
 70
     0
  9
$USERR1
 40
0.0
  9
$USERR2
 40
0.0
  9
$USERR3
 40
0.0
  9
$USERR4
 40
0.0
  9
$USERR5
 40
0.0
  9
$WORLDVIEW
 70
     1
  9
$SHADEDGE
 70
     3
  9
$SHADEDIF
 70
    70
  9
$TILEMODE
 70
     1
  9
$MAXACTVP
 70
    64
  9
$PINSBASE
 10
0.0
 20
0.0
 30
0.0
  9
$PLIMCHECK
 70
     0
  9
$PEXTMIN
 10
-13.1996587031
 20
-21.9368600683
 30
0.0
  9
$PEXTMAX
 10
21.8003412969
 20
8.0631399317
 30
0.0
  9
$PLIMMIN
 10
-16.27658178
 20
-23.0907062221
  9
$PLIMMAX
 10
29.4157259123
 20
9.2169860856
  9
$UNITMODE
 70
     0
  9
$VISRETAIN
 70
     1
  9
$PLINEGEN
 70
     0
  9
$PSLTSCALE
 70
     1
  9
$TREEDEPTH
 70
  3020
  9
$CMLSTYLE
  2
Standard
  9
$CMLJUST
 70
     0
  9
$CMLSCALE
 40
20.0
  9
$PROXYGRAPHICS
 70
     1
  9
$MEASUREMENT
 70
     1
  9
$CELWEIGHT
370
    -1
  9
$ENDCAPS
280
     0
  9
$JOINSTYLE
280
     0
  9
$LWDISPLAY
290
     1
  9
$INSUNITS
 70
     4
  9
$HYPERLINKBASE
  1

  9
$STYLESHEET
  1

  9
$XEDIT
290
     1
  9
$CEPSNTYPE
380
     0
  9
$PSTYLEMODE
290
     1
  9
$FINGERPRINTGUID
  2
{1abf7873-60aa-4c63-a58c-be9446ab0370}
  9
$VERSIONGUID
  2
{FAEB1C32-E019-11D5-929B-00C0DF256EC4}
  9
$EXTNAMES
290
     1
  9
$PSVPSCALE
 40
0.0
  9
$OLESTARTUP
290
     0
  0
ENDSEC
  0
SECTION
  2
CLASSES
  0
CLASS
  1
ACDBDICTIONARYWDFLT
  2
AcDbDictionaryWithDefault
  3
ObjectDBX Classes
 90
        0
280
     0
281
     0
  0
CLASS
  1
VISUALSTYLE
  2
AcDbVisualStyle
  3
ObjectDBX Classes
 90
     4095
280
     0
281
     0
  0
CLASS
  1
MATERIAL
  2
AcDbMaterial
  3
ObjectDBX Classes
 90
     1153
280
     0
281
     0
  0
CLASS
  1
SCALE
  2
AcDbScale
  3
ObjectDBX Classes
 90
     1153
280
     0
281
     0
  0
CLASS
  1
TABLESTYLE
  2
AcDbTableStyle
  3
ObjectDBX Classes
 90
     4095
280
     0
281
     0
  0
CLASS
  1
MLEADERSTYLE
  2
AcDbMLeaderStyle
  3
ACDB_MLEADERSTYLE_CLASS
 90
     4095
280
     0
281
     0
  0
CLASS
  1
SUN
  2
AcDbSun
  3
SCENEOE
 90
     1153
280
     0
281
     0
  0
CLASS
  1
ACDBPLACEHOLDER
  2
AcDbPlaceHolder
  3
ObjectDBX Classes
 90
        0
280
     0
281
     0
  0
CLASS
  1
LAYOUT
  2
AcDbLayout
  3
ObjectDBX Classes
 90
        0
280
     0
281
     0
  0
ENDSEC
  0
SECTION
  2
TABLES
  0
TABLE
  2
VPORT
  5
8
330
0
100
AcDbSymbolTable
 70
     1
  0
VPORT
  5
29
330
8
100
AcDbSymbolTableRecord
100
AcDbViewportTableRecord
  2
*Active
 70
     0
 10
0.0
 20
0.0
 11
1.0
 21
1.0
 12
4.3003412969
 22
-6.9368600683
 13
0.0
 23
0.0
 14
10.0
 24
10.0
 15
10.0
 25
10.0
 16
0.0
 26
0.0
 36
1.0
 17
0.0
 27
0.0
 37
0.0
 40
30.6
 41
1.1666666667
 42
50.0
 43
0.0
 44
0.0
 50
0.0
 51
0.0
 71
     0
 72
   100
 73
     1
 74
     3
 75
     0
 76
     0
 77
     0
 78
     0
281
     0
 65
     1
110
0.0
120
0.0
130
0.0
111
1.0
121
0.0
131
0.0
112
0.0
122
1.0
132
0.0
 79
     0
146
0.0
  0
ENDTAB
  0
TABLE
  2
LTYPE
  5
5
330
0
100
AcDbSymbolTable
 70
     6
  0
LTYPE
  5
14
330
5
100
AcDbSymbolTableRecord
100
AcDbLinetypeTableRecord
  2
ByBlock
 70
     0
  3

 72
    65
 73
     0
 40
0.0
  0
LTYPE
  5
15
330
5
100
AcDbSymbolTableRecord
100
AcDbLinetypeTableRecord
  2
ByLayer
 70
     0
  3

 72
    65
 73
     0
 40
0.0
  0
LTYPE
  5
16
330
5
100
AcDbSymbolTableRecord
100
AcDbLinetypeTableRecord
  2
Continuous
 70
     0
  3
Solid line
 72
    65
 73
     0
 40
0.0
  0
LTYPE
  5
6E
330
5
100
AcDbSymbolTableRecord
100
AcDbLinetypeTableRecord
  2
HIDDEN
 70
     0
  3
Hidden __ __ __ __ __ __ __ __ __ __ __ __ __ __
 72
    65
 73
     2
 40
1.905
 49
1.27
 74
     0
 49
-0.635
 74
     0
  0
LTYPE
  5
6F
330
5
100
AcDbSymbolTableRecord
100
AcDbLinetypeTableRecord
  2
PHANTOM
 70
     0
  3
Phantom ______  __  __  ______  __  __  ______
 72
    65
 73
     6
 40
12.7
 49
6.35
 74
     0
 49
-1.27
 74
     0
 49
1.27
 74
     0
 49
-1.27
 74
     0
 49
1.27
 74
     0
 49
-1.27
 74
     0
  0
LTYPE
  5
70
330
5
100
AcDbSymbolTableRecord
100
AcDbLinetypeTableRecord
  2
CENTER
 70
     0
  3
Center ____ _ ____ _ ____ _ ____ _ ____ _ ____
 72
    65
 73
     4
 40
10.16
 49
6.35
 74
     0
 49
-1.27
 74
     0
 49
1.27
 74
     0
 49
-1.27
 74
     0
  0
LTYPE
  5
71
330
5
100
AcDbSymbolTableRecord
100
AcDbLinetypeTableRecord
  2
CENTERX2
 70
     0
  3
Center (2x) ________  __  ________  __  _____
 72
    65
 73
     4
 40
20.32
 49
12.7
 74
     0
 49
-2.54
 74
     0
 49
2.54
 74
     0
 49
-2.54
 74
     0
  0
LTYPE
  5
72
330
5
100
AcDbSymbolTableRecord
100
AcDbLinetypeTableRecord
  2
DOT2
 70
     0
  3
Dot (.5x) ........................................
 72
    65
 73
     2
 40
0.635
 49
0.0
 74
     0
 49
-0.635
 74
     0
  0
ENDTAB
  0
TABLE
  2
LAYER
  5
2
330
0
100
AcDbSymbolTable
 70
     1
  0
LAYER
  5
10
330
2
100
AcDbSymbolTableRecord
100
AcDbLayerTableRecord
  2
0
 70
     0
 62
     7
  6
Continuous
370
    -3
390
F
  0
ENDTAB
  0
TABLE
  2
STYLE
  5
3
330
0
100
AcDbSymbolTable
 70
     1
  0
STYLE
  5
11
330
3
100
AcDbSymbolTableRecord
100
AcDbTextStyleTableRecord
  2
Standard
 70
     0
 40
0.0
 41
1.0
 50
0.0
 71
     0
 42
3.5
  3
txt
  4

  0
ENDTAB
  0
TABLE
  2
VIEW
  5
6
330
0
100
AcDbSymbolTable
 70
     0
  0
ENDTAB
  0
TABLE
  2
UCS
  5
7
330
0
100
AcDbSymbolTable
 70
     0
  0
ENDTAB
  0
TABLE
  2
APPID
  5
9
330
0
100
AcDbSymbolTable
 70
     1
  0
APPID
  5
12
330
9
100
AcDbSymbolTableRecord
100
AcDbRegAppTableRecord
  2
ACAD
 70
     0
  0
ENDTAB
  0
TABLE
  2
DIMSTYLE
  5
A
330
0
100
AcDbSymbolTable
 70
     1
100
AcDbDimStyleTable
  0
DIMSTYLE
105
27
330
A
100
AcDbSymbolTableRecord
100
AcDbDimStyleTableRecord
  2
ISO-25
 70
     0
 41
2.5
 42
0.625
 43
3.75
 44
1.25
 73
     0
 74
     0
 77
     1
 78
     8
140
2.5
141
2.5
143
0.0393700787
147
0.625
171
     3
172
     1
178
     0
271
     2
272
     2
274
     3
278
    44
283
     0
284
     8
340
11
  0
ENDTAB
  0
TABLE
  2
BLOCK_RECORD
  5
1
330
0
100
AcDbSymbolTable
 70
     8
  0
BLOCK_RECORD
  5
1F
330
1
100
AcDbSymbolTableRecord
100
AcDbBlockTableRecord
  2
*Model_Space
340
22
  0
BLOCK_RECORD
  5
1B
330
1
100
AcDbSymbolTableRecord
100
AcDbBlockTableRecord
  2
*Paper_Space
340
1E
  0
BLOCK_RECORD
  5
23
330
1
100
AcDbSymbolTableRecord
100
AcDbBlockTableRecord
  2
*Paper_Space0
340
26
  0
BLOCK_RECORD
  5
8F
330
1
100
AcDbSymbolTableRecord
100
AcDbBlockTableRecord
  2
*Paper_Space1
340
90
  0
BLOCK_RECORD
  5
9D
330
1
100
AcDbSymbolTableRecord
100
AcDbBlockTableRecord
  2
*Paper_Space2
340
9E
  0
BLOCK_RECORD
  5
A9
330
1
100
AcDbSymbolTableRecord
100
AcDbBlockTableRecord
  2
*Paper_Space3
340
AA
  0
BLOCK_RECORD
  5
B5
330
1
100
AcDbSymbolTableRecord
100
AcDbBlockTableRecord
  2
*Paper_Space4
340
B6
  0
BLOCK_RECORD
  5
C1
330
1
100
AcDbSymbolTableRecord
100
AcDbBlockTableRecord
  2
*Paper_Space5
340
C2
  0
BLOCK_RECORD
  5
DD
330
1
100
AcDbSymbolTableRecord
100
AcDbBlockTableRecord
  2
*Paper_Space6
340
DE
  0
BLOCK_RECORD
  5
F9
330
1
100
AcDbSymbolTableRecord
100
AcDbBlockTableRecord
  2
*Paper_Space7
340
FA
  0
ENDTAB
  0
ENDSEC
  0
SECTION
  2
BLOCKS
  0
BLOCK
  5
20
330
1F
100
AcDbEntity
  8
0
100
AcDbBlockBegin
  2
*Model_Space
 70
     0
 10
0.0
 20
0.0
 30
0.0
  3
*Model_Space
  1

  0
ENDBLK
  5
21
330
1F
100
AcDbEntity
  8
0
100
AcDbBlockEnd
  0
BLOCK
  5
1C
330
1B
100
AcDbEntity
 67
     1
  8
0
100
AcDbBlockBegin
  2
*Paper_Space
 70
     0
 10
0.0
 20
0.0
 30
0.0
  3
*Paper_Space
  1

  0
ENDBLK
  5
1D
330
1B
100
AcDbEntity
 67
     1
  8
0
100
AcDbBlockEnd
  0
BLOCK
  5
24
330
23
100
AcDbEntity
  8
0
100
AcDbBlockBegin
  2
*Paper_Space0
 70
     0
 10
0.0
 20
0.0
 30
0.0
  3
*Paper_Space0
  1

  0
LINE
  5
8B
330
23
100
AcDbEntity
  8
0
  6
Continuous
 62
     7
370
    25
100
AcDbLine
 10
21.8003412969
 20
-2.0
 30
0.0
 11
-13.1996587031
 21
-2.0
 31
0.0
  0
LINE
  5
8C
330
23
100
AcDbEntity
  8
0
  6
Continuous
 62
     7
370
    25
100
AcDbLine
 10
21.8003412969
 20
-2.0
 30
0.0
 11
21.8003412969
 21
0.0
 31
0.0
  0
LINE
  5
8D
330
23
100
AcDbEntity
  8
0
  6
Continuous
 62
     7
370
    25
100
AcDbLine
 10
21.8003412969
 20
0.0
 30
0.0
 11
-13.1996587031
 21
0.0
 31
0.0
  0
LINE
  5
8E
330
23
100
AcDbEntity
  8
0
  6
Continuous
 62
     7
370
    25
100
AcDbLine
 10
-13.1996587031
 20
-2.0
 30
0.0
 11
-13.1996587031
 21
0.0
 31
0.0
  0
VIEWPORT
  5
117
330
23
100
AcDbEntity
  8
0
100
AcDbViewport
 10
0.0
 20
0.0
 30
0.0
 40
205.6
 41
156.0
 68
     1
 69
     1
 12
4.3003412969
 22
-6.9368600683
 13
0.0
 23
0.0
 14
10.0
 24
10.0
 15
10.0
 25
10.0
 16
0.0
 26
0.0
 36
1.0
 17
0.0
 27
0.0
 37
0.0
 42
50.0
 43
0.0
 44
0.0
 45
30.6
 50
0.0
 51
0.0
 72
   100
 90
   557152
  1

281
     0
 71
     1
 74
     0
110
0.0
120
0.0
130
0.0
111
1.0
121
0.0
131
0.0
112
0.0
122
1.0
132
0.0
 79
     0
146
0.0
  0
ENDBLK
  5
25
330
23
100
AcDbEntity
  8
0
100
AcDbBlockEnd
  0
BLOCK
  5
91
330
8F
100
AcDbEntity
  8
0
100
AcDbBlockBegin
  2
*Paper_Space1
 70
     0
 10
0.0
 20
0.0
 30
0.0
  3
*Paper_Space1
  1

  0
CIRCLE
  5
94
330
8F
100
AcDbEntity
  8
0
  6
Continuous
 62
     7
370
    25
100
AcDbCircle
 10
-18.8003412969
 20
5.0631399317
 30
0.0
 40
1.499999999999993
  0
CIRCLE
  5
95
330
8F
100
AcDbEntity
  8
0
  6
Continuous
 62
     7
370
    25
100
AcDbCircle
 10
10.1996587031
 20
5.0631399317
 30
0.0
 40
1.500000000000002
  0
LINE
  5
99
330
8F
100
AcDbEntity
  8
0
  6
Continuous
 62
     7
370
    25
100
AcDbLine
 10
13.1996587031
 20
8.0631399317
 30
0.0
 11
13.1996587031
 21
-21.9368600683
 31
0.0
  0
LINE
  5
9A
330
8F
100
AcDbEntity
  8
0
  6
Continuous
 62
     7
370
    25
100
AcDbLine
 10
-21.8003412969
 20
8.0631399317
 30
0.0
 11
13.1996587031
 21
8.0631399317
 31
0.0
  0
LINE
  5
9B
330
8F
100
AcDbEntity
  8
0
  6
Continuous
 62
     7
370
    25
100
AcDbLine
 10
13.1996587031
 20
-21.9368600683
 30
0.0
 11
-21.8003412969
 21
-21.9368600683
 31
0.0
  0
LINE
  5
9C
330
8F
100
AcDbEntity
  8
0
  6
Continuous
 62
     7
370
    25
100
AcDbLine
 10
-21.8003412969
 20
-21.9368600683
 30
0.0
 11
-21.8003412969
 21
8.0631399317
 31
0.0
  0
VIEWPORT
  5
119
330
8F
100
AcDbEntity
  8
0
100
AcDbViewport
 10
0.0
 20
0.0
 30
0.0
 40
205.6
 41
156.0
 68
     1
 69
     1
 12
4.3003412969
 22
-6.9368600683
 13
0.0
 23
0.0
 14
10.0
 24
10.0
 15
10.0
 25
10.0
 16
0.0
 26
0.0
 36
1.0
 17
0.0
 27
0.0
 37
0.0
 42
50.0
 43
0.0
 44
0.0
 45
30.6
 50
0.0
 51
0.0
 72
   100
 90
   557152
  1

281
     0
 71
     1
 74
     0
110
0.0
120
0.0
130
0.0
111
1.0
121
0.0
131
0.0
112
0.0
122
1.0
132
0.0
 79
     0
146
0.0
  0
ENDBLK
  5
92
330
8F
100
AcDbEntity
  8
0
100
AcDbBlockEnd
  0
BLOCK
  5
9F
330
9D
100
AcDbEntity
  8
0
100
AcDbBlockBegin
  2
*Paper_Space2
 70
     0
 10
0.0
 20
0.0
 30
0.0
  3
*Paper_Space2
  1

  0
LINE
  5
A5
330
9D
100
AcDbEntity
  8
0
  6
Continuous
 62
     7
370
    25
100
AcDbLine
 10
2.0
 20
8.0631399317
 30
0.0
 11
0.0
 21
8.0631399317
 31
0.0
  0
LINE
  5
A6
330
9D
100
AcDbEntity
  8
0
  6
Continuous
 62
     7
370
    25
100
AcDbLine
 10
2.0
 20
8.0631399317
 30
0.0
 11
2.0
 21
-21.9368600683
 31
0.0
  0
LINE
  5
A7
330
9D
100
AcDbEntity
  8
0
  6
Continuous
 62
     7
370
    25
100
AcDbLine
 10
2.0
 20
-21.9368600683
 30
0.0
 11
0.0
 21
-21.9368600683
 31
0.0
  0
LINE
  5
A8
330
9D
100
AcDbEntity
  8
0
  6
Continuous
 62
     7
370
    25
100
AcDbLine
 10
0.0
 20
8.0631399317
 30
0.0
 11
0.0
 21
-21.9368600683
 31
0.0
  0
VIEWPORT
  5
11B
330
9D
100
AcDbEntity
  8
0
100
AcDbViewport
 10
0.0
 20
0.0
 30
0.0
 40
205.6
 41
156.0
 68
     1
 69
     1
 12
4.3003412969
 22
-6.9368600683
 13
0.0
 23
0.0
 14
10.0
 24
10.0
 15
10.0
 25
10.0
 16
0.0
 26
0.0
 36
1.0
 17
0.0
 27
0.0
 37
0.0
 42
50.0
 43
0.0
 44
0.0
 45
30.6
 50
0.0
 51
0.0
 72
   100
 90
   557152
  1

281
     0
 71
     1
 74
     0
110
0.0
120
0.0
130
0.0
111
1.0
121
0.0
131
0.0
112
0.0
122
1.0
132
0.0
 79
     0
146
0.0
  0
ENDBLK
  5
A0
330
9D
100
AcDbEntity
  8
0
100
AcDbBlockEnd
  0
BLOCK
  5
AB
330
A9
100
AcDbEntity
  8
0
100
AcDbBlockBegin
  2
*Paper_Space3
 70
     0
 10
0.0
 20
0.0
 30
0.0
  3
*Paper_Space3
  1

  0
LINE
  5
B1
330
A9
100
AcDbEntity
  8
0
  6
Continuous
 62
     7
370
    25
100
AcDbLine
 10
-2.0
 20
-21.9368600683
 30
0.0
 11
0.0
 21
-21.9368600683
 31
0.0
  0
LINE
  5
B2
330
A9
100
AcDbEntity
  8
0
  6
Continuous
 62
     7
370
    25
100
AcDbLine
 10
-2.0
 20
-21.9368600683
 30
0.0
 11
-2.0
 21
8.0631399317
 31
0.0
  0
LINE
  5
B3
330
A9
100
AcDbEntity
  8
0
  6
Continuous
 62
     7
370
    25
100
AcDbLine
 10
-2.0
 20
8.0631399317
 30
0.0
 11
0.0
 21
8.0631399317
 31
0.0
  0
LINE
  5
B4
330
A9
100
AcDbEntity
  8
0
  6
Continuous
 62
     7
370
    25
100
AcDbLine
 10
0.0
 20
-21.9368600683
 30
0.0
 11
0.0
 21
8.0631399317
 31
0.0
  0
VIEWPORT
  5
11D
330
A9
100
AcDbEntity
  8
0
100
AcDbViewport
 10
0.0
 20
0.0
 30
0.0
 40
205.6
 41
156.0
 68
     1
 69
     1
 12
4.3003412969
 22
-6.9368600683
 13
0.0
 23
0.0
 14
10.0
 24
10.0
 15
10.0
 25
10.0
 16
0.0
 26
0.0
 36
1.0
 17
0.0
 27
0.0
 37
0.0
 42
50.0
 43
0.0
 44
0.0
 45
30.6
 50
0.0
 51
0.0
 72
   100
 90
   557152
  1

281
     0
 71
     1
 74
     0
110
0.0
120
0.0
130
0.0
111
1.0
121
0.0
131
0.0
112
0.0
122
1.0
132
0.0
 79
     0
146
0.0
  0
ENDBLK
  5
AC
330
A9
100
AcDbEntity
  8
0
100
AcDbBlockEnd
  0
BLOCK
  5
B7
330
B5
100
AcDbEntity
  8
0
100
AcDbBlockBegin
  2
*Paper_Space4
 70
     0
 10
0.0
 20
0.0
 30
0.0
  3
*Paper_Space4
  1

  0
LINE
  5
BD
330
B5
100
AcDbEntity
  8
0
  6
Continuous
 62
     7
370
    25
100
AcDbLine
 10
-13.1996587031
 20
2.0
 30
0.0
 11
21.8003412969
 21
2.0
 31
0.0
  0
LINE
  5
BE
330
B5
100
AcDbEntity
  8
0
  6
Continuous
 62
     7
370
    25
100
AcDbLine
 10
21.8003412969
 20
2.0
 30
0.0
 11
21.8003412969
 21
0.0
 31
0.0
  0
LINE
  5
BF
330
B5
100
AcDbEntity
  8
0
  6
Continuous
 62
     7
370
    25
100
AcDbLine
 10
-13.1996587031
 20
0.0
 30
0.0
 11
21.8003412969
 21
0.0
 31
0.0
  0
LINE
  5
C0
330
B5
100
AcDbEntity
  8
0
  6
Continuous
 62
     7
370
    25
100
AcDbLine
 10
-13.1996587031
 20
2.0
 30
0.0
 11
-13.1996587031
 21
0.0
 31
0.0
  0
VIEWPORT
  5
11F
330
B5
100
AcDbEntity
  8
0
100
AcDbViewport
 10
0.0
 20
0.0
 30
0.0
 40
205.6
 41
156.0
 68
     1
 69
     1
 12
4.3003412969
 22
-6.9368600683
 13
0.0
 23
0.0
 14
10.0
 24
10.0
 15
10.0
 25
10.0
 16
0.0
 26
0.0
 36
1.0
 17
0.0
 27
0.0
 37
0.0
 42
50.0
 43
0.0
 44
0.0
 45
30.6
 50
0.0
 51
0.0
 72
   100
 90
   557152
  1

281
     0
 71
     1
 74
     0
110
0.0
120
0.0
130
0.0
111
1.0
121
0.0
131
0.0
112
0.0
122
1.0
132
0.0
 79
     0
146
0.0
  0
ENDBLK
  5
B8
330
B5
100
AcDbEntity
  8
0
100
AcDbBlockEnd
  0
BLOCK
  5
C3
330
C1
100
AcDbEntity
  8
0
100
AcDbBlockBegin
  2
*Paper_Space5
 70
     0
 10
0.0
 20
0.0
 30
0.0
  3
*Paper_Space5
  1

  0
LWPOLYLINE
  5
C9
330
C1
100
AcDbEntity
  8
0
  6
Continuous
 62
     7
370
    25
100
AcDbPolyline
 90
       44
 70
   128
 43
0.0
 10
12.9402954291
 20
-4.9688293751
 10
12.928992364
 20
-4.7839703109
 10
12.8953240741
 20
-4.5900009557
 10
12.8400081404
 20
-4.3910554294
 10
12.7642235261
 20
-4.1913739105
 10
12.6695854486
 20
-3.9952122639
 10
12.5581109542
 20
-3.8067513346
 10
12.4321759283
 20
-3.6300078401
 10
12.2944644573
 20
-3.4687487611
 10
12.1479116221
 20
-3.3264110548
 10
11.995640942
 20
-3.2060284025
 10
11.8408978021
 20
-3.1101665513
 10
11.6869802837
 20
-3.0408686301
 10
11.5371688717
 20
-2.9996116038
 10
11.3946565361
 20
-2.9872747944
 10
11.26248068
 20
-3.0041211394
 10
11.1434584022
 20
-3.0497915884
 10
11.0401264559
 20
-3.1233127549
 10
10.9546871823
 20
-3.2231176629
 10
10.888961571
 20
-3.3470791442
 10
10.8443504493
 20
-3.4925551749
 10
10.821804626
 20
-3.656445186
 10
10.821804626
 20
-3.8352561465
 10
10.8443504493
 20
-4.0251770112
 10
10.888961571
 20
-4.2221599466
 10
10.9546871823
 20
-4.4220066034
 10
11.0401264559
 20
-4.620457597
 10
11.1434584022
 20
-4.8132832892
 10
11.26248068
 20
-4.996373935
 10
11.3946565361
 20
-5.1658272753
 10
11.5371688717
 20
-5.3180317062
 10
11.6869802837
 20
-5.4497432545
 10
11.8408978021
 20
-5.5581547173
 10
11.995640942
 20
-5.6409554925
 10
12.1479116221
 20
-5.6963808253
 10
12.2944644573
 20
-5.7232494209
 10
12.4321759283
 20
-5.7209886219
 10
12.5581109542
 20
-5.6896466133
 10
12.6695854486
 20
-5.6298913956
 10
12.7642235261
 20
-5.5429965475
 10
12.8400081404
 20
-5.4308140819
 10
12.8953240741
 20
-5.2957349732
 10
12.928992364
 20
-5.1406381981
 10
12.9402954291
 20
-4.9688293751
  0
LWPOLYLINE
  5
CA
330
C1
100
AcDbEntity
  8
0
  6
Continuous
 62
     7
370
    25
100
AcDbPolyline
 90
       44
 70
   128
 43
0.0
 10
-7.5658012253
 20
6.8690882464
 10
-7.5771042904
 20
7.0539473105
 10
-7.6107725803
 20
7.2479166657
 10
-7.666088514
 20
7.4468621921
 10
-7.7418731283
 20
7.6465437109
 10
-7.8365112058
 20
7.8427053575
 10
-7.9479857002
 20
8.0311662868
 10
-8.0739207261
 20
8.2079097813
 10
-8.2116321971
 20
8.3691688604
 10
-8.3581850323
 20
8.5115065666
 10
-8.5104557124
 20
8.631889219
 10
-8.6651988524
 20
8.7277510702
 10
-8.8191163707
 20
8.7970489914
 10
-8.9689277827
 20
8.8383060176
 10
-9.1114401183
 20
8.850642827
 10
-9.2436159744
 20
8.833796482
 10
-9.3626382522
 20
8.788126033
 10
-9.4659701985
 20
8.7146048665
 10
-9.5514094721
 20
8.6147999585
 10
-9.6171350834
 20
8.4908384772
 10
-9.6617462051
 20
8.3453624465
 10
-9.6842920284
 20
8.1814724354
 10
-9.6842920284
 20
8.0026614749
 10
-9.6617462051
 20
7.8127406102
 10
-9.6171350834
 20
7.6157576749
 10
-9.5514094721
 20
7.4159110181
 10
-9.4659701985
 20
7.2174600244
 10
-9.3626382522
 20
7.0246343322
 10
-9.2436159744
 20
6.8415436864
 10
-9.1114401183
 20
6.6720903462
 10
-8.9689277827
 20
6.5198859153
 10
-8.8191163707
 20
6.3881743669
 10
-8.6651988524
 20
6.2797629041
 10
-8.5104557124
 20
6.1969621289
 10
-8.3581850323
 20
6.1415367962
 10
-8.2116321971
 20
6.1146682005
 10
-8.0739207261
 20
6.1169289995
 10
-7.9479857002
 20
6.1482710081
 10
-7.8365112058
 20
6.2080262258
 10
-7.7418731283
 20
6.2949210739
 10
-7.666088514
 20
6.4071035395
 10
-7.6107725803
 20
6.5421826482
 10
-7.5771042904
 20
6.6972794234
 10
-7.5658012253
 20
6.8690882464
  0
LINE
  5
D2
330
C1
100
AcDbEntity
  8
0
  6
Continuous
 62
     7
370
    25
100
AcDbLine
 10
14.0009556009
 20
-3.1315130233
 30
0.0
 11
-10.7477817407
 21
11.1556289336
 31
0.0
  0
LINE
  5
D3
330
C1
100
AcDbEntity
  8
0
  6
Continuous
 62
     7
370
    25
100
AcDbLine
 10
14.0009556009
 20
-27.6277373798
 30
0.0
 11
14.0009556009
 21
-3.1315130233
 31
0.0
  0
LINE
  5
D4
330
C1
100
AcDbEntity
  8
0
  6
Continuous
 62
     7
370
    25
100
AcDbLine
 10
-10.7477817407
 20
-13.3405954229
 30
0.0
 11
14.0009556009
 21
-27.6277373798
 31
0.0
  0
LINE
  5
D5
330
C1
100
AcDbEntity
  8
0
  6
Continuous
 62
     7
370
    25
100
AcDbLine
 10
-10.7477817407
 20
11.1556289336
 30
0.0
 11
-10.7477817407
 21
-13.3405954229
 31
0.0
  0
LINE
  5
D6
330
C1
100
AcDbEntity
  8
0
  6
Continuous
 62
     7
370
    25
100
AcDbLine
 10
14.0009556009
 20
-3.1315130233
 30
0.0
 11
15.4151691632
 21
-2.3151049114
 31
0.0
  0
LINE
  5
D7
330
C1
100
AcDbEntity
  8
0
  6
Continuous
 62
     7
370
    25
100
AcDbLine
 10
-10.7477817407
 20
11.1556289336
 30
0.0
 11
-9.3335681783
 21
11.9720370455
 31
0.0
  0
LINE
  5
D8
330
C1
100
AcDbEntity
  8
0
  6
Continuous
 62
     7
370
    25
100
AcDbLine
 10
15.4151691632
 20
-2.3151049114
 30
0.0
 11
-9.3335681783
 21
11.9720370455
 31
0.0
  0
LINE
  5
D9
330
C1
100
AcDbEntity
  8
0
  6
Continuous
 62
     7
370
    25
100
AcDbLine
 10
14.0009556009
 20
-27.6277373798
 30
0.0
 11
15.4151691632
 21
-26.811329268
 31
0.0
  0
LINE
  5
DA
330
C1
100
AcDbEntity
  8
0
  6
Continuous
 62
     7
370
    25
100
AcDbLine
 10
15.4151691632
 20
-26.811329268
 30
0.0
 11
15.4151691632
 21
-2.3151049114
 31
0.0
  0
ARC
  5
DB
330
C1
100
AcDbEntity
  8
0
  6
Continuous
 62
     7
370
    25
100
AcDbCircle
 10
14.7294591374
 20
-2.7113549836
 30
0.0
 40
2.524211189466667
100
AcDbArc
 50
198.5649844328
 51
221.4296390345
  0
ARC
  5
DC
330
C1
100
AcDbEntity
  8
0
  6
Continuous
 62
     7
370
    25
100
AcDbCircle
 10
-5.7766375171
 20
9.1265626378
 30
0.0
 40
2.524211189466604
100
AcDbArc
 50
198.5649844328
 51
221.4296390345
  0
VIEWPORT
  5
121
330
C1
100
AcDbEntity
  8
0
100
AcDbViewport
 10
0.0
 20
0.0
 30
0.0
 40
205.6
 41
156.0
 68
     1
 69
     1
 12
4.3003412969
 22
-6.9368600683
 13
0.0
 23
0.0
 14
10.0
 24
10.0
 15
10.0
 25
10.0
 16
0.0
 26
0.0
 36
1.0
 17
0.0
 27
0.0
 37
0.0
 42
50.0
 43
0.0
 44
0.0
 45
30.6
 50
0.0
 51
0.0
 72
   100
 90
   557152
  1

281
     0
 71
     1
 74
     0
110
0.0
120
0.0
130
0.0
111
1.0
121
0.0
131
0.0
112
0.0
122
1.0
132
0.0
 79
     0
146
0.0
  0
ENDBLK
  5
C4
330
C1
100
AcDbEntity
  8
0
100
AcDbBlockEnd
  0
BLOCK
  5
DF
330
DD
100
AcDbEntity
  8
0
100
AcDbBlockBegin
  2
*Paper_Space6
 70
     0
 10
0.0
 20
0.0
 30
0.0
  3
*Paper_Space6
  1

  0
LWPOLYLINE
  5
E5
330
DD
100
AcDbEntity
  8
0
  6
Continuous
 62
     7
370
    25
100
AcDbPolyline
 90
       44
 70
   128
 43
0.0
 10
17.0205989414
 20
-1.4505697235
 10
17.0064615638
 20
-1.2595206473
 10
16.9643507447
 20
-1.0648589779
 10
16.8951640031
 20
-0.8707335907
 10
16.8003759342
 20
-0.6812819315
 10
16.6820067813
 20
-0.5005418333
 10
16.5425793772
 20
-0.3323654576
 10
16.385065375
 20
-0.1803371919
 10
16.2128219123
 20
-0.0476972547
 10
16.0295200593
 20
0.062727364
 10
15.8390665769
 20
0.1485831553
 10
15.6455206503
 20
0.2080402519
 10
15.453007375
 20
0.2398314291
 10
15.2656298372
 20
0.2432791131
 10
15.0873816638
 20
0.2183098225
 10
14.9220619051
 20
0.1654557344
 10
14.7731940648
 20
0.085843342
 10
14.6439510024
 20
-0.0188305549
 10
14.5370873095
 20
-0.1463350139
 10
14.4548806001
 20
-0.2939524987
 10
14.3990829675
 20
-0.458536799
 10
14.3708836414
 20
-0.6365800862
 10
14.3708836414
 20
-0.8242876767
 10
14.3990829675
 20
-1.0176589091
 10
14.4548806001
 20
-1.2125724113
 10
14.5370873095
 20
-1.4048739404
 10
14.6439510024
 20
-1.5904649232
 10
14.7731940648
 20
-1.7653898101
 10
14.9220619051
 20
-1.9259203808
 10
15.0873816638
 20
-2.068635205
 10
15.2656298372
 20
-2.1904925638
 10
15.453007375
 20
-2.2888952794
 10
15.6455206503
 20
-2.3617460685
 10
15.8390665769
 20
-2.4074922432
 10
16.0295200593
 20
-2.4251588032
 10
16.2128219123
 20
-2.4143692163
 10
16.385065375
 20
-2.375353444
 10
16.5425793772
 20
-2.3089430396
 10
16.6820067813
 20
-2.2165534257
 10
16.8003759342
 20
-2.1001537264
 10
16.8951640031
 20
-1.9622247992
 10
16.9643507447
 20
-1.8057063599
 10
17.0064615638
 20
-1.6339343271
 10
17.0205989414
 20
-1.4505697235
  0
LWPOLYLINE
  5
E6
330
DD
100
AcDbEntity
  8
0
  6
Continuous
 62
     7
370
    25
100
AcDbPolyline
 90
       44
 70
   128
 43
0.0
 10
-8.6275265873
 20
5.5200412224
 10
-8.6416639649
 20
5.7110902986
 10
-8.6837747839
 20
5.905751968
 10
-8.7529615256
 20
6.0998773551
 10
-8.8477495944
 20
6.2893290144
 10
-8.9661187474
 20
6.4700691125
 10
-9.1055461515
 20
6.6382454882
 10
-9.2630601536
 20
6.7902737539
 10
-9.4353036164
 20
6.9229136911
 10
-9.6186054693
 20
7.0333383099
 10
-9.8090589518
 20
7.1191941011
 10
-10.0026048783
 20
7.1786511977
 10
-10.1951181536
 20
7.2104423749
 10
-10.3824956915
 20
7.2138900589
 10
-10.5607438649
 20
7.1889207683
 10
-10.7260636236
 20
7.1360666803
 10
-10.8749314638
 20
7.0564542878
 10
-11.0041745262
 20
6.9517803909
 10
-11.1110382191
 20
6.824275932
 10
-11.1932449285
 20
6.6766584471
 10
-11.2490425611
 20
6.5120741468
 10
-11.2772418873
 20
6.3340308596
 10
-11.2772418873
 20
6.1463232691
 10
-11.2490425611
 20
5.9529520367
 10
-11.1932449285
 20
5.7580385345
 10
-11.1110382191
 20
5.5657370054
 10
-11.0041745262
 20
5.3801460226
 10
-10.8749314638
 20
5.2052211357
 10
-10.7260636236
 20
5.044690565
 10
-10.5607438649
 20
4.9019757408
 10
-10.3824956915
 20
4.780118382
 10
-10.1951181536
 20
4.6817156665
 10
-10.0026048783
 20
4.6088648773
 10
-9.8090589518
 20
4.5631187026
 10
-9.6186054693
 20
4.5454521426
 10
-9.4353036164
 20
4.5562417295
 10
-9.2630601536
 20
4.5952575018
 10
-9.1055461515
 20
4.6616679062
 10
-8.9661187474
 20
4.7540575201
 10
-8.8477495944
 20
4.8704572194
 10
-8.7529615256
 20
5.0083861466
 10
-8.6837747839
 20
5.164904586
 10
-8.6416639649
 20
5.3366766188
 10
-8.6275265873
 20
5.5200412224
  0
LINE
  5
EE
330
DD
100
AcDbEntity
  8
0
  6
Continuous
 62
     7
370
    25
100
AcDbLine
 10
18.3472261239
 20
0.7603833366
 30
0.0
 11
-12.6074081348
 21
9.1731896506
 31
0.0
  0
LINE
  5
EF
330
DD
100
AcDbEntity
  8
0
  6
Continuous
 62
     7
370
    25
100
AcDbLine
 10
18.3472261239
 20
-24.9546356844
 30
0.0
 11
18.3472261239
 21
0.7603833366
 31
0.0
  0
LINE
  5
F0
330
DD
100
AcDbEntity
  8
0
  6
Continuous
 62
     7
370
    25
100
AcDbLine
 10
-12.6074081348
 20
-16.5418293705
 30
0.0
 11
18.3472261239
 21
-24.9546356844
 31
0.0
  0
LINE
  5
F1
330
DD
100
AcDbEntity
  8
0
  6
Continuous
 62
     7
370
    25
100
AcDbLine
 10
-12.6074081348
 20
9.1731896506
 30
0.0
 11
-12.6074081348
 21
-16.5418293705
 31
0.0
  0
LINE
  5
F2
330
DD
100
AcDbEntity
  8
0
  6
Continuous
 62
     7
370
    25
100
AcDbLine
 10
18.3472261239
 20
0.7603833366
 30
0.0
 11
19.2806169018
 21
1.6714013502
 31
0.0
  0
LINE
  5
F3
330
DD
100
AcDbEntity
  8
0
  6
Continuous
 62
     7
370
    25
100
AcDbLine
 10
-12.6074081348
 20
9.1731896506
 30
0.0
 11
-11.674017357
 21
10.0842076642
 31
0.0
  0
LINE
  5
F4
330
DD
100
AcDbEntity
  8
0
  6
Continuous
 62
     7
370
    25
100
AcDbLine
 10
19.2806169018
 20
1.6714013502
 30
0.0
 11
-11.674017357
 21
10.0842076642
 31
0.0
  0
LINE
  5
F5
330
DD
100
AcDbEntity
  8
0
  6
Continuous
 62
     7
370
    25
100
AcDbLine
 10
18.3472261239
 20
-24.9546356844
 30
0.0
 11
19.2806169018
 21
-24.0436176708
 31
0.0
  0
LINE
  5
F6
330
DD
100
AcDbEntity
  8
0
  6
Continuous
 62
     7
370
    25
100
AcDbLine
 10
19.2806169018
 20
-24.0436176708
 30
0.0
 11
19.2806169018
 21
1.6714013502
 31
0.0
  0
ARC
  5
F7
330
DD
100
AcDbEntity
  8
0
  6
Continuous
 62
     7
370
    25
100
AcDbCircle
 10
17.0676172538
 20
0.2506992326
 30
0.0
 40
1.765259184116426
100
AcDbArc
 50
180.1893429051
 51
268.420724333
  0
ARC
  5
F8
330
DD
100
AcDbEntity
  8
0
  6
Continuous
 62
     7
370
    25
100
AcDbCircle
 10
-8.5805082749
 20
7.2213101785
 30
0.0
 40
1.765259184116427
100
AcDbArc
 50
180.1893429051
 51
268.420724333
  0
VIEWPORT
  5
123
330
DD
100
AcDbEntity
  8
0
100
AcDbViewport
 10
0.0
 20
0.0
 30
0.0
 40
205.6
 41
156.0
 68
     1
 69
     1
 12
4.3003412969
 22
-6.9368600683
 13
0.0
 23
0.0
 14
10.0
 24
10.0
 15
10.0
 25
10.0
 16
0.0
 26
0.0
 36
1.0
 17
0.0
 27
0.0
 37
0.0
 42
50.0
 43
0.0
 44
0.0
 45
30.6
 50
0.0
 51
0.0
 72
   100
 90
   557152
  1

281
     0
 71
     1
 74
     0
110
0.0
120
0.0
130
0.0
111
1.0
121
0.0
131
0.0
112
0.0
122
1.0
132
0.0
 79
     0
146
0.0
  0
ENDBLK
  5
E0
330
DD
100
AcDbEntity
  8
0
100
AcDbBlockEnd
  0
BLOCK
  5
FB
330
F9
100
AcDbEntity
  8
0
100
AcDbBlockBegin
  2
*Paper_Space7
 70
     0
 10
0.0
 20
0.0
 30
0.0
  3
*Paper_Space7
  1

  0
LWPOLYLINE
  5
101
330
F9
100
AcDbEntity
  8
0
  6
Continuous
 62
     7
370
    25
100
AcDbPolyline
 90
       44
 70
   128
 43
0.0
 10
18.2821237115
 20
1.7575463781
 10
18.2671711619
 20
1.9653413684
 10
18.2226322008
 20
2.1724752576
 10
18.1494560988
 20
2.3745333464
 10
18.0492024774
 20
2.5672091176
 10
17.9240080686
 20
2.7463960215
 10
17.7765411738
 20
2.9082750004
 10
17.6099447939
 20
3.0493958848
 10
17.4277696414
 20
3.1667509283
 10
17.2338984634
 20
3.2578389117
 10
17.0324632876
 20
3.3207184528
 10
16.8277573549
 20
3.3540493834
 10
16.624143617
 20
3.3571213126
 10
16.4259617471
 20
3.3298687675
 10
16.2374356477
 20
3.2728725887
 10
16.0625834254
 20
3.187347551
 10
15.9051317516
 20
3.075116472
 10
15.7684364354
 20
2.9385713623
 10
15.6554109003
 20
2.7806224438
 10
15.5684640892
 20
2.6046361236
 10
15.5094491224
 20
2.4143632444
 10
15.4796238015
 20
2.2138591425
 10
15.4796238015
 20
2.0073972145
 10
15.5094491224
 20
1.7993778381
 10
15.5684640892
 20
1.594234585
 10
15.6554109003
 20
1.3963397277
 10
15.7684364354
 20
1.2099110514
 10
15.9051317516
 20
1.0389219596
 10
16.0625834254
 20
0.887016788
 10
16.2374356477
 20
0.7574331316
 10
16.4259617471
 20
0.652932841
 10
16.624143617
 20
0.5757431586
 10
16.8277573549
 20
0.5275092483
 10
17.0324632876
 20
0.5092591323
 10
17.2338984634
 20
0.5213817801
 10
17.4277696414
 20
0.5636188184
 10
17.6099447939
 20
0.6350700382
 10
17.7765411738
 20
0.7342125808
 10
17.9240080686
 20
0.8589333949
 10
18.0492024774
 20
1.006574273
 10
18.1494560988
 20
1.173988506
 10
18.2226322008
 20
1.3576079503
 10
18.2671711619
 20
1.5535190762
 10
18.2821237115
 20
1.7575463781
  0
LWPOLYLINE
  5
102
330
F9
100
AcDbEntity
  8
0
  6
Continuous
 62
     7
370
    25
100
AcDbPolyline
 90
       44
 70
   128
 43
0.0
 10
-8.8448923435
 20
5.1752291523
 10
-8.8598448931
 20
5.3830241425
 10
-8.9043838542
 20
5.5901580317
 10
-8.9775599562
 20
5.7922161206
 10
-9.0778135776
 20
5.9848918917
 10
-9.2030079864
 20
6.1640787956
 10
-9.3504748812
 20
6.3259577745
 10
-9.5170712611
 20
6.467078659
 10
-9.6992464136
 20
6.5844337024
 10
-9.8931175916
 20
6.6755216858
 10
-10.0945527674
 20
6.7384012269
 10
-10.2992587001
 20
6.7717321575
 10
-10.502872438
 20
6.7748040867
 10
-10.7010543079
 20
6.7475515416
 10
-10.8895804073
 20
6.6905553629
 10
-11.0644326296
 20
6.6050303252
 10
-11.2218843034
 20
6.4927992462
 10
-11.3585796196
 20
6.3562541364
 10
-11.4716051547
 20
6.198305218
 10
-11.5585519658
 20
6.0223188977
 10
-11.6175669326
 20
5.8320460186
 10
-11.6473922535
 20
5.6315419166
 10
-11.6473922535
 20
5.4250799886
 10
-11.6175669326
 20
5.2170606122
 10
-11.5585519658
 20
5.0119173592
 10
-11.4716051547
 20
4.8140225018
 10
-11.3585796196
 20
4.6275938255
 10
-11.2218843034
 20
4.4566047337
 10
-11.0644326296
 20
4.3046995621
 10
-10.8895804073
 20
4.1751159057
 10
-10.7010543079
 20
4.0706156152
 10
-10.502872438
 20
3.9934259327
 10
-10.2992587001
 20
3.9451920225
 10
-10.0945527674
 20
3.9269419065
 10
-9.8931175916
 20
3.9390645542
 10
-9.6992464136
 20
3.9813015926
 10
-9.5170712611
 20
4.0527528124
 10
-9.3504748812
 20
4.1518953549
 10
-9.2030079864
 20
4.276616169
 10
-9.0778135776
 20
4.4242570471
 10
-8.9775599562
 20
4.5916712802
 10
-8.9043838542
 20
4.7752907244
 10
-8.8598448931
 20
4.9712018503
 10
-8.8448923435
 20
5.1752291523
  0
LINE
  5
10A
330
F9
100
AcDbEntity
  8
0
  6
Continuous
 62
     7
370
    25
100
AcDbLine
 10
19.6852452316
 20
4.4091968077
 30
0.0
 11
-13.0542569037
 21
8.5339863627
 31
0.0
  0
LINE
  5
10B
330
F9
100
AcDbEntity
  8
0
  6
Continuous
 62
     7
370
    25
100
AcDbLine
 10
19.6852452316
 20
-23.8750744406
 30
0.0
 11
19.6852452316
 21
4.4091968077
 31
0.0
  0
LINE
  5
10C
330
F9
100
AcDbEntity
  8
0
  6
Continuous
 62
     7
370
    25
100
AcDbLine
 10
-13.0542569037
 20
-19.7502848856
 30
0.0
 11
19.6852452316
 21
-23.8750744406
 31
0.0
  0
LINE
  5
10D
330
F9
100
AcDbEntity
  8
0
  6
Continuous
 62
     7
370
    25
100
AcDbLine
 10
-13.0542569037
 20
8.5339863627
 30
0.0
 11
-13.0542569037
 21
-19.7502848856
 31
0.0
  0
LINE
  5
10E
330
F9
100
AcDbEntity
  8
0
  6
Continuous
 62
     7
370
    25
100
AcDbLine
 10
19.6852452316
 20
-23.8750744406
 30
0.0
 11
20.3923520126
 21
-23.2514648762
 31
0.0
  0
LINE
  5
10F
330
F9
100
AcDbEntity
  8
0
  6
Continuous
 62
     7
370
    25
100
AcDbLine
 10
19.6852452316
 20
4.4091968077
 30
0.0
 11
20.3923520126
 21
5.0328063721
 31
0.0
  0
LINE
  5
110
330
F9
100
AcDbEntity
  8
0
  6
Continuous
 62
     7
370
    25
100
AcDbLine
 10
20.3923520126
 20
-23.2514648762
 30
0.0
 11
20.3923520126
 21
5.0328063721
 31
0.0
  0
LINE
  5
111
330
F9
100
AcDbEntity
  8
0
  6
Continuous
 62
     7
370
    25
100
AcDbLine
 10
-13.0542569037
 20
8.5339863627
 30
0.0
 11
-12.3471501227
 21
9.1575959271
 31
0.0
  0
LINE
  5
112
330
F9
100
AcDbEntity
  8
0
  6
Continuous
 62
     7
370
    25
100
AcDbLine
 10
20.3923520126
 20
5.0328063721
 30
0.0
 11
-12.3471501227
 21
9.1575959271
 31
0.0
  0
ARC
  5
113
330
F9
100
AcDbEntity
  8
0
  6
Continuous
 62
     7
370
    25
100
AcDbCircle
 10
17.7542168959
 20
2.7061898906
 30
0.0
 40
1.564632006912926
100
AcDbArc
 50
157.8038162993
 51
285.0154279206
  0
ARC
  5
114
330
F9
100
AcDbEntity
  8
0
  6
Continuous
 62
     7
370
    25
100
AcDbCircle
 10
-9.3727991591
 20
6.1238726647
 30
0.0
 40
1.564632006912924
100
AcDbArc
 50
157.8038162993
 51
285.0154279206
  0
VIEWPORT
  5
125
330
F9
100
AcDbEntity
  8
0
100
AcDbViewport
 10
0.0
 20
0.0
 30
0.0
 40
205.6
 41
156.0
 68
     1
 69
     1
 12
4.3003412969
 22
-6.9368600683
 13
0.0
 23
0.0
 14
10.0
 24
10.0
 15
10.0
 25
10.0
 16
0.0
 26
0.0
 36
1.0
 17
0.0
 27
0.0
 37
0.0
 42
50.0
 43
0.0
 44
0.0
 45
30.6
 50
0.0
 51
0.0
 72
   100
 90
   557152
  1

281
     0
 71
     1
 74
     0
110
0.0
120
0.0
130
0.0
111
1.0
121
0.0
131
0.0
112
0.0
122
1.0
132
0.0
 79
     0
146
0.0
  0
ENDBLK
  5
FC
330
F9
100
AcDbEntity
  8
0
100
AcDbBlockEnd
  0
ENDSEC
  0
SECTION
  2
ENTITIES
  0
CIRCLE
  5
73
330
1F
100
AcDbEntity
  8
0
  6
Continuous
 62
     7
370
    25
100
AcDbCircle
 10
18.8003412969
 20
5.0631399317
 30
0.0
 40
1.499999999999993
  0
CIRCLE
  5
74
330
1F
100
AcDbEntity
  8
0
  6
Continuous
 62
     7
370
    25
100
AcDbCircle
 10
-10.1996587031
 20
5.0631399317
 30
0.0
 40
1.500000000000002
  0
LINE
  5
79
330
1F
100
AcDbEntity
  8
0
  6
Continuous
 62
     7
370
    25
100
AcDbLine
 10
21.8003412969
 20
8.0631399317
 30
0.0
 11
-13.1996587031
 21
8.0631399317
 31
0.0
  0
LINE
  5
7A
330
1F
100
AcDbEntity
  8
0
  6
Continuous
 62
     7
370
    25
100
AcDbLine
 10
21.8003412969
 20
-21.9368600683
 30
0.0
 11
21.8003412969
 21
8.0631399317
 31
0.0
  0
LINE
  5
7B
330
1F
100
AcDbEntity
  8
0
  6
Continuous
 62
     7
370
    25
100
AcDbLine
 10
-13.1996587031
 20
-21.9368600683
 30
0.0
 11
21.8003412969
 21
-21.9368600683
 31
0.0
  0
LINE
  5
7C
330
1F
100
AcDbEntity
  8
0
  6
Continuous
 62
     7
370
    25
100
AcDbLine
 10
-13.1996587031
 20
8.0631399317
 30
0.0
 11
-13.1996587031
 21
-21.9368600683
 31
0.0
  0
CIRCLE
  5
7D
330
1B
100
AcDbEntity
 67
     1
  8
0
  6
Continuous
 62
     7
370
    25
100
AcDbCircle
 10
18.8003412969
 20
5.0631399317
 30
0.0
 40
1.499999999999993
  0
CIRCLE
  5
7E
330
1B
100
AcDbEntity
 67
     1
  8
0
  6
Continuous
 62
     7
370
    25
100
AcDbCircle
 10
-10.1996587031
 20
5.0631399317
 30
0.0
 40
1.500000000000002
  0
LINE
  5
83
330
1B
100
AcDbEntity
 67
     1
  8
0
  6
Continuous
 62
     7
370
    25
100
AcDbLine
 10
21.8003412969
 20
8.0631399317
 30
0.0
 11
-13.1996587031
 21
8.0631399317
 31
0.0
  0
LINE
  5
84
330
1B
100
AcDbEntity
 67
     1
  8
0
  6
Continuous
 62
     7
370
    25
100
AcDbLine
 10
21.8003412969
 20
-21.9368600683
 30
0.0
 11
21.8003412969
 21
8.0631399317
 31
0.0
  0
LINE
  5
85
330
1B
100
AcDbEntity
 67
     1
  8
0
  6
Continuous
 62
     7
370
    25
100
AcDbLine
 10
-13.1996587031
 20
-21.9368600683
 30
0.0
 11
21.8003412969
 21
-21.9368600683
 31
0.0
  0
LINE
  5
86
330
1B
100
AcDbEntity
 67
     1
  8
0
  6
Continuous
 62
     7
370
    25
100
AcDbLine
 10
-13.1996587031
 20
8.0631399317
 30
0.0
 11
-13.1996587031
 21
-21.9368600683
 31
0.0
  0
VIEWPORT
  5
115
330
1B
100
AcDbEntity
 67
     1
  8
0
100
AcDbViewport
 10
0.0
 20
0.0
 30
0.0
 40
205.6
 41
156.0
 68
     1
 69
     1
 12
4.3003412969
 22
-6.9368600683
 13
0.0
 23
0.0
 14
10.0
 24
10.0
 15
10.0
 25
10.0
 16
0.0
 26
0.0
 36
1.0
 17
0.0
 27
0.0
 37
0.0
 42
50.0
 43
0.0
 44
0.0
 45
30.6
 50
0.0
 51
0.0
 72
   100
 90
   557152
  1

281
     0
 71
     1
 74
     0
110
0.0
120
0.0
130
0.0
111
1.0
121
0.0
131
0.0
112
0.0
122
1.0
132
0.0
 79
     0
146
0.0
  0
ENDSEC
  0
SECTION
  2
OBJECTS
  0
DICTIONARY
  5
C
330
0
100
AcDbDictionary
281
     1
  3
ACAD_GROUP
350
D
  3
ACAD_LAYOUT
350
1A
  3
ACAD_MLINESTYLE
350
17
  3
ACAD_PLOTSETTINGS
350
19
  3
ACAD_PLOTSTYLENAME
350
E
  3
ACAD_SCALELIST
350
47
  3
DWGPROPS
350
127
  0
DICTIONARY
  5
D
102
{ACAD_REACTORS
330
C
102
}
330
C
100
AcDbDictionary
281
     1
  0
DICTIONARY
  5
1A
102
{ACAD_REACTORS
330
C
102
}
330
C
100
AcDbDictionary
281
     1
  3
_Back
350
90
  3
_Bottom
350
B6
  3
_Dimetric
350
FA
  3
_Front
350
1E
  3
_Isometric
350
C2
  3
_Left
350
9E
  3
_Right
350
AA
  3
_Top
350
26
  3
_Trimetric
350
DE
  3
Model
350
22
  0
DICTIONARY
  5
17
102
{ACAD_REACTORS
330
C
102
}
330
C
100
AcDbDictionary
281
     1
  3
Standard
350
18
  0
DICTIONARY
  5
19
102
{ACAD_REACTORS
330
C
102
}
330
C
100
AcDbDictionary
281
     1
  0
ACDBDICTIONARYWDFLT
  5
E
102
{ACAD_REACTORS
330
C
102
}
330
C
100
AcDbDictionary
281
     1
  3
Normal
350
F
100
AcDbDictionaryWithDefault
340
F
  0
DICTIONARY
  5
47
102
{ACAD_REACTORS
330
C
102
}
330
C
100
AcDbDictionary
281
     1
  3
A0
350
48
  3
A1
350
49
  3
A2
350
4A
  3
A3
350
4B
  3
A4
350
4C
  3
A5
350
4D
  3
A6
350
4E
  3
A7
350
4F
  3
A8
350
50
  3
A9
350
51
  3
B0
350
52
  3
B1
350
53
  3
B2
350
54
  3
B3
350
55
  3
B4
350
56
  3
B5
350
57
  3
B6
350
58
  3
B7
350
59
  3
B8
350
5A
  3
B9
350
5B
  3
C0
350
5C
  3
C1
350
5D
  3
C2
350
5E
  3
C3
350
5F
  3
C4
350
60
  3
C5
350
61
  3
C6
350
62
  3
C7
350
63
  3
C8
350
64
  3
C9
350
65
  3
D0
350
66
  3
D1
350
67
  3
D2
350
68
  0
XRECORD
  5
127
102
{ACAD_REACTORS
330
C
102
}
330
C
100
AcDbXrecord
280
     1
  1
DWGPROPS COOKIE
  2

  3

  4

  6

  7

  8
ASUS
  9

300
=
301
=
302
=
303
=
304
=
305
=
306
=
307
=
308
=
309
=
 40
0.0
 41
2460761.294284271
 42
2460761.294338391
  1

 90
        0
  0
LAYOUT
  5
90
102
{ACAD_REACTORS
330
1A
102
}
330
1A
100
AcDbPlotSettings
  1

  2
none_device
  4
ISO_A4_(210.00_x_297.00_MM)
  6

 40
7.5
 41
20.0
 42
7.5
 43
20.0
 44
210.0
 45
297.0
 46
0.0
 47
0.0
 48
0.0
 49
0.0
140
0.0
141
0.0
142
1.0
143
0.1538461538
 70
   688
 72
     1
 73
     1
 74
     1
  7

 75
     0
147
6.5
148
13.1996587031
149
21.9368600683
100
AcDbLayout
  1
_Back
 70
     1
 71
     3
 10
0.0
 20
0.0
 11
0.0
 21
0.0
 12
0.0
 22
0.0
 32
0.0
 14
0.0
 24
0.0
 34
0.0
 15
0.0
 25
0.0
 35
0.0
146
0.0
 13
0.0
 23
0.0
 33
0.0
 16
1.0
 26
0.0
 36
0.0
 17
0.0
 27
1.0
 37
0.0
 76
     0
330
8F
331
119
  0
LAYOUT
  5
B6
102
{ACAD_REACTORS
330
1A
102
}
330
1A
100
AcDbPlotSettings
  1

  2
none_device
  4
ISO_A4_(210.00_x_297.00_MM)
  6

 40
7.5
 41
20.0
 42
7.5
 43
20.0
 44
210.0
 45
297.0
 46
0.0
 47
0.0
 48
0.0
 49
0.0
140
0.0
141
0.0
142
1.0
143
0.1538461538
 70
   688
 72
     1
 73
     1
 74
     1
  7

 75
     0
147
6.5
148
13.1996587031
149
21.9368600683
100
AcDbLayout
  1
_Bottom
 70
     1
 71
     6
 10
0.0
 20
0.0
 11
0.0
 21
0.0
 12
0.0
 22
0.0
 32
0.0
 14
0.0
 24
0.0
 34
0.0
 15
0.0
 25
0.0
 35
0.0
146
0.0
 13
0.0
 23
0.0
 33
0.0
 16
1.0
 26
0.0
 36
0.0
 17
0.0
 27
1.0
 37
0.0
 76
     0
330
B5
331
11F
  0
LAYOUT
  5
FA
102
{ACAD_REACTORS
330
1A
102
}
330
1A
100
AcDbPlotSettings
  1

  2
none_device
  4
ISO_A4_(210.00_x_297.00_MM)
  6

 40
7.5
 41
20.0
 42
7.5
 43
20.0
 44
210.0
 45
297.0
 46
0.0
 47
0.0
 48
0.0
 49
0.0
140
0.0
141
0.0
142
1.0
143
0.1538461538
 70
   688
 72
     1
 73
     1
 74
     1
  7

 75
     0
147
6.5
148
13.1996587031
149
21.9368600683
100
AcDbLayout
  1
_Dimetric
 70
     1
 71
     9
 10
0.0
 20
0.0
 11
0.0
 21
0.0
 12
0.0
 22
0.0
 32
0.0
 14
0.0
 24
0.0
 34
0.0
 15
0.0
 25
0.0
 35
0.0
146
0.0
 13
0.0
 23
0.0
 33
0.0
 16
1.0
 26
0.0
 36
0.0
 17
0.0
 27
1.0
 37
0.0
 76
     0
330
F9
331
125
  0
LAYOUT
  5
1E
102
{ACAD_REACTORS
330
1A
102
}
330
1A
100
AcDbPlotSettings
  1

  2
none_device
  4
ISO_A4_(210.00_x_297.00_MM)
  6

 40
7.5
 41
20.0
 42
7.5
 43
20.0
 44
210.0
 45
297.0
 46
0.0
 47
0.0
 48
0.0
 49
0.0
140
0.0
141
0.0
142
1.0
143
0.1538461538
 70
   688
 72
     1
 73
     1
 74
     1
  7

 75
     0
147
6.5
148
13.1996587031
149
21.9368600683
100
AcDbLayout
  1
_Front
 70
     1
 71
     1
 10
-16.27658178
 20
-23.0907062221
 11
29.4157259123
 21
9.2169860856
 12
0.0
 22
0.0
 32
0.0
 14
-13.1996587031
 24
-21.9368600683
 34
0.0
 15
21.8003412969
 25
8.0631399317
 35
0.0
146
0.0
 13
0.0
 23
0.0
 33
0.0
 16
1.0
 26
0.0
 36
0.0
 17
0.0
 27
1.0
 37
0.0
 76
     0
330
1B
331
115
  0
LAYOUT
  5
C2
102
{ACAD_REACTORS
330
1A
102
}
330
1A
100
AcDbPlotSettings
  1

  2
none_device
  4
ISO_A4_(210.00_x_297.00_MM)
  6

 40
7.5
 41
20.0
 42
7.5
 43
20.0
 44
210.0
 45
297.0
 46
0.0
 47
0.0
 48
0.0
 49
0.0
140
0.0
141
0.0
142
1.0
143
0.1538461538
 70
   688
 72
     1
 73
     1
 74
     1
  7

 75
     0
147
6.5
148
13.1996587031
149
21.9368600683
100
AcDbLayout
  1
_Isometric
 70
     1
 71
     7
 10
0.0
 20
0.0
 11
0.0
 21
0.0
 12
0.0
 22
0.0
 32
0.0
 14
0.0
 24
0.0
 34
0.0
 15
0.0
 25
0.0
 35
0.0
146
0.0
 13
0.0
 23
0.0
 33
0.0
 16
1.0
 26
0.0
 36
0.0
 17
0.0
 27
1.0
 37
0.0
 76
     0
330
C1
331
121
  0
LAYOUT
  5
9E
102
{ACAD_REACTORS
330
1A
102
}
330
1A
100
AcDbPlotSettings
  1

  2
none_device
  4
ISO_A4_(210.00_x_297.00_MM)
  6

 40
7.5
 41
20.0
 42
7.5
 43
20.0
 44
210.0
 45
297.0
 46
0.0
 47
0.0
 48
0.0
 49
0.0
140
0.0
141
0.0
142
1.0
143
0.1538461538
 70
   688
 72
     1
 73
     1
 74
     1
  7

 75
     0
147
6.5
148
13.1996587031
149
21.9368600683
100
AcDbLayout
  1
_Left
 70
     1
 71
     4
 10
0.0
 20
0.0
 11
0.0
 21
0.0
 12
0.0
 22
0.0
 32
0.0
 14
0.0
 24
0.0
 34
0.0
 15
0.0
 25
0.0
 35
0.0
146
0.0
 13
0.0
 23
0.0
 33
0.0
 16
1.0
 26
0.0
 36
0.0
 17
0.0
 27
1.0
 37
0.0
 76
     0
330
9D
331
11B
  0
LAYOUT
  5
AA
102
{ACAD_REACTORS
330
1A
102
}
330
1A
100
AcDbPlotSettings
  1

  2
none_device
  4
ISO_A4_(210.00_x_297.00_MM)
  6

 40
7.5
 41
20.0
 42
7.5
 43
20.0
 44
210.0
 45
297.0
 46
0.0
 47
0.0
 48
0.0
 49
0.0
140
0.0
141
0.0
142
1.0
143
0.1538461538
 70
   688
 72
     1
 73
     1
 74
     1
  7

 75
     0
147
6.5
148
13.1996587031
149
21.9368600683
100
AcDbLayout
  1
_Right
 70
     1
 71
     5
 10
0.0
 20
0.0
 11
0.0
 21
0.0
 12
0.0
 22
0.0
 32
0.0
 14
0.0
 24
0.0
 34
0.0
 15
0.0
 25
0.0
 35
0.0
146
0.0
 13
0.0
 23
0.0
 33
0.0
 16
1.0
 26
0.0
 36
0.0
 17
0.0
 27
1.0
 37
0.0
 76
     0
330
A9
331
11D
  0
LAYOUT
  5
26
102
{ACAD_REACTORS
330
1A
102
}
330
1A
100
AcDbPlotSettings
  1

  2
none_device
  4
ISO_A4_(210.00_x_297.00_MM)
  6

 40
7.5
 41
20.0
 42
7.5
 43
20.0
 44
210.0
 45
297.0
 46
0.0
 47
0.0
 48
0.0
 49
0.0
140
0.0
141
0.0
142
1.0
143
0.1538461538
 70
   688
 72
     1
 73
     1
 74
     1
  7

 75
     0
147
6.5
148
13.1996587031
149
21.9368600683
100
AcDbLayout
  1
_Top
 70
     1
 71
     2
 10
0.0
 20
0.0
 11
0.0
 21
0.0
 12
0.0
 22
0.0
 32
0.0
 14
0.0
 24
0.0
 34
0.0
 15
0.0
 25
0.0
 35
0.0
146
0.0
 13
0.0
 23
0.0
 33
0.0
 16
1.0
 26
0.0
 36
0.0
 17
0.0
 27
1.0
 37
0.0
 76
     0
330
23
331
117
  0
LAYOUT
  5
DE
102
{ACAD_REACTORS
330
1A
102
}
330
1A
100
AcDbPlotSettings
  1

  2
none_device
  4
ISO_A4_(210.00_x_297.00_MM)
  6

 40
7.5
 41
20.0
 42
7.5
 43
20.0
 44
210.0
 45
297.0
 46
0.0
 47
0.0
 48
0.0
 49
0.0
140
0.0
141
0.0
142
1.0
143
0.1538461538
 70
   688
 72
     1
 73
     1
 74
     1
  7

 75
     0
147
6.5
148
13.1996587031
149
21.9368600683
100
AcDbLayout
  1
_Trimetric
 70
     1
 71
     8
 10
0.0
 20
0.0
 11
0.0
 21
0.0
 12
0.0
 22
0.0
 32
0.0
 14
0.0
 24
0.0
 34
0.0
 15
0.0
 25
0.0
 35
0.0
146
0.0
 13
0.0
 23
0.0
 33
0.0
 16
1.0
 26
0.0
 36
0.0
 17
0.0
 27
1.0
 37
0.0
 76
     0
330
DD
331
123
  0
LAYOUT
  5
22
102
{ACAD_REACTORS
330
1A
102
}
330
1A
100
AcDbPlotSettings
  1

  2
none_device
  4
ANSI_A_(11.00_x_8.50_Inches)
  6

 40
6.35
 41
19.05
 42
6.35000508
 43
19.05000254
 44
279.4
 45
215.9
 46
102.7113558218
 47
138.3230456583
 48
0.0
 49
0.0
140
0.0
141
0.0
142
0.2805
143
1.0
 70
  1696
 72
     0
 73
     0
 74
     0
  7

 75
     0
147
0.0179189148
148
-1300.4909072572
149
0.0
100
AcDbLayout
  1
Model
 70
     1
 71
     0
 10
0.0
 20
0.0
 11
420.0
 21
297.0
 12
0.0
 22
0.0
 32
0.0
 14
-13.1996587031
 24
-21.9368600683
 34
0.0
 15
21.8003412969
 25
8.0631399317
 35
0.0
146
0.0
 13
0.0
 23
0.0
 33
0.0
 16
1.0
 26
0.0
 36
0.0
 17
0.0
 27
1.0
 37
0.0
 76
     0
330
1F
331
29
  0
MLINESTYLE
  5
18
102
{ACAD_REACTORS
330
17
102
}
330
17
100
AcDbMlineStyle
  2
Standard
 70
     0
  3

 62
   256
 51
90.0
 52
90.0
 71
     2
 49
0.5
 62
   256
  6
BYLAYER
 49
-0.5
 62
   256
  6
BYLAYER
  0
ACDBPLACEHOLDER
  5
F
102
{ACAD_REACTORS
330
E
102
}
330
E
  0
SCALE
  5
48
102
{ACAD_REACTORS
330
47
102
}
330
47
100
AcDbScale
 70
     0
300
1:1
140
1.0
141
1.0
290
     1
  0
SCALE
  5
49
102
{ACAD_REACTORS
330
47
102
}
330
47
100
AcDbScale
 70
     0
300
1:2
140
1.0
141
2.0
290
     0
  0
SCALE
  5
4A
102
{ACAD_REACTORS
330
47
102
}
330
47
100
AcDbScale
 70
     0
300
1:4
140
1.0
141
4.0
290
     0
  0
SCALE
  5
4B
102
{ACAD_REACTORS
330
47
102
}
330
47
100
AcDbScale
 70
     0
300
1:5
140
1.0
141
5.0
290
     0
  0
SCALE
  5
4C
102
{ACAD_REACTORS
330
47
102
}
330
47
100
AcDbScale
 70
     0
300
1:8
140
1.0
141
8.0
290
     0
  0
SCALE
  5
4D
102
{ACAD_REACTORS
330
47
102
}
330
47
100
AcDbScale
 70
     0
300
1:10
140
1.0
141
10.0
290
     0
  0
SCALE
  5
4E
102
{ACAD_REACTORS
330
47
102
}
330
47
100
AcDbScale
 70
     0
300
1:16
140
1.0
141
16.0
290
     0
  0
SCALE
  5
4F
102
{ACAD_REACTORS
330
47
102
}
330
47
100
AcDbScale
 70
     0
300
1:20
140
1.0
141
20.0
290
     0
  0
SCALE
  5
50
102
{ACAD_REACTORS
330
47
102
}
330
47
100
AcDbScale
 70
     0
300
1:30
140
1.0
141
30.0
290
     0
  0
SCALE
  5
51
102
{ACAD_REACTORS
330
47
102
}
330
47
100
AcDbScale
 70
     0
300
1:40
140
1.0
141
40.0
290
     0
  0
SCALE
  5
52
102
{ACAD_REACTORS
330
47
102
}
330
47
100
AcDbScale
 70
     0
300
1:50
140
1.0
141
50.0
290
     0
  0
SCALE
  5
53
102
{ACAD_REACTORS
330
47
102
}
330
47
100
AcDbScale
 70
     0
300
1:100
140
1.0
141
100.0
290
     0
  0
SCALE
  5
54
102
{ACAD_REACTORS
330
47
102
}
330
47
100
AcDbScale
 70
     0
300
2:1
140
2.0
141
1.0
290
     0
  0
SCALE
  5
55
102
{ACAD_REACTORS
330
47
102
}
330
47
100
AcDbScale
 70
     0
300
4:1
140
4.0
141
1.0
290
     0
  0
SCALE
  5
56
102
{ACAD_REACTORS
330
47
102
}
330
47
100
AcDbScale
 70
     0
300
8:1
140
8.0
141
1.0
290
     0
  0
SCALE
  5
57
102
{ACAD_REACTORS
330
47
102
}
330
47
100
AcDbScale
 70
     0
300
10:1
140
10.0
141
1.0
290
     0
  0
SCALE
  5
58
102
{ACAD_REACTORS
330
47
102
}
330
47
100
AcDbScale
 70
     0
300
100:1
140
100.0
141
1.0
290
     0
  0
SCALE
  5
59
102
{ACAD_REACTORS
330
47
102
}
330
47
100
AcDbScale
 70
     0
300
1/128" = 1'-0"
140
0.0078125
141
12.0
290
     0
  0
SCALE
  5
5A
102
{ACAD_REACTORS
330
47
102
}
330
47
100
AcDbScale
 70
     0
300
1/64" = 1'-0"
140
0.015625
141
12.0
290
     0
  0
SCALE
  5
5B
102
{ACAD_REACTORS
330
47
102
}
330
47
100
AcDbScale
 70
     0
300
1/32" = 1'-0"
140
0.03125
141
12.0
290
     0
  0
SCALE
  5
5C
102
{ACAD_REACTORS
330
47
102
}
330
47
100
AcDbScale
 70
     0
300
1/16" = 1'-0"
140
0.0625
141
12.0
290
     0
  0
SCALE
  5
5D
102
{ACAD_REACTORS
330
47
102
}
330
47
100
AcDbScale
 70
     0
300
3/32" = 1'-0"
140
0.09375
141
12.0
290
     0
  0
SCALE
  5
5E
102
{ACAD_REACTORS
330
47
102
}
330
47
100
AcDbScale
 70
     0
300
1/8" = 1'-0"
140
0.125
141
12.0
290
     0
  0
SCALE
  5
5F
102
{ACAD_REACTORS
330
47
102
}
330
47
100
AcDbScale
 70
     0
300
3/16" = 1'-0"
140
0.1875
141
12.0
290
     0
  0
SCALE
  5
60
102
{ACAD_REACTORS
330
47
102
}
330
47
100
AcDbScale
 70
     0
300
1/4" = 1'-0"
140
0.25
141
12.0
290
     0
  0
SCALE
  5
61
102
{ACAD_REACTORS
330
47
102
}
330
47
100
AcDbScale
 70
     0
300
3/8" = 1'-0"
140
0.375
141
12.0
290
     0
  0
SCALE
  5
62
102
{ACAD_REACTORS
330
47
102
}
330
47
100
AcDbScale
 70
     0
300
1/2" = 1'-0"
140
0.5
141
12.0
290
     0
  0
SCALE
  5
63
102
{ACAD_REACTORS
330
47
102
}
330
47
100
AcDbScale
 70
     0
300
3/4" = 1'-0"
140
0.75
141
12.0
290
     0
  0
SCALE
  5
64
102
{ACAD_REACTORS
330
47
102
}
330
47
100
AcDbScale
 70
     0
300
1" = 1'-0"
140
1.0
141
12.0
290
     0
  0
SCALE
  5
65
102
{ACAD_REACTORS
330
47
102
}
330
47
100
AcDbScale
 70
     0
300
1-1/2" = 1'-0"
140
1.5
141
12.0
290
     0
  0
SCALE
  5
66
102
{ACAD_REACTORS
330
47
102
}
330
47
100
AcDbScale
 70
     0
300
3" = 1'-0"
140
3.0
141
12.0
290
     0
  0
SCALE
  5
67
102
{ACAD_REACTORS
330
47
102
}
330
47
100
AcDbScale
 70
     0
300
6" = 1'-0"
140
6.0
141
12.0
290
     0
  0
SCALE
  5
68
102
{ACAD_REACTORS
330
47
102
}
330
47
100
AcDbScale
 70
     0
300
1'-0" = 1'-0"
140
12.0
141
12.0
290
     0
  0
ENDSEC
  0
EOF
