  0
SECTION
  2
HEADER
  9
$ACADVER
  1
AC1015
  9
$ACADMAINTVER
 70
     6
  9
$DWGCODEPAGE
  3
ANSI_1252
  9
$INSBASE
 10
0.0
 20
0.0
 30
0.0
  9
$EXTMIN
 10
-112.0
 20
0.0
 30
0.0
  9
$EXTMAX
 10
0.0
 20
122.0
 30
0.0
  9
$LIMMIN
 10
0.0
 20
0.0
  9
$LIMMAX
 10
420.0
 20
297.0
  9
$ORTHOMODE
 70
     0
  9
$REGENMODE
 70
     1
  9
$FILLMODE
 70
     1
  9
$QTEXTMODE
 70
     0
  9
$MIRRTEXT
 70
     1
  9
$LTSCALE
 40
1.0
  9
$ATTMODE
 70
     1
  9
$TEXTSIZE
 40
3.5
  9
$TRACEWID
 40
1.0
  9
$TEXTSTYLE
  7
Standard
  9
$CLAYER
  8
0
  9
$CELTYPE
  6
ByLayer
  9
$CECOLOR
 62
   256
  9
$CELTSCALE
 40
1.0
  9
$DISPSILH
 70
     0
  9
$DIMSCALE
 40
1.0
  9
$DIMASZ
 40
3.302
  9
$DIMEXO
 40
0.0
  9
$DIMDLI
 40
3.75
  9
$DIMRND
 40
0.0
  9
$DIMDLE
 40
0.0
  9
$DIMEXE
 40
1.0
  9
$DIMTP
 40
0.0
  9
$DIMTM
 40
0.0
  9
$DIMTXT
 40
3.5
  9
$DIMCEN
 40
2.5
  9
$DIMTSZ
 40
0.0
  9
$DIMTOL
 70
     0
  9
$DIMLIM
 70
     0
  9
$DIMTIH
 70
     1
  9
$DIMTOH
 70
     1
  9
$DIMSE1
 70
     0
  9
$DIMSE2
 70
     0
  9
$DIMTAD
 70
     1
  9
$DIMZIN
 70
     1
  9
$DIMBLK
  1

  9
$DIMASO
 70
     1
  9
$DIMSHO
 70
     1
  9
$DIMPOST
  1

  9
$DIMAPOST
  1

  9
$DIMALT
 70
     0
  9
$DIMALTD
 70
     3
  9
$DIMALTF
 40
0.0393700787
  9
$DIMLFAC
 40
1.0
  9
$DIMTOFL
 70
     1
  9
$DIMTVP
 40
0.0
  9
$DIMTIX
 70
     0
  9
$DIMSOXD
 70
     0
  9
$DIMSAH
 70
     0
  9
$DIMBLK1
  1

  9
$DIMBLK2
  1

  9
$DIMSTYLE
  2
ISO-25
  9
$DIMCLRD
 70
     0
  9
$DIMCLRE
 70
     0
  9
$DIMCLRT
 70
     0
  9
$DIMTFAC
 40
1.0
  9
$DIMGAP
 40
1.524
  9
$DIMJUST
 70
     0
  9
$DIMSD1
 70
     0
  9
$DIMSD2
 70
     0
  9
$DIMTOLJ
 70
     0
  9
$DIMTZIN
 70
     1
  9
$DIMALTZ
 70
     0
  9
$DIMALTTZ
 70
     0
  9
$DIMUPT
 70
     0
  9
$DIMDEC
 70
     2
  9
$DIMTDEC
 70
     2
  9
$DIMALTU
 70
     2
  9
$DIMALTTD
 70
     3
  9
$DIMTXSTY
  7
Standard
  9
$DIMAUNIT
 70
     0
  9
$DIMADEC
 70
     2
  9
$DIMALTRND
 40
0.0
  9
$DIMAZIN
 70
     0
  9
$DIMDSEP
 70
    44
  9
$DIMATFIT
 70
     3
  9
$DIMFRAC
 70
     0
  9
$DIMLDRBLK
  1

  9
$DIMLUNIT
 70
     2
  9
$DIMLWD
 70
    -2
  9
$DIMLWE
 70
    -2
  9
$DIMTMOVE
 70
     0
  9
$LUNITS
 70
     2
  9
$LUPREC
 70
     2
  9
$SKETCHINC
 40
1.0
  9
$FILLETRAD
 40
10.0
  9
$AUNITS
 70
     0
  9
$AUPREC
 70
     2
  9
$MENU
  1
.
  9
$ELEVATION
 40
0.0
  9
$PELEVATION
 40
0.0
  9
$THICKNESS
 40
0.0
  9
$LIMCHECK
 70
     0
  9
$CHAMFERA
 40
0.0
  9
$CHAMFERB
 40
0.0
  9
$CHAMFERC
 40
0.0
  9
$CHAMFERD
 40
0.0
  9
$SKPOLY
 70
     0
  9
$TDCREATE
 40
2460761.521890139
  9
$TDUCREATE
 40
2460761.292723472
  9
$TDUPDATE
 40
2460761.521956817
  9
$TDUUPDATE
 40
2460761.29279015
  9
$TDINDWG
 40
0.0000000116
  9
$TDUSRTIMER
 40
0.0000000116
  9
$USRTIMER
 70
     1
  9
$ANGBASE
 50
0.0
  9
$ANGDIR
 70
     0
  9
$PDMODE
 70
     0
  9
$PDSIZE
 40
-1.0
  9
$PLINEWID
 40
0.0
  9
$SPLFRAME
 70
     0
  9
$SPLINETYPE
 70
     6
  9
$SPLINESEGS
 70
     8
  9
$HANDSEED
  5
1AE
  9
$SURFTAB1
 70
     6
  9
$SURFTAB2
 70
     6
  9
$SURFTYPE
 70
     6
  9
$SURFU
 70
     6
  9
$SURFV
 70
     6
  9
$UCSBASE
  2

  9
$UCSNAME
  2

  9
$UCSORG
 10
0.0
 20
0.0
 30
0.0
  9
$UCSXDIR
 10
1.0
 20
0.0
 30
0.0
  9
$UCSYDIR
 10
0.0
 20
1.0
 30
0.0
  9
$UCSORTHOREF
  2

  9
$UCSORTHOVIEW
 70
     0
  9
$UCSORGTOP
 10
0.0
 20
0.0
 30
0.0
  9
$UCSORGBOTTOM
 10
0.0
 20
0.0
 30
0.0
  9
$UCSORGLEFT
 10
0.0
 20
0.0
 30
0.0
  9
$UCSORGRIGHT
 10
0.0
 20
0.0
 30
0.0
  9
$UCSORGFRONT
 10
0.0
 20
0.0
 30
0.0
  9
$UCSORGBACK
 10
0.0
 20
0.0
 30
0.0
  9
$PUCSBASE
  2

  9
$PUCSNAME
  2

  9
$PUCSORG
 10
0.0
 20
0.0
 30
0.0
  9
$PUCSXDIR
 10
1.0
 20
0.0
 30
0.0
  9
$PUCSYDIR
 10
0.0
 20
1.0
 30
0.0
  9
$PUCSORTHOREF
  2

  9
$PUCSORTHOVIEW
 70
     0
  9
$PUCSORGTOP
 10
0.0
 20
0.0
 30
0.0
  9
$PUCSORGBOTTOM
 10
0.0
 20
0.0
 30
0.0
  9
$PUCSORGLEFT
 10
0.0
 20
0.0
 30
0.0
  9
$PUCSORGRIGHT
 10
0.0
 20
0.0
 30
0.0
  9
$PUCSORGFRONT
 10
0.0
 20
0.0
 30
0.0
  9
$PUCSORGBACK
 10
0.0
 20
0.0
 30
0.0
  9
$USERI1
 70
     0
  9
$USERI2
 70
     0
  9
$USERI3
 70
     0
  9
$USERI4
 70
     0
  9
$USERI5
 70
     0
  9
$USERR1
 40
0.0
  9
$USERR2
 40
0.0
  9
$USERR3
 40
0.0
  9
$USERR4
 40
0.0
  9
$USERR5
 40
0.0
  9
$WORLDVIEW
 70
     1
  9
$SHADEDGE
 70
     3
  9
$SHADEDIF
 70
    70
  9
$TILEMODE
 70
     1
  9
$MAXACTVP
 70
    64
  9
$PINSBASE
 10
0.0
 20
0.0
 30
0.0
  9
$PLIMCHECK
 70
     0
  9
$PEXTMIN
 10
0.0
 20
0.0
 30
0.0
  9
$PEXTMAX
 10
112.0
 20
122.0
 30
0.0
  9
$PLIMMIN
 10
-12.5128205128
 20
-4.6923076923
  9
$PLIMMAX
 10
173.3025641026
 20
126.6923076923
  9
$UNITMODE
 70
     0
  9
$VISRETAIN
 70
     1
  9
$PLINEGEN
 70
     0
  9
$PSLTSCALE
 70
     1
  9
$TREEDEPTH
 70
  3020
  9
$CMLSTYLE
  2
Standard
  9
$CMLJUST
 70
     0
  9
$CMLSCALE
 40
20.0
  9
$PROXYGRAPHICS
 70
     1
  9
$MEASUREMENT
 70
     1
  9
$CELWEIGHT
370
    -1
  9
$ENDCAPS
280
     0
  9
$JOINSTYLE
280
     0
  9
$LWDISPLAY
290
     1
  9
$INSUNITS
 70
     4
  9
$HYPERLINKBASE
  1

  9
$STYLESHEET
  1

  9
$XEDIT
290
     1
  9
$CEPSNTYPE
380
     0
  9
$PSTYLEMODE
290
     1
  9
$FINGERPRINTGUID
  2
{76e8b6f2-ca99-4624-b627-fc99aae455f9}
  9
$VERSIONGUID
  2
{FAEB1C32-E019-11D5-929B-00C0DF256EC4}
  9
$EXTNAMES
290
     1
  9
$PSVPSCALE
 40
0.0
  9
$OLESTARTUP
290
     0
  0
ENDSEC
  0
SECTION
  2
CLASSES
  0
CLASS
  1
ACDBDICTIONARYWDFLT
  2
AcDbDictionaryWithDefault
  3
ObjectDBX Classes
 90
        0
280
     0
281
     0
  0
CLASS
  1
VISUALSTYLE
  2
AcDbVisualStyle
  3
ObjectDBX Classes
 90
     4095
280
     0
281
     0
  0
CLASS
  1
MATERIAL
  2
AcDbMaterial
  3
ObjectDBX Classes
 90
     1153
280
     0
281
     0
  0
CLASS
  1
SCALE
  2
AcDbScale
  3
ObjectDBX Classes
 90
     1153
280
     0
281
     0
  0
CLASS
  1
TABLESTYLE
  2
AcDbTableStyle
  3
ObjectDBX Classes
 90
     4095
280
     0
281
     0
  0
CLASS
  1
MLEADERSTYLE
  2
AcDbMLeaderStyle
  3
ACDB_MLEADERSTYLE_CLASS
 90
     4095
280
     0
281
     0
  0
CLASS
  1
SUN
  2
AcDbSun
  3
SCENEOE
 90
     1153
280
     0
281
     0
  0
CLASS
  1
ACDBPLACEHOLDER
  2
AcDbPlaceHolder
  3
ObjectDBX Classes
 90
        0
280
     0
281
     0
  0
CLASS
  1
LAYOUT
  2
AcDbLayout
  3
ObjectDBX Classes
 90
        0
280
     0
281
     0
  0
ENDSEC
  0
SECTION
  2
TABLES
  0
TABLE
  2
VPORT
  5
8
330
0
100
AcDbSymbolTable
 70
     1
  0
VPORT
  5
29
330
8
100
AcDbSymbolTableRecord
100
AcDbViewportTableRecord
  2
*Active
 70
     0
 10
0.0
 20
0.0
 11
1.0
 21
1.0
 12
-56.0
 22
61.0
 13
0.0
 23
0.0
 14
10.0
 24
10.0
 15
10.0
 25
10.0
 16
0.0
 26
0.0
 36
1.0
 17
0.0
 27
0.0
 37
0.0
 40
124.44
 41
0.9180327869
 42
50.0
 43
0.0
 44
0.0
 50
0.0
 51
0.0
 71
     0
 72
   100
 73
     1
 74
     3
 75
     0
 76
     0
 77
     0
 78
     0
281
     0
 65
     1
110
0.0
120
0.0
130
0.0
111
1.0
121
0.0
131
0.0
112
0.0
122
1.0
132
0.0
 79
     0
146
0.0
  0
ENDTAB
  0
TABLE
  2
LTYPE
  5
5
330
0
100
AcDbSymbolTable
 70
     6
  0
LTYPE
  5
14
330
5
100
AcDbSymbolTableRecord
100
AcDbLinetypeTableRecord
  2
ByBlock
 70
     0
  3

 72
    65
 73
     0
 40
0.0
  0
LTYPE
  5
15
330
5
100
AcDbSymbolTableRecord
100
AcDbLinetypeTableRecord
  2
ByLayer
 70
     0
  3

 72
    65
 73
     0
 40
0.0
  0
LTYPE
  5
16
330
5
100
AcDbSymbolTableRecord
100
AcDbLinetypeTableRecord
  2
Continuous
 70
     0
  3
Solid line
 72
    65
 73
     0
 40
0.0
  0
LTYPE
  5
6E
330
5
100
AcDbSymbolTableRecord
100
AcDbLinetypeTableRecord
  2
HIDDEN
 70
     0
  3
Hidden __ __ __ __ __ __ __ __ __ __ __ __ __ __
 72
    65
 73
     2
 40
1.905
 49
1.27
 74
     0
 49
-0.635
 74
     0
  0
LTYPE
  5
6F
330
5
100
AcDbSymbolTableRecord
100
AcDbLinetypeTableRecord
  2
PHANTOM
 70
     0
  3
Phantom ______  __  __  ______  __  __  ______
 72
    65
 73
     6
 40
12.7
 49
6.35
 74
     0
 49
-1.27
 74
     0
 49
1.27
 74
     0
 49
-1.27
 74
     0
 49
1.27
 74
     0
 49
-1.27
 74
     0
  0
LTYPE
  5
70
330
5
100
AcDbSymbolTableRecord
100
AcDbLinetypeTableRecord
  2
CENTER
 70
     0
  3
Center ____ _ ____ _ ____ _ ____ _ ____ _ ____
 72
    65
 73
     4
 40
10.16
 49
6.35
 74
     0
 49
-1.27
 74
     0
 49
1.27
 74
     0
 49
-1.27
 74
     0
  0
LTYPE
  5
71
330
5
100
AcDbSymbolTableRecord
100
AcDbLinetypeTableRecord
  2
CENTERX2
 70
     0
  3
Center (2x) ________  __  ________  __  _____
 72
    65
 73
     4
 40
20.32
 49
12.7
 74
     0
 49
-2.54
 74
     0
 49
2.54
 74
     0
 49
-2.54
 74
     0
  0
LTYPE
  5
72
330
5
100
AcDbSymbolTableRecord
100
AcDbLinetypeTableRecord
  2
DOT2
 70
     0
  3
Dot (.5x) ........................................
 72
    65
 73
     2
 40
0.635
 49
0.0
 74
     0
 49
-0.635
 74
     0
  0
ENDTAB
  0
TABLE
  2
LAYER
  5
2
330
0
100
AcDbSymbolTable
 70
     1
  0
LAYER
  5
10
330
2
100
AcDbSymbolTableRecord
100
AcDbLayerTableRecord
  2
0
 70
     0
 62
     7
  6
Continuous
370
    -3
390
F
  0
ENDTAB
  0
TABLE
  2
STYLE
  5
3
330
0
100
AcDbSymbolTable
 70
     1
  0
STYLE
  5
11
330
3
100
AcDbSymbolTableRecord
100
AcDbTextStyleTableRecord
  2
Standard
 70
     0
 40
0.0
 41
1.0
 50
0.0
 71
     0
 42
3.5
  3
txt
  4

  0
ENDTAB
  0
TABLE
  2
VIEW
  5
6
330
0
100
AcDbSymbolTable
 70
     0
  0
ENDTAB
  0
TABLE
  2
UCS
  5
7
330
0
100
AcDbSymbolTable
 70
     0
  0
ENDTAB
  0
TABLE
  2
APPID
  5
9
330
0
100
AcDbSymbolTable
 70
     1
  0
APPID
  5
12
330
9
100
AcDbSymbolTableRecord
100
AcDbRegAppTableRecord
  2
ACAD
 70
     0
  0
ENDTAB
  0
TABLE
  2
DIMSTYLE
  5
A
330
0
100
AcDbSymbolTable
 70
     1
100
AcDbDimStyleTable
  0
DIMSTYLE
105
27
330
A
100
AcDbSymbolTableRecord
100
AcDbDimStyleTableRecord
  2
ISO-25
 70
     0
 41
2.5
 42
0.625
 43
3.75
 44
1.25
 73
     0
 74
     0
 77
     1
 78
     8
140
2.5
141
2.5
143
0.0393700787
147
0.625
171
     3
172
     1
178
     0
271
     2
272
     2
274
     3
278
    44
283
     0
284
     8
340
11
  0
ENDTAB
  0
TABLE
  2
BLOCK_RECORD
  5
1
330
0
100
AcDbSymbolTable
 70
     8
  0
BLOCK_RECORD
  5
1F
330
1
100
AcDbSymbolTableRecord
100
AcDbBlockTableRecord
  2
*Model_Space
340
22
  0
BLOCK_RECORD
  5
1B
330
1
100
AcDbSymbolTableRecord
100
AcDbBlockTableRecord
  2
*Paper_Space
340
1E
  0
BLOCK_RECORD
  5
23
330
1
100
AcDbSymbolTableRecord
100
AcDbBlockTableRecord
  2
*Paper_Space0
340
26
  0
BLOCK_RECORD
  5
AB
330
1
100
AcDbSymbolTableRecord
100
AcDbBlockTableRecord
  2
*Paper_Space1
340
AC
  0
BLOCK_RECORD
  5
C3
330
1
100
AcDbSymbolTableRecord
100
AcDbBlockTableRecord
  2
*Paper_Space2
340
C4
  0
BLOCK_RECORD
  5
D7
330
1
100
AcDbSymbolTableRecord
100
AcDbBlockTableRecord
  2
*Paper_Space3
340
D8
  0
BLOCK_RECORD
  5
EB
330
1
100
AcDbSymbolTableRecord
100
AcDbBlockTableRecord
  2
*Paper_Space4
340
EC
  0
BLOCK_RECORD
  5
FF
330
1
100
AcDbSymbolTableRecord
100
AcDbBlockTableRecord
  2
*Paper_Space5
340
100
  0
BLOCK_RECORD
  5
12B
330
1
100
AcDbSymbolTableRecord
100
AcDbBlockTableRecord
  2
*Paper_Space6
340
12C
  0
BLOCK_RECORD
  5
161
330
1
100
AcDbSymbolTableRecord
100
AcDbBlockTableRecord
  2
*Paper_Space7
340
162
  0
ENDTAB
  0
ENDSEC
  0
SECTION
  2
BLOCKS
  0
BLOCK
  5
20
330
1F
100
AcDbEntity
  8
0
100
AcDbBlockBegin
  2
*Model_Space
 70
     0
 10
0.0
 20
0.0
 30
0.0
  3
*Model_Space
  1

  0
ENDBLK
  5
21
330
1F
100
AcDbEntity
  8
0
100
AcDbBlockEnd
  0
BLOCK
  5
1C
330
1B
100
AcDbEntity
 67
     1
  8
0
100
AcDbBlockBegin
  2
*Paper_Space
 70
     0
 10
0.0
 20
0.0
 30
0.0
  3
*Paper_Space
  1

  0
ENDBLK
  5
1D
330
1B
100
AcDbEntity
 67
     1
  8
0
100
AcDbBlockEnd
  0
BLOCK
  5
24
330
23
100
AcDbEntity
  8
0
100
AcDbBlockBegin
  2
*Paper_Space0
 70
     0
 10
0.0
 20
0.0
 30
0.0
  3
*Paper_Space0
  1

  0
LINE
  5
A5
330
23
100
AcDbEntity
  8
0
  6
Continuous
 62
     7
370
    25
100
AcDbLine
 10
0.0
 20
-3.0
 30
0.0
 11
0.0
 21
0.0
 31
0.0
  0
LINE
  5
A6
330
23
100
AcDbEntity
  8
0
  6
Continuous
 62
     7
370
    25
100
AcDbLine
 10
0.0
 20
0.0
 30
0.0
 11
112.0
 21
0.0
 31
0.0
  0
LINE
  5
A7
330
23
100
AcDbEntity
  8
0
  6
Continuous
 62
     7
370
    25
100
AcDbLine
 10
5.0
 20
0.0
 30
0.0
 11
5.0
 21
-3.0
 31
0.0
  0
LINE
  5
A8
330
23
100
AcDbEntity
  8
0
  6
Continuous
 62
     7
370
    25
100
AcDbLine
 10
0.0
 20
-3.0
 30
0.0
 11
112.0
 21
-3.0
 31
0.0
  0
LINE
  5
A9
330
23
100
AcDbEntity
  8
0
  6
Continuous
 62
     7
370
    25
100
AcDbLine
 10
107.0
 20
-3.0
 30
0.0
 11
107.0
 21
0.0
 31
0.0
  0
LINE
  5
AA
330
23
100
AcDbEntity
  8
0
  6
Continuous
 62
     7
370
    25
100
AcDbLine
 10
112.0
 20
0.0
 30
0.0
 11
112.0
 21
-3.0
 31
0.0
  0
VIEWPORT
  5
19D
330
23
100
AcDbEntity
  8
0
100
AcDbViewport
 10
0.0
 20
0.0
 30
0.0
 40
205.6
 41
156.0
 68
     1
 69
     1
 12
-56.0
 22
61.0
 13
0.0
 23
0.0
 14
10.0
 24
10.0
 15
10.0
 25
10.0
 16
0.0
 26
0.0
 36
1.0
 17
0.0
 27
0.0
 37
0.0
 42
50.0
 43
0.0
 44
0.0
 45
124.44
 50
0.0
 51
0.0
 72
   100
 90
   557152
  1

281
     0
 71
     1
 74
     0
110
0.0
120
0.0
130
0.0
111
1.0
121
0.0
131
0.0
112
0.0
122
1.0
132
0.0
 79
     0
146
0.0
  0
ENDBLK
  5
25
330
23
100
AcDbEntity
  8
0
100
AcDbBlockEnd
  0
BLOCK
  5
AD
330
AB
100
AcDbEntity
  8
0
100
AcDbBlockBegin
  2
*Paper_Space1
 70
     0
 10
0.0
 20
0.0
 30
0.0
  3
*Paper_Space1
  1

  0
CIRCLE
  5
B4
330
AB
100
AcDbEntity
  8
0
  6
Continuous
 62
     7
370
    25
100
AcDbCircle
 10
-107.0
 20
117.0
 30
0.0
 40
1.75
  0
CIRCLE
  5
B5
330
AB
100
AcDbEntity
  8
0
  6
Continuous
 62
     7
370
    25
100
AcDbCircle
 10
-5.0
 20
117.0
 30
0.0
 40
1.750000000000021
  0
CIRCLE
  5
B6
330
AB
100
AcDbEntity
  8
0
  6
Continuous
 62
     7
370
    25
100
AcDbCircle
 10
-5.0
 20
5.0
 30
0.0
 40
1.749999999999996
  0
CIRCLE
  5
B7
330
AB
100
AcDbEntity
  8
0
  6
Continuous
 62
     7
370
    25
100
AcDbCircle
 10
-107.0
 20
5.0
 30
0.0
 40
1.749999999999986
  0
LINE
  5
BB
330
AB
100
AcDbEntity
  8
0
  6
Continuous
 62
     7
370
    25
100
AcDbLine
 10
-5.0
 20
122.0
 30
0.0
 11
-107.0
 21
122.0
 31
0.0
  0
LINE
  5
BC
330
AB
100
AcDbEntity
  8
0
  6
Continuous
 62
     7
370
    25
100
AcDbLine
 10
0.0
 20
5.0
 30
0.0
 11
0.0
 21
117.0
 31
0.0
  0
LINE
  5
BD
330
AB
100
AcDbEntity
  8
0
  6
Continuous
 62
     7
370
    25
100
AcDbLine
 10
-5.0
 20
0.0
 30
0.0
 11
-107.0
 21
0.0
 31
0.0
  0
LINE
  5
BE
330
AB
100
AcDbEntity
  8
0
  6
Continuous
 62
     7
370
    25
100
AcDbLine
 10
-112.0
 20
5.0
 30
0.0
 11
-112.0
 21
117.0
 31
0.0
  0
ARC
  5
BF
330
AB
100
AcDbEntity
  8
0
  6
Continuous
 62
     7
370
    25
100
AcDbCircle
 10
-5.0
 20
117.0
 30
0.0
 40
5.000000000000006
100
AcDbArc
 50
0.0
 51
90.0
  0
ARC
  5
C0
330
AB
100
AcDbEntity
  8
0
  6
Continuous
 62
     7
370
    25
100
AcDbCircle
 10
-5.0
 20
5.0
 30
0.0
 40
4.999999999999993
100
AcDbArc
 50
270.0
 51
0.0
  0
ARC
  5
C1
330
AB
100
AcDbEntity
  8
0
  6
Continuous
 62
     7
370
    25
100
AcDbCircle
 10
-107.0
 20
5.0
 30
0.0
 40
5.0
100
AcDbArc
 50
180.0
 51
270.0
  0
ARC
  5
C2
330
AB
100
AcDbEntity
  8
0
  6
Continuous
 62
     7
370
    25
100
AcDbCircle
 10
-107.0
 20
117.0
 30
0.0
 40
4.999999999999986
100
AcDbArc
 50
90.0
 51
180.0
  0
VIEWPORT
  5
19F
330
AB
100
AcDbEntity
  8
0
100
AcDbViewport
 10
0.0
 20
0.0
 30
0.0
 40
205.6
 41
156.0
 68
     1
 69
     1
 12
-56.0
 22
61.0
 13
0.0
 23
0.0
 14
10.0
 24
10.0
 15
10.0
 25
10.0
 16
0.0
 26
0.0
 36
1.0
 17
0.0
 27
0.0
 37
0.0
 42
50.0
 43
0.0
 44
0.0
 45
124.44
 50
0.0
 51
0.0
 72
   100
 90
   557152
  1

281
     0
 71
     1
 74
     0
110
0.0
120
0.0
130
0.0
111
1.0
121
0.0
131
0.0
112
0.0
122
1.0
132
0.0
 79
     0
146
0.0
  0
ENDBLK
  5
AE
330
AB
100
AcDbEntity
  8
0
100
AcDbBlockEnd
  0
BLOCK
  5
C5
330
C3
100
AcDbEntity
  8
0
100
AcDbBlockBegin
  2
*Paper_Space2
 70
     0
 10
0.0
 20
0.0
 30
0.0
  3
*Paper_Space2
  1

  0
LINE
  5
D1
330
C3
100
AcDbEntity
  8
0
  6
Continuous
 62
     7
370
    25
100
AcDbLine
 10
3.0
 20
117.0
 30
0.0
 11
0.0
 21
117.0
 31
0.0
  0
LINE
  5
D2
330
C3
100
AcDbEntity
  8
0
  6
Continuous
 62
     7
370
    25
100
AcDbLine
 10
3.0
 20
0.0
 30
0.0
 11
3.0
 21
122.0
 31
0.0
  0
LINE
  5
D3
330
C3
100
AcDbEntity
  8
0
  6
Continuous
 62
     7
370
    25
100
AcDbLine
 10
0.0
 20
5.0
 30
0.0
 11
3.0
 21
5.0
 31
0.0
  0
LINE
  5
D4
330
C3
100
AcDbEntity
  8
0
  6
Continuous
 62
     7
370
    25
100
AcDbLine
 10
0.0
 20
0.0
 30
0.0
 11
0.0
 21
122.0
 31
0.0
  0
LINE
  5
D5
330
C3
100
AcDbEntity
  8
0
  6
Continuous
 62
     7
370
    25
100
AcDbLine
 10
0.0
 20
122.0
 30
0.0
 11
3.0
 21
122.0
 31
0.0
  0
LINE
  5
D6
330
C3
100
AcDbEntity
  8
0
  6
Continuous
 62
     7
370
    25
100
AcDbLine
 10
3.0
 20
0.0
 30
0.0
 11
0.0
 21
0.0
 31
0.0
  0
VIEWPORT
  5
1A1
330
C3
100
AcDbEntity
  8
0
100
AcDbViewport
 10
0.0
 20
0.0
 30
0.0
 40
205.6
 41
156.0
 68
     1
 69
     1
 12
-56.0
 22
61.0
 13
0.0
 23
0.0
 14
10.0
 24
10.0
 15
10.0
 25
10.0
 16
0.0
 26
0.0
 36
1.0
 17
0.0
 27
0.0
 37
0.0
 42
50.0
 43
0.0
 44
0.0
 45
124.44
 50
0.0
 51
0.0
 72
   100
 90
   557152
  1

281
     0
 71
     1
 74
     0
110
0.0
120
0.0
130
0.0
111
1.0
121
0.0
131
0.0
112
0.0
122
1.0
132
0.0
 79
     0
146
0.0
  0
ENDBLK
  5
C6
330
C3
100
AcDbEntity
  8
0
100
AcDbBlockEnd
  0
BLOCK
  5
D9
330
D7
100
AcDbEntity
  8
0
100
AcDbBlockBegin
  2
*Paper_Space3
 70
     0
 10
0.0
 20
0.0
 30
0.0
  3
*Paper_Space3
  1

  0
LINE
  5
E5
330
D7
100
AcDbEntity
  8
0
  6
Continuous
 62
     7
370
    25
100
AcDbLine
 10
-3.0
 20
122.0
 30
0.0
 11
0.0
 21
122.0
 31
0.0
  0
LINE
  5
E6
330
D7
100
AcDbEntity
  8
0
  6
Continuous
 62
     7
370
    25
100
AcDbLine
 10
0.0
 20
117.0
 30
0.0
 11
-3.0
 21
117.0
 31
0.0
  0
LINE
  5
E7
330
D7
100
AcDbEntity
  8
0
  6
Continuous
 62
     7
370
    25
100
AcDbLine
 10
-3.0
 20
5.0
 30
0.0
 11
0.0
 21
5.0
 31
0.0
  0
LINE
  5
E8
330
D7
100
AcDbEntity
  8
0
  6
Continuous
 62
     7
370
    25
100
AcDbLine
 10
0.0
 20
0.0
 30
0.0
 11
0.0
 21
122.0
 31
0.0
  0
LINE
  5
E9
330
D7
100
AcDbEntity
  8
0
  6
Continuous
 62
     7
370
    25
100
AcDbLine
 10
0.0
 20
0.0
 30
0.0
 11
-3.0
 21
0.0
 31
0.0
  0
LINE
  5
EA
330
D7
100
AcDbEntity
  8
0
  6
Continuous
 62
     7
370
    25
100
AcDbLine
 10
-3.0
 20
0.0
 30
0.0
 11
-3.0
 21
122.0
 31
0.0
  0
VIEWPORT
  5
1A3
330
D7
100
AcDbEntity
  8
0
100
AcDbViewport
 10
0.0
 20
0.0
 30
0.0
 40
205.6
 41
156.0
 68
     1
 69
     1
 12
-56.0
 22
61.0
 13
0.0
 23
0.0
 14
10.0
 24
10.0
 15
10.0
 25
10.0
 16
0.0
 26
0.0
 36
1.0
 17
0.0
 27
0.0
 37
0.0
 42
50.0
 43
0.0
 44
0.0
 45
124.44
 50
0.0
 51
0.0
 72
   100
 90
   557152
  1

281
     0
 71
     1
 74
     0
110
0.0
120
0.0
130
0.0
111
1.0
121
0.0
131
0.0
112
0.0
122
1.0
132
0.0
 79
     0
146
0.0
  0
ENDBLK
  5
DA
330
D7
100
AcDbEntity
  8
0
100
AcDbBlockEnd
  0
BLOCK
  5
ED
330
EB
100
AcDbEntity
  8
0
100
AcDbBlockBegin
  2
*Paper_Space4
 70
     0
 10
0.0
 20
0.0
 30
0.0
  3
*Paper_Space4
  1

  0
LINE
  5
F9
330
EB
100
AcDbEntity
  8
0
  6
Continuous
 62
     7
370
    25
100
AcDbLine
 10
107.0
 20
0.0
 30
0.0
 11
107.0
 21
3.0
 31
0.0
  0
LINE
  5
FA
330
EB
100
AcDbEntity
  8
0
  6
Continuous
 62
     7
370
    25
100
AcDbLine
 10
0.0
 20
0.0
 30
0.0
 11
112.0
 21
0.0
 31
0.0
  0
LINE
  5
FB
330
EB
100
AcDbEntity
  8
0
  6
Continuous
 62
     7
370
    25
100
AcDbLine
 10
5.0
 20
3.0
 30
0.0
 11
5.0
 21
0.0
 31
0.0
  0
LINE
  5
FC
330
EB
100
AcDbEntity
  8
0
  6
Continuous
 62
     7
370
    25
100
AcDbLine
 10
0.0
 20
3.0
 30
0.0
 11
112.0
 21
3.0
 31
0.0
  0
LINE
  5
FD
330
EB
100
AcDbEntity
  8
0
  6
Continuous
 62
     7
370
    25
100
AcDbLine
 10
0.0
 20
0.0
 30
0.0
 11
0.0
 21
3.0
 31
0.0
  0
LINE
  5
FE
330
EB
100
AcDbEntity
  8
0
  6
Continuous
 62
     7
370
    25
100
AcDbLine
 10
112.0
 20
3.0
 30
0.0
 11
112.0
 21
0.0
 31
0.0
  0
VIEWPORT
  5
1A5
330
EB
100
AcDbEntity
  8
0
100
AcDbViewport
 10
0.0
 20
0.0
 30
0.0
 40
205.6
 41
156.0
 68
     1
 69
     1
 12
-56.0
 22
61.0
 13
0.0
 23
0.0
 14
10.0
 24
10.0
 15
10.0
 25
10.0
 16
0.0
 26
0.0
 36
1.0
 17
0.0
 27
0.0
 37
0.0
 42
50.0
 43
0.0
 44
0.0
 45
124.44
 50
0.0
 51
0.0
 72
   100
 90
   557152
  1

281
     0
 71
     1
 74
     0
110
0.0
120
0.0
130
0.0
111
1.0
121
0.0
131
0.0
112
0.0
122
1.0
132
0.0
 79
     0
146
0.0
  0
ENDBLK
  5
EE
330
EB
100
AcDbEntity
  8
0
100
AcDbBlockEnd
  0
BLOCK
  5
101
330
FF
100
AcDbEntity
  8
0
100
AcDbBlockBegin
  2
*Paper_Space5
 70
     0
 10
0.0
 20
0.0
 30
0.0
  3
*Paper_Space5
  1

  0
LWPOLYLINE
  5
109
330
FF
100
AcDbEntity
  8
0
  6
Continuous
 62
     7
370
    25
100
AcDbPolyline
 90
       11
 70
   128
 43
0.0
 10
1.4142135624
 20
96.3523466028
 10
0.8611342072
 20
96.6213676565
 10
0.3216735013
 20
96.7832347954
 10
-0.1908852424
 20
96.8339623133
 10
-0.6639211265
 20
96.7723011304
 10
-1.0857864376
 20
96.5997695496
 10
-1.4460934517
 20
96.320615871
 10
-1.7359702143
 20
95.9417137847
 10
-1.9482789974
 20
95.4723931175
 10
-2.0777920543
 20
94.9242101018
 10
-2.1213203436
 20
94.3106628229
  0
LWPOLYLINE
  5
10C
330
FF
100
AcDbEntity
  8
0
  6
Continuous
 62
     7
370
    25
100
AcDbPolyline
 90
       11
 70
   128
 43
0.0
 10
73.5391052434
 20
-44.9024461502
 10
74.0921845986
 20
-45.171467204
 10
74.6316453045
 20
-45.3333343429
 10
75.1442040482
 20
-45.3840618608
 10
75.6172399323
 20
-45.3224006779
 10
76.0391052434
 20
-45.149869097
 10
76.3994122575
 20
-44.8707154185
 10
76.6892890201
 20
-44.4918133321
 10
76.9015978032
 20
-44.022492665
 10
77.0311108601
 20
-43.4743096493
 10
77.0746391493
 20
-42.8607623704
  0
LWPOLYLINE
  5
110
330
FF
100
AcDbEntity
  8
0
  6
Continuous
 62
     7
370
    25
100
AcDbPolyline
 90
       25
 70
   128
 43
0.0
 10
72.3016683763
 20
51.3471859382
 10
72.3438330151
 20
51.6926833585
 10
72.4674534809
 20
51.9659534449
 10
72.6641052434
 20
52.1483732926
 10
72.9203868099
 20
52.2275112904
 10
73.2188330151
 20
52.1979743145
 10
73.5391052434
 20
52.0617752612
 10
73.8593774717
 20
51.8281958707
 10
74.1578236769
 20
51.5131541925
 10
74.4141052434
 20
51.1381197964
 10
74.6107570059
 20
50.7286506567
 10
74.7343774717
 20
50.3126514185
 10
74.7765421105
 20
49.9184717425
 10
74.7343774717
 20
49.5729743222
 10
74.6107570059
 20
49.2997042359
 10
74.4141052434
 20
49.1172843882
 10
74.1578236769
 20
49.0381463904
 10
73.8593774717
 20
49.0676833662
 10
73.5391052434
 20
49.2038824196
 10
73.2188330151
 20
49.4374618101
 10
72.9203868099
 20
49.7525034882
 10
72.6641052434
 20
50.1275378844
 10
72.4674534809
 20
50.5370070241
 10
72.3438330151
 20
50.9530062623
 10
72.3016683763
 20
51.3471859382
  0
LWPOLYLINE
  5
111
330
FF
100
AcDbEntity
  8
0
  6
Continuous
 62
     7
370
    25
100
AcDbPolyline
 90
       25
 70
   128
 43
0.0
 10
0.1767766953
 20
92.9839996412
 10
0.2189413341
 20
93.3294970615
 10
0.3425617999
 20
93.6027671478
 10
0.5392135624
 20
93.7851869955
 10
0.7954951288
 20
93.8643249933
 10
1.0939413341
 20
93.8347880175
 10
1.4142135624
 20
93.6985889641
 10
1.7344857907
 20
93.4650095736
 10
2.0329319959
 20
93.1499678955
 10
2.2892135624
 20
92.7749334994
 10
2.4858653248
 20
92.3654643596
 10
2.6094857907
 20
91.9494651215
 10
2.6516504294
 20
91.5552854455
 10
2.6094857907
 20
91.2097880252
 10
2.4858653248
 20
90.9365179388
 10
2.2892135624
 20
90.7540980912
 10
2.0329319959
 20
90.6749600934
 10
1.7344857907
 20
90.7044970692
 10
1.4142135624
 20
90.8406961225
 10
1.0939413341
 20
91.074275513
 10
0.7954951288
 20
91.3893171912
 10
0.5392135624
 20
91.7643515873
 10
0.3425617999
 20
92.173820727
 10
0.2189413341
 20
92.5898199652
 10
0.1767766953
 20
92.9839996412
  0
LWPOLYLINE
  5
112
330
FF
100
AcDbEntity
  8
0
  6
Continuous
 62
     7
370
    25
100
AcDbPolyline
 90
       25
 70
   128
 43
0.0
 10
0.1767766953
 20
1.53142871
 10
0.2189413341
 20
1.8769261303
 10
0.3425617999
 20
2.1501962166
 10
0.5392135624
 20
2.3326160643
 10
0.7954951288
 20
2.4117540621
 10
1.0939413341
 20
2.3822170863
 10
1.4142135624
 20
2.2460180329
 10
1.7344857907
 20
2.0124386424
 10
2.0329319959
 20
1.6973969643
 10
2.2892135624
 20
1.3223625682
 10
2.4858653248
 20
0.9128934284
 10
2.6094857907
 20
0.4968941903
 10
2.6516504294
 20
0.1027145143
 10
2.6094857907
 20
-0.242782906
 10
2.4858653248
 20
-0.5160529924
 10
2.2892135624
 20
-0.69847284
 10
2.0329319959
 20
-0.7776108378
 10
1.7344857907
 20
-0.748073862
 10
1.4142135624
 20
-0.6118748087
 10
1.0939413341
 20
-0.3782954182
 10
0.7954951288
 20
-0.06325374
 10
0.5392135624
 20
0.3117806561
 10
0.3425617999
 20
0.7212497958
 10
0.2189413341
 20
1.137249034
 10
0.1767766953
 20
1.53142871
  0
LWPOLYLINE
  5
113
330
FF
100
AcDbEntity
  8
0
  6
Continuous
 62
     7
370
    25
100
AcDbPolyline
 90
       25
 70
   128
 43
0.0
 10
72.3016683763
 20
-40.105384993
 10
72.3438330151
 20
-39.7598875727
 10
72.4674534809
 20
-39.4866174863
 10
72.6641052434
 20
-39.3041976386
 10
72.9203868099
 20
-39.2250596408
 10
73.2188330151
 20
-39.2545966167
 10
73.5391052434
 20
-39.39079567
 10
73.8593774717
 20
-39.6243750605
 10
74.1578236769
 20
-39.9394167387
 10
74.4141052434
 20
-40.3144511348
 10
74.6107570059
 20
-40.7239202745
 10
74.7343774717
 20
-41.1399195127
 10
74.7765421105
 20
-41.5340991887
 10
74.7343774717
 20
-41.879596609
 10
74.6107570059
 20
-42.1528666953
 10
74.4141052434
 20
-42.335286543
 10
74.1578236769
 20
-42.4144245408
 10
73.8593774717
 20
-42.384887565
 10
73.5391052434
 20
-42.2486885116
 10
73.2188330151
 20
-42.0151091211
 10
72.9203868099
 20
-41.700067443
 10
72.6641052434
 20
-41.3250330468
 10
72.4674534809
 20
-40.9155639071
 10
72.3438330151
 20
-40.499564669
 10
72.3016683763
 20
-40.105384993
  0
LINE
  5
11A
330
FF
100
AcDbEntity
  8
0
  6
Continuous
 62
     7
370
    25
100
AcDbLine
 10
1.0357370743
 20
97.824499023
 30
0.0
 11
-1.0855832692
 21
96.5998868552
 31
0.0
  0
LINE
  5
11B
330
FF
100
AcDbEntity
  8
0
  6
Continuous
 62
     7
370
    25
100
AcDbLine
 10
76.038902075
 20
-45.1499864027
 30
0.0
 11
78.1602224186
 21
-43.925374235
 31
0.0
  0
LINE
  5
11C
330
FF
100
AcDbEntity
  8
0
  6
Continuous
 62
     7
370
    25
100
AcDbLine
 10
73.5391052434
 20
54.7155328998
 30
0.0
 11
75.660425587
 21
55.9401450675
 31
0.0
  0
LINE
  5
11D
330
FF
100
AcDbEntity
  8
0
  6
Continuous
 62
     7
370
    25
100
AcDbLine
 10
79.1959594929
 20
49.8164207286
 30
0.0
 11
77.0746391493
 21
48.5918085608
 31
0.0
  0
LINE
  5
11E
330
FF
100
AcDbEntity
  8
0
  6
Continuous
 62
     7
370
    25
100
AcDbLine
 10
1.4142135624
 20
96.3523466028
 30
0.0
 11
73.5391052434
 21
54.7155328998
 31
0.0
  0
LINE
  5
11F
330
FF
100
AcDbEntity
  8
0
  6
Continuous
 62
     7
370
    25
100
AcDbLine
 10
77.0746391493
 20
-42.8607623704
 30
0.0
 11
77.0746391493
 21
48.5918085608
 31
0.0
  0
LINE
  5
120
330
FF
100
AcDbEntity
  8
0
  6
Continuous
 62
     7
370
    25
100
AcDbLine
 10
1.4142135624
 20
-3.2656324473
 30
0.0
 11
73.5391052434
 21
-44.9024461502
 31
0.0
  0
LINE
  5
121
330
FF
100
AcDbEntity
  8
0
  6
Continuous
 62
     7
370
    25
100
AcDbLine
 10
-2.1213203436
 20
2.8580918917
 30
0.0
 11
-2.1213203436
 21
94.3106628229
 31
0.0
  0
LINE
  5
122
330
FF
100
AcDbEntity
  8
0
  6
Continuous
 62
     7
370
    25
100
AcDbLine
 10
77.0746391493
 20
-42.8607623704
 30
0.0
 11
79.1959594929
 21
-41.6361502026
 31
0.0
  0
LINE
  5
123
330
FF
100
AcDbEntity
  8
0
  6
Continuous
 62
     7
370
    25
100
AcDbLine
 10
79.1959594929
 20
-41.6361502026
 30
0.0
 11
79.1959594929
 21
49.8164207286
 31
0.0
  0
LINE
  5
124
330
FF
100
AcDbEntity
  8
0
  6
Continuous
 62
     7
370
    25
100
AcDbLine
 10
3.5355339059
 20
97.5769587705
 30
0.0
 11
1.4142135624
 21
96.3523466028
 31
0.0
  0
LINE
  5
125
330
FF
100
AcDbEntity
  8
0
  6
Continuous
 62
     7
370
    25
100
AcDbLine
 10
3.5355339059
 20
97.5769587705
 30
0.0
 11
75.660425587
 21
55.9401450675
 31
0.0
  0
ARC
  5
126
330
FF
100
AcDbEntity
  8
0
  6
Continuous
 62
     7
370
    25
100
AcDbCircle
 10
71.5746613967
 20
49.4987451069
 30
0.0
 40
7.627915997973632
100
AcDbArc
 50
2.3868561234
 51
57.6131440222
  0
ARC
  5
127
330
FF
100
AcDbEntity
  8
0
  6
Continuous
 62
     7
370
    25
100
AcDbCircle
 10
69.4533410531
 20
48.2741329391
 30
0.0
 40
7.627915997973608
100
AcDbArc
 50
2.3868561234
 51
57.6131440222
  0
ARC
  5
128
330
FF
100
AcDbEntity
  8
0
  6
Continuous
 62
     7
370
    25
100
AcDbCircle
 10
5.4999777527
 20
3.1757675134
 30
0.0
 40
7.627915997973696
100
AcDbArc
 50
182.3868561234
 51
237.6131440222
  0
ARC
  5
129
330
FF
100
AcDbEntity
  8
0
  6
Continuous
 62
     7
370
    25
100
AcDbCircle
 10
2.0666043388
 20
95.4888325585
 30
0.0
 40
2.553042332283458
100
AcDbArc
 50
54.8748474707
 51
113.8146941003
  0
ARC
  5
12A
330
FF
100
AcDbEntity
  8
0
  6
Continuous
 62
     7
370
    25
100
AcDbCircle
 10
76.7575935238
 20
-41.9118518966
 30
0.0
 40
2.453903018360762
100
AcDbArc
 50
304.8612461182
 51
6.4509342751
  0
VIEWPORT
  5
1A7
330
FF
100
AcDbEntity
  8
0
100
AcDbViewport
 10
0.0
 20
0.0
 30
0.0
 40
205.6
 41
156.0
 68
     1
 69
     1
 12
-56.0
 22
61.0
 13
0.0
 23
0.0
 14
10.0
 24
10.0
 15
10.0
 25
10.0
 16
0.0
 26
0.0
 36
1.0
 17
0.0
 27
0.0
 37
0.0
 42
50.0
 43
0.0
 44
0.0
 45
124.44
 50
0.0
 51
0.0
 72
   100
 90
   557152
  1

281
     0
 71
     1
 74
     0
110
0.0
120
0.0
130
0.0
111
1.0
121
0.0
131
0.0
112
0.0
122
1.0
132
0.0
 79
     0
146
0.0
  0
ENDBLK
  5
102
330
FF
100
AcDbEntity
  8
0
100
AcDbBlockEnd
  0
BLOCK
  5
12D
330
12B
100
AcDbEntity
  8
0
100
AcDbBlockBegin
  2
*Paper_Space6
 70
     0
 10
0.0
 20
0.0
 30
0.0
  3
*Paper_Space6
  1

  0
LWPOLYLINE
  5
13C
330
12B
100
AcDbEntity
  8
0
  6
Continuous
 62
     7
370
    25
100
AcDbPolyline
 90
       25
 70
   128
 43
0.0
 10
91.6849211398
 20
73.6235367463
 10
91.737658819
 20
73.997443414
 10
91.892277871
 20
74.3172030179
 10
92.138241263
 20
74.5610244694
 10
92.4587869962
 20
74.7122917394
 10
92.8320704087
 20
74.7606962135
 10
93.2326528527
 20
74.7029392068
 10
93.6332352967
 20
74.5429567638
 10
94.0065187092
 20
74.2916514237
 10
94.3270644424
 20
73.96614923
 10
94.5730278343
 20
73.5886326194
 10
94.7276468864
 20
73.184828725
 10
94.7803845656
 20
72.7822561149
 10
94.7276468864
 20
72.4083494471
 10
94.5730278343
 20
72.0885898432
 10
94.3270644424
 20
71.8447683917
 10
94.0065187092
 20
71.6935011217
 10
93.6332352967
 20
71.6450966476
 10
93.2326528527
 20
71.7028536543
 10
92.8320704087
 20
71.8628360973
 10
92.4587869962
 20
72.1141414374
 10
92.138241263
 20
72.4396436311
 10
91.892277871
 20
72.8171602417
 10
91.737658819
 20
73.2209641361
 10
91.6849211398
 20
73.6235367463
  0
LWPOLYLINE
  5
13D
330
12B
100
AcDbEntity
  8
0
  6
Continuous
 62
     7
370
    25
100
AcDbPolyline
 90
       25
 70
   128
 43
0.0
 10
1.4742727287
 20
98.140858004
 10
1.5270104079
 20
98.5147646718
 10
1.68162946
 20
98.8345242757
 10
1.9275928519
 20
99.0783457271
 10
2.2481385851
 20
99.2296129971
 10
2.6214219976
 20
99.2780174713
 10
3.0220044416
 20
99.2202604645
 10
3.4225868856
 20
99.0602780216
 10
3.7958702981
 20
98.8089726814
 10
4.1164160313
 20
98.4834704878
 10
4.3623794232
 20
98.1059538772
 10
4.5169984753
 20
97.7021499828
 10
4.5697361545
 20
97.2995773726
 10
4.5169984753
 20
96.9256707049
 10
4.3623794232
 20
96.605911101
 10
4.1164160313
 20
96.3620896495
 10
3.7958702981
 20
96.2108223795
 10
3.4225868856
 20
96.1624179054
 10
3.0220044416
 20
96.2201749121
 10
2.6214219976
 20
96.3801573551
 10
2.2481385851
 20
96.6314626952
 10
1.9275928519
 20
96.9569648888
 10
1.68162946
 20
97.3344814995
 10
1.5270104079
 20
97.7382853939
 10
1.4742727287
 20
98.140858004
  0
LWPOLYLINE
  5
13E
330
12B
100
AcDbEntity
  8
0
  6
Continuous
 62
     7
370
    25
100
AcDbPolyline
 90
       25
 70
   128
 43
0.0
 10
1.4742727287
 20
2.1381203254
 10
1.5270104079
 20
2.5120269931
 10
1.68162946
 20
2.831786597
 10
1.9275928519
 20
3.0756080485
 10
2.2481385851
 20
3.2268753185
 10
2.6214219976
 20
3.2752797926
 10
3.0220044416
 20
3.2175227859
 10
3.4225868856
 20
3.0575403429
 10
3.7958702981
 20
2.8062350028
 10
4.1164160313
 20
2.4807328091
 10
4.3623794232
 20
2.1032161985
 10
4.5169984753
 20
1.6994123041
 10
4.5697361545
 20
1.296839694
 10
4.5169984753
 20
0.9229330262
 10
4.3623794232
 20
0.6031734223
 10
4.1164160313
 20
0.3593519709
 10
3.7958702981
 20
0.2080847009
 10
3.4225868856
 20
0.1596802267
 10
3.0220044416
 20
0.2174372334
 10
2.6214219976
 20
0.3774196764
 10
2.2481385851
 20
0.6287250165
 10
1.9275928519
 20
0.9542272102
 10
1.68162946
 20
1.3317438208
 10
1.5270104079
 20
1.7355477152
 10
1.4742727287
 20
2.1381203254
  0
LWPOLYLINE
  5
13F
330
12B
100
AcDbEntity
  8
0
  6
Continuous
 62
     7
370
    25
100
AcDbPolyline
 90
       25
 70
   128
 43
0.0
 10
91.6849211398
 20
-22.3792009324
 10
91.737658819
 20
-22.0052942646
 10
91.892277871
 20
-21.6855346607
 10
92.138241263
 20
-21.4417132093
 10
92.4587869962
 20
-21.2904459393
 10
92.8320704087
 20
-21.2420414651
 10
93.2326528527
 20
-21.2997984719
 10
93.6332352967
 20
-21.4597809148
 10
94.0065187092
 20
-21.711086255
 10
94.3270644424
 20
-22.0365884486
 10
94.5730278343
 20
-22.4141050592
 10
94.7276468864
 20
-22.8179089536
 10
94.7803845656
 20
-23.2204815638
 10
94.7276468864
 20
-23.5943882315
 10
94.5730278343
 20
-23.9141478354
 10
94.3270644424
 20
-24.1579692869
 10
94.0065187092
 20
-24.3092365569
 10
93.6332352967
 20
-24.357641031
 10
93.2326528527
 20
-24.2998840243
 10
92.8320704087
 20
-24.1399015813
 10
92.4587869962
 20
-23.8885962412
 10
92.138241263
 20
-23.5630940476
 10
91.892277871
 20
-23.1855774369
 10
91.737658819
 20
-22.7817735425
 10
91.6849211398
 20
-22.3792009324
  0
LINE
  5
14A
330
12B
100
AcDbEntity
  8
0
  6
Continuous
 62
     7
370
    25
100
AcDbLine
 10
0.9296998151
 20
102.6649015733
 30
0.0
 11
-0.4703863517
 21
101.2983745528
 31
0.0
  0
LINE
  5
14B
330
12B
100
AcDbEntity
  8
0
  6
Continuous
 62
     7
370
    25
100
AcDbLine
 10
96.7250436459
 20
-26.3779981126
 30
0.0
 11
98.1251298127
 21
-25.0114710922
 31
0.0
  0
LINE
  5
14C
330
12B
100
AcDbEntity
  8
0
  6
Continuous
 62
     7
370
    25
100
AcDbLine
 10
93.2326528527
 20
77.4887329341
 30
0.0
 11
94.6327390195
 21
78.8552599545
 31
0.0
  0
LINE
  5
14D
330
12B
100
AcDbEntity
  8
0
  6
Continuous
 62
     7
370
    25
100
AcDbLine
 10
99.0548296279
 20
73.3675939776
 30
0.0
 11
97.6547434611
 21
72.0010669571
 31
0.0
  0
LINE
  5
14E
330
12B
100
AcDbEntity
  8
0
  6
Continuous
 62
     7
370
    25
100
AcDbLine
 10
3.0220044416
 20
102.0060541918
 30
0.0
 11
93.2326528527
 21
77.4887329341
 31
0.0
  0
LINE
  5
14F
330
12B
100
AcDbEntity
  8
0
  6
Continuous
 62
     7
370
    25
100
AcDbLine
 10
97.6547434611
 20
-24.0016707215
 30
0.0
 11
97.6547434611
 21
72.0010669571
 31
0.0
  0
LINE
  5
150
330
12B
100
AcDbEntity
  8
0
  6
Continuous
 62
     7
370
    25
100
AcDbLine
 10
3.0220044416
 20
-2.5683564938
 30
0.0
 11
93.2326528527
 21
-27.0856777516
 31
0.0
  0
LINE
  5
151
330
12B
100
AcDbEntity
  8
0
  6
Continuous
 62
     7
370
    25
100
AcDbLine
 10
-1.4000861668
 20
2.9193094831
 30
0.0
 11
-1.4000861668
 21
98.9220471617
 31
0.0
  0
LINE
  5
152
330
12B
100
AcDbEntity
  8
0
  6
Continuous
 62
     7
370
    25
100
AcDbLine
 10
4.4220906084
 20
103.3725812122
 30
0.0
 11
3.0220044416
 21
102.0060541918
 31
0.0
  0
LINE
  5
153
330
12B
100
AcDbEntity
  8
0
  6
Continuous
 62
     7
370
    25
100
AcDbLine
 10
4.4220906084
 20
103.3725812122
 30
0.0
 11
94.6327390195
 21
78.8552599545
 31
0.0
  0
LINE
  5
154
330
12B
100
AcDbEntity
  8
0
  6
Continuous
 62
     7
370
    25
100
AcDbLine
 10
97.6547434611
 20
-24.0016707215
 30
0.0
 11
99.0548296279
 21
-22.6351437011
 31
0.0
  0
LINE
  5
155
330
12B
100
AcDbEntity
  8
0
  6
Continuous
 62
     7
370
    25
100
AcDbLine
 10
99.0548296279
 20
-22.6351437011
 30
0.0
 11
99.0548296279
 21
73.3675939776
 31
0.0
  0
ARC
  5
156
330
12B
100
AcDbEntity
  8
0
  6
Continuous
 62
     7
370
    25
100
AcDbCircle
 10
93.0160805764
 20
73.0269730536
 30
0.0
 40
6.048347933201796
100
AcDbArc
 50
3.2283976279
 51
74.4969745105
  0
ARC
  5
157
330
12B
100
AcDbEntity
  8
0
  6
Continuous
 62
     7
370
    25
100
AcDbCircle
 10
91.6159944096
 20
71.6604460332
 30
0.0
 40
6.048347933201774
100
AcDbArc
 50
3.2283976279
 51
74.4969745105
  0
ARC
  5
158
330
12B
100
AcDbEntity
  8
0
  6
Continuous
 62
     7
370
    25
100
AcDbCircle
 10
1.8628688151
 20
98.9557402672
 30
0.0
 40
3.263128933917967
100
AcDbArc
 50
69.192940872
 51
180.5916122484
  0
ARC
  5
159
330
12B
100
AcDbEntity
  8
0
  6
Continuous
 62
     7
370
    25
100
AcDbCircle
 10
94.3917884792
 20
-24.035363827
 30
0.0
 40
3.26312893391799
100
AcDbArc
 50
249.192940872
 51
0.5916122484
  0
ARC
  5
15A
330
12B
100
AcDbEntity
  8
0
  6
Continuous
 62
     7
370
    25
100
AcDbCircle
 10
4.6386628847
 20
3.2599304071
 30
0.0
 40
6.048347933201818
100
AcDbArc
 50
183.2283976279
 51
254.4969745105
  0
ARC
  5
15B
330
12B
100
AcDbEntity
  8
0
  6
Continuous
 62
     7
370
    25
100
AcDbCircle
 10
95.2091757453
 20
75.1320433669
 30
0.0
 40
2.139880250744451
100
AcDbArc
 50
190.7708755289
 51
257.8391917092
  0
ARC
  5
15C
330
12B
100
AcDbEntity
  8
0
  6
Continuous
 62
     7
370
    25
100
AcDbCircle
 10
3.2899509989
 20
99.9883832203
 30
0.0
 40
3.568548184383417
100
AcDbArc
 50
71.5030025627
 51
131.4070195084
  0
ARC
  5
15D
330
12B
100
AcDbEntity
  8
0
  6
Continuous
 62
     7
370
    25
100
AcDbCircle
 10
4.9985273342
 20
99.6493646246
 30
0.0
 40
2.139880250744869
100
AcDbArc
 50
190.7708755289
 51
257.8391917091
  0
ARC
  5
15E
330
12B
100
AcDbEntity
  8
0
  6
Continuous
 62
     7
370
    25
100
AcDbCircle
 10
95.8377227085
 20
-22.7465311727
 30
0.0
 40
3.219034653383219
100
AcDbArc
 50
315.2827693947
 51
1.9829877511
  0
ARC
  5
15F
330
12B
100
AcDbEntity
  8
0
  6
Continuous
 62
     7
370
    25
100
AcDbCircle
 10
95.2091757453
 20
-20.8706943118
 30
0.0
 40
2.139880250746484
100
AcDbArc
 50
190.7708755292
 51
257.8391917089
  0
ARC
  5
160
330
12B
100
AcDbEntity
  8
0
  6
Continuous
 62
     7
370
    25
100
AcDbCircle
 10
4.9985273342
 20
3.646626946
 30
0.0
 40
2.139880250744623
100
AcDbArc
 50
190.7708755289
 51
257.8391917091
  0
VIEWPORT
  5
1A9
330
12B
100
AcDbEntity
  8
0
100
AcDbViewport
 10
0.0
 20
0.0
 30
0.0
 40
205.6
 41
156.0
 68
     1
 69
     1
 12
-56.0
 22
61.0
 13
0.0
 23
0.0
 14
10.0
 24
10.0
 15
10.0
 25
10.0
 16
0.0
 26
0.0
 36
1.0
 17
0.0
 27
0.0
 37
0.0
 42
50.0
 43
0.0
 44
0.0
 45
124.44
 50
0.0
 51
0.0
 72
   100
 90
   557152
  1

281
     0
 71
     1
 74
     0
110
0.0
120
0.0
130
0.0
111
1.0
121
0.0
131
0.0
112
0.0
122
1.0
132
0.0
 79
     0
146
0.0
  0
ENDBLK
  5
12E
330
12B
100
AcDbEntity
  8
0
100
AcDbBlockEnd
  0
BLOCK
  5
163
330
161
100
AcDbEntity
  8
0
100
AcDbBlockBegin
  2
*Paper_Space7
 70
     0
 10
0.0
 20
0.0
 30
0.0
  3
*Paper_Space7
  1

  0
LWPOLYLINE
  5
172
330
161
100
AcDbEntity
  8
0
  6
Continuous
 62
     7
370
    25
100
AcDbPolyline
 90
       25
 70
   128
 43
0.0
 10
97.3916998212
 20
96.9694120744
 10
97.4474783953
 20
97.3894142723
 10
97.6110129001
 20
97.766739135
 10
97.8711587293
 20
98.0756725966
 10
98.2101873746
 20
98.2951613522
 10
98.604994594
 20
98.4102476058
 10
99.0286749279
 20
98.4130884194
 10
99.4523552619
 20
98.3034901964
 10
99.8471624813
 20
98.0889218744
 10
100.1861911266
 20
97.78400593
 10
100.4463369558
 20
97.409521881
 10
100.6098714606
 20
96.9909901964
 10
100.6656500347
 20
96.5569331189
 10
100.6098714606
 20
96.1369309209
 10
100.4463369558
 20
95.7596060582
 10
100.1861911266
 20
95.4506725966
 10
99.8471624813
 20
95.2311838411
 10
99.4523552619
 20
95.1160975875
 10
99.0286749279
 20
95.1132567738
 10
98.604994594
 20
95.2228549968
 10
98.2101873746
 20
95.4374233188
 10
97.8711587293
 20
95.7423392632
 10
97.6110129001
 20
96.1168233122
 10
97.4474783953
 20
96.5353549968
 10
97.3916998212
 20
96.9694120744
  0
LWPOLYLINE
  5
173
330
161
100
AcDbEntity
  8
0
  6
Continuous
 62
     7
370
    25
100
AcDbPolyline
 90
       25
 70
   128
 43
0.0
 10
1.9794364553
 20
108.9902273489
 10
2.0352150295
 20
109.4102295469
 10
2.1987495343
 20
109.7875544096
 10
2.4588953635
 20
110.0964878711
 10
2.7979240087
 20
110.3159766267
 10
3.1927312281
 20
110.4310628803
 10
3.6164115621
 20
110.433903694
 10
4.0400918961
 20
110.3243054709
 10
4.4348991155
 20
110.109737149
 10
4.7739277607
 20
109.8048212046
 10
5.0340735899
 20
109.4303371556
 10
5.1976080947
 20
109.011805471
 10
5.2533866689
 20
108.5777483934
 10
5.1976080947
 20
108.1577461954
 10
5.0340735899
 20
107.7804213328
 10
4.7739277607
 20
107.4714878712
 10
4.4348991155
 20
107.2519991156
 10
4.0400918961
 20
107.136912862
 10
3.6164115621
 20
107.1340720483
 10
3.1927312281
 20
107.2436702714
 10
2.7979240087
 20
107.4582385934
 10
2.4588953635
 20
107.7631545377
 10
2.1987495343
 20
108.1376385868
 10
2.0352150295
 20
108.5561702714
 10
1.9794364553
 20
108.9902273489
  0
LWPOLYLINE
  5
174
330
161
100
AcDbEntity
  8
0
  6
Continuous
 62
     7
370
    25
100
AcDbPolyline
 90
       25
 70
   128
 43
0.0
 10
1.9794364553
 20
3.3956146886
 10
2.0352150295
 20
3.8156168866
 10
2.1987495343
 20
4.1929417492
 10
2.4588953635
 20
4.5018752108
 10
2.7979240087
 20
4.7213639664
 10
3.1927312281
 20
4.83645022
 10
3.6164115621
 20
4.8392910337
 10
4.0400918961
 20
4.7296928106
 10
4.4348991155
 20
4.5151244886
 10
4.7739277607
 20
4.2102085443
 10
5.0340735899
 20
3.8357244952
 10
5.1976080947
 20
3.4171928106
 10
5.2533866689
 20
2.9831357331
 10
5.1976080947
 20
2.5631335351
 10
5.0340735899
 20
2.1858086724
 10
4.7739277607
 20
1.8768752109
 10
4.4348991155
 20
1.6573864553
 10
4.0400918961
 20
1.5423002017
 10
3.6164115621
 20
1.539459388
 10
3.1927312281
 20
1.6490576111
 10
2.7979240087
 20
1.863625933
 10
2.4588953635
 20
2.1685418774
 10
2.1987495343
 20
2.5430259264
 10
2.0352150295
 20
2.961557611
 10
1.9794364553
 20
3.3956146886
  0
LWPOLYLINE
  5
175
330
161
100
AcDbEntity
  8
0
  6
Continuous
 62
     7
370
    25
100
AcDbPolyline
 90
       25
 70
   128
 43
0.0
 10
97.3916998212
 20
-8.625200586
 10
97.4474783953
 20
-8.205198388
 10
97.6110129001
 20
-7.8278735253
 10
97.8711587293
 20
-7.5189400638
 10
98.2101873746
 20
-7.2994513082
 10
98.604994594
 20
-7.1843650546
 10
99.0286749279
 20
-7.1815242409
 10
99.4523552619
 20
-7.2911224639
 10
99.8471624813
 20
-7.5056907859
 10
100.1861911266
 20
-7.8106067303
 10
100.4463369558
 20
-8.1850907793
 10
100.6098714606
 20
-8.6036224639
 10
100.6656500347
 20
-9.0376795415
 10
100.6098714606
 20
-9.4576817394
 10
100.4463369558
 20
-9.8350066021
 10
100.1861911266
 20
-10.1439400637
 10
99.8471624813
 20
-10.3634288193
 10
99.4523552619
 20
-10.4785150729
 10
99.0286749279
 20
-10.4813558865
 10
98.604994594
 20
-10.3717576635
 10
98.2101873746
 20
-10.1571893415
 10
97.8711587293
 20
-9.8522733972
 10
97.6110129001
 20
-9.4777893481
 10
97.4474783953
 20
-9.0592576635
 10
97.3916998212
 20
-8.625200586
  0
LWPOLYLINE
  5
17A
330
161
100
AcDbEntity
  8
0
  6
Continuous
 62
     7
370
    25
100
AcDbPolyline
 90
        3
 70
   128
 43
0.0
 10
98.4523599927
 20
97.9048264209
 10
98.5081385669
 20
98.3248286188
 10
98.5301251616
 20
98.3975198632
  0
LWPOLYLINE
  5
17D
330
161
100
AcDbEntity
  8
0
  6
Continuous
 62
     7
370
    25
100
AcDbPolyline
 90
        3
 70
   128
 43
0.0
 10
3.0400966269
 20
109.9256416954
 10
3.095875201
 20
110.3456438934
 10
3.1178617957
 20
110.4183351377
  0
LWPOLYLINE
  5
180
330
161
100
AcDbEntity
  8
0
  6
Continuous
 62
     7
370
    25
100
AcDbPolyline
 90
        3
 70
   128
 43
0.0
 10
98.4523599927
 20
-7.6897862395
 10
98.5081385669
 20
-7.2697840415
 10
98.5301251616
 20
-7.1970927972
  0
LWPOLYLINE
  5
182
330
161
100
AcDbEntity
  8
0
  6
Continuous
 62
     7
370
    25
100
AcDbPolyline
 90
        3
 70
   128
 43
0.0
 10
3.0400966269
 20
4.3310290351
 10
3.095875201
 20
4.7510312331
 10
3.1178617957
 20
4.8237224774
  0
LINE
  5
184
330
161
100
AcDbEntity
  8
0
  6
Continuous
 62
     7
370
    25
100
AcDbLine
 10
1.3698825947
 20
113.4694022176
 30
0.0
 11
0.3092224232
 21
112.5339878711
 31
0.0
  0
LINE
  5
185
330
161
100
AcDbEntity
  8
0
  6
Continuous
 62
     7
370
    25
100
AcDbLine
 10
102.3358640668
 20
-12.5814400637
 30
0.0
 11
103.3965242384
 21
-11.6460257172
 31
0.0
  0
LINE
  5
186
330
161
100
AcDbEntity
  8
0
  6
Continuous
 62
     7
370
    25
100
AcDbLine
 10
99.0286749279
 20
101.4772178047
 30
0.0
 11
100.0893350995
 21
102.4126321512
 31
0.0
  0
LINE
  5
187
330
161
100
AcDbEntity
  8
0
  6
Continuous
 62
     7
370
    25
100
AcDbLine
 10
104.7664068331
 20
97.1093312924
 30
0.0
 11
103.7057466616
 21
96.1739169459
 31
0.0
  0
LINE
  5
188
330
161
100
AcDbEntity
  8
0
  6
Continuous
 62
     7
370
    25
100
AcDbLine
 10
3.6164115621
 20
113.4980330792
 30
0.0
 11
99.0286749279
 21
101.4772178047
 31
0.0
  0
LINE
  5
189
330
161
100
AcDbEntity
  8
0
  6
Continuous
 62
     7
370
    25
100
AcDbLine
 10
103.7057466616
 20
-9.4206957144
 30
0.0
 11
103.7057466616
 21
96.1739169459
 31
0.0
  0
LINE
  5
18A
330
161
100
AcDbEntity
  8
0
  6
Continuous
 62
     7
370
    25
100
AcDbLine
 10
3.6164115621
 20
-1.5246699972
 30
0.0
 11
99.0286749279
 21
-13.5454852718
 31
0.0
  0
LINE
  5
18B
330
161
100
AcDbEntity
  8
0
  6
Continuous
 62
     7
370
    25
100
AcDbLine
 10
-1.0606601715
 20
3.7786308615
 30
0.0
 11
-1.0606601715
 21
109.3732435219
 31
0.0
  0
LINE
  5
18C
330
161
100
AcDbEntity
  8
0
  6
Continuous
 62
     7
370
    25
100
AcDbLine
 10
104.7664068331
 20
-8.4852813679
 30
0.0
 11
104.7664068331
 21
97.1093312924
 31
0.0
  0
LINE
  5
18D
330
161
100
AcDbEntity
  8
0
  6
Continuous
 62
     7
370
    25
100
AcDbLine
 10
103.7057466616
 20
-9.4206957144
 30
0.0
 11
104.7664068331
 21
-8.4852813679
 31
0.0
  0
LINE
  5
18E
330
161
100
AcDbEntity
  8
0
  6
Continuous
 62
     7
370
    25
100
AcDbLine
 10
4.6770717336
 20
114.4334474257
 30
0.0
 11
3.6164115621
 21
113.4980330792
 31
0.0
  0
LINE
  5
18F
330
161
100
AcDbEntity
  8
0
  6
Continuous
 62
     7
370
    25
100
AcDbLine
 10
4.6770717336
 20
114.4334474257
 30
0.0
 11
100.0893350995
 21
102.4126321512
 31
0.0
  0
ARC
  5
190
330
161
100
AcDbEntity
  8
0
  6
Continuous
 62
     7
370
    25
100
AcDbCircle
 10
99.3171326743
 20
97.0175684168
 30
0.0
 40
5.450046723058537
100
AcDbArc
 50
0.9647392397
 51
81.8545049821
  0
ARC
  5
191
330
161
100
AcDbEntity
  8
0
  6
Continuous
 62
     7
370
    25
100
AcDbCircle
 10
98.2564725027
 20
96.0821540703
 30
0.0
 40
5.450046723058552
100
AcDbArc
 50
0.9647392397
 51
81.8545049821
  0
ARC
  5
192
330
161
100
AcDbEntity
  8
0
  6
Continuous
 62
     7
370
    25
100
AcDbCircle
 10
3.0158096757
 20
109.4650063975
 30
0.0
 40
4.077502524974245
100
AcDbArc
 50
81.5297123691
 51
181.2895318533
  0
ARC
  5
193
330
161
100
AcDbEntity
  8
0
  6
Continuous
 62
     7
370
    25
100
AcDbCircle
 10
99.6292768143
 20
-9.5124585901
 30
0.0
 40
4.077502524974244
100
AcDbArc
 50
261.5297123691
 51
1.2895318533
  0
ARC
  5
194
330
161
100
AcDbEntity
  8
0
  6
Continuous
 62
     7
370
    25
100
AcDbCircle
 10
4.3886139873
 20
3.8703937372
 30
0.0
 40
5.450046723058522
100
AcDbArc
 50
180.9647392397
 51
261.8545049821
  0
ARC
  5
195
330
161
100
AcDbEntity
  8
0
  6
Continuous
 62
     7
370
    25
100
AcDbCircle
 10
100.3169285792
 20
97.9090205022
 30
0.0
 40
1.864573303436827
100
AcDbArc
 50
180.1288784733
 51
278.355701232
  0
ARC
  5
196
330
161
100
AcDbEntity
  8
0
  6
Continuous
 62
     7
370
    25
100
AcDbCircle
 10
4.0892862262
 20
110.2951313983
 30
0.0
 40
4.179850636703273
100
AcDbArc
 50
81.9160690035
 51
130.5867247613
  0
ARC
  5
197
330
161
100
AcDbEntity
  8
0
  6
Continuous
 62
     7
370
    25
100
AcDbCircle
 10
4.9046652133
 20
109.9298357767
 30
0.0
 40
1.864573303439027
100
AcDbArc
 50
180.1288784733
 51
278.3557012311
  0
ARC
  5
198
330
161
100
AcDbEntity
  8
0
  6
Continuous
 62
     7
370
    25
100
AcDbCircle
 10
100.6063191061
 20
-8.5595074952
 30
0.0
 40
4.160749862055449
100
AcDbArc
 50
312.1135064741
 51
1.0221882057
  0
ARC
  5
199
330
161
100
AcDbEntity
  8
0
  6
Continuous
 62
     7
370
    25
100
AcDbCircle
 10
100.3169285792
 20
-7.6855921582
 30
0.0
 40
1.864573303436974
100
AcDbArc
 50
180.1288784733
 51
278.3557012319
  0
ARC
  5
19A
330
161
100
AcDbEntity
  8
0
  6
Continuous
 62
     7
370
    25
100
AcDbCircle
 10
4.9046652133
 20
4.3352231164
 30
0.0
 40
1.864573303436845
100
AcDbArc
 50
180.1288784733
 51
278.355701232
  0
VIEWPORT
  5
1AB
330
161
100
AcDbEntity
  8
0
100
AcDbViewport
 10
0.0
 20
0.0
 30
0.0
 40
205.6
 41
156.0
 68
     1
 69
     1
 12
-56.0
 22
61.0
 13
0.0
 23
0.0
 14
10.0
 24
10.0
 15
10.0
 25
10.0
 16
0.0
 26
0.0
 36
1.0
 17
0.0
 27
0.0
 37
0.0
 42
50.0
 43
0.0
 44
0.0
 45
124.44
 50
0.0
 51
0.0
 72
   100
 90
   557152
  1

281
     0
 71
     1
 74
     0
110
0.0
120
0.0
130
0.0
111
1.0
121
0.0
131
0.0
112
0.0
122
1.0
132
0.0
 79
     0
146
0.0
  0
ENDBLK
  5
164
330
161
100
AcDbEntity
  8
0
100
AcDbBlockEnd
  0
ENDSEC
  0
SECTION
  2
ENTITIES
  0
CIRCLE
  5
79
330
1F
100
AcDbEntity
  8
0
  6
Continuous
 62
     7
370
    25
100
AcDbCircle
 10
-107.0
 20
117.0
 30
0.0
 40
1.75
  0
CIRCLE
  5
7A
330
1F
100
AcDbEntity
  8
0
  6
Continuous
 62
     7
370
    25
100
AcDbCircle
 10
-5.0
 20
117.0
 30
0.0
 40
1.750000000000021
  0
CIRCLE
  5
7B
330
1F
100
AcDbEntity
  8
0
  6
Continuous
 62
     7
370
    25
100
AcDbCircle
 10
-5.0
 20
5.0
 30
0.0
 40
1.749999999999996
  0
CIRCLE
  5
7C
330
1F
100
AcDbEntity
  8
0
  6
Continuous
 62
     7
370
    25
100
AcDbCircle
 10
-107.0
 20
5.0
 30
0.0
 40
1.749999999999986
  0
LINE
  5
7F
330
1F
100
AcDbEntity
  8
0
  6
Continuous
 62
     7
370
    25
100
AcDbLine
 10
-112.0
 20
5.0
 30
0.0
 11
-112.0
 21
117.0
 31
0.0
  0
LINE
  5
80
330
1F
100
AcDbEntity
  8
0
  6
Continuous
 62
     7
370
    25
100
AcDbLine
 10
-5.0
 20
122.0
 30
0.0
 11
-107.0
 21
122.0
 31
0.0
  0
LINE
  5
81
330
1F
100
AcDbEntity
  8
0
  6
Continuous
 62
     7
370
    25
100
AcDbLine
 10
0.0
 20
5.0
 30
0.0
 11
0.0
 21
117.0
 31
0.0
  0
LINE
  5
82
330
1F
100
AcDbEntity
  8
0
  6
Continuous
 62
     7
370
    25
100
AcDbLine
 10
-5.0
 20
0.0
 30
0.0
 11
-107.0
 21
0.0
 31
0.0
  0
ARC
  5
83
330
1F
100
AcDbEntity
  8
0
  6
Continuous
 62
     7
370
    25
100
AcDbCircle
 10
-107.0
 20
5.0
 30
0.0
 40
5.0
100
AcDbArc
 50
180.0
 51
270.0
  0
ARC
  5
84
330
1F
100
AcDbEntity
  8
0
  6
Continuous
 62
     7
370
    25
100
AcDbCircle
 10
-107.0
 20
117.0
 30
0.0
 40
4.999999999999986
100
AcDbArc
 50
90.0
 51
180.0
  0
ARC
  5
85
330
1F
100
AcDbEntity
  8
0
  6
Continuous
 62
     7
370
    25
100
AcDbCircle
 10
-5.0
 20
117.0
 30
0.0
 40
5.000000000000006
100
AcDbArc
 50
0.0
 51
90.0
  0
ARC
  5
86
330
1F
100
AcDbEntity
  8
0
  6
Continuous
 62
     7
370
    25
100
AcDbCircle
 10
-5.0
 20
5.0
 30
0.0
 40
4.999999999999993
100
AcDbArc
 50
270.0
 51
0.0
  0
CIRCLE
  5
8B
330
1B
100
AcDbEntity
 67
     1
  8
0
  6
Continuous
 62
     7
370
    25
100
AcDbCircle
 10
107.0
 20
117.0
 30
0.0
 40
1.75
  0
CIRCLE
  5
8C
330
1B
100
AcDbEntity
 67
     1
  8
0
  6
Continuous
 62
     7
370
    25
100
AcDbCircle
 10
5.0
 20
117.0
 30
0.0
 40
1.750000000000021
  0
CIRCLE
  5
8D
330
1B
100
AcDbEntity
 67
     1
  8
0
  6
Continuous
 62
     7
370
    25
100
AcDbCircle
 10
5.0
 20
5.0
 30
0.0
 40
1.749999999999996
  0
CIRCLE
  5
8E
330
1B
100
AcDbEntity
 67
     1
  8
0
  6
Continuous
 62
     7
370
    25
100
AcDbCircle
 10
107.0
 20
5.0
 30
0.0
 40
1.749999999999986
  0
LINE
  5
93
330
1B
100
AcDbEntity
 67
     1
  8
0
  6
Continuous
 62
     7
370
    25
100
AcDbLine
 10
5.0
 20
122.0
 30
0.0
 11
107.0
 21
122.0
 31
0.0
  0
LINE
  5
94
330
1B
100
AcDbEntity
 67
     1
  8
0
  6
Continuous
 62
     7
370
    25
100
AcDbLine
 10
112.0
 20
5.0
 30
0.0
 11
112.0
 21
117.0
 31
0.0
  0
LINE
  5
95
330
1B
100
AcDbEntity
 67
     1
  8
0
  6
Continuous
 62
     7
370
    25
100
AcDbLine
 10
5.0
 20
0.0
 30
0.0
 11
107.0
 21
0.0
 31
0.0
  0
LINE
  5
96
330
1B
100
AcDbEntity
 67
     1
  8
0
  6
Continuous
 62
     7
370
    25
100
AcDbLine
 10
0.0
 20
5.0
 30
0.0
 11
0.0
 21
117.0
 31
0.0
  0
ARC
  5
97
330
1B
100
AcDbEntity
 67
     1
  8
0
  6
Continuous
 62
     7
370
    25
100
AcDbCircle
 10
5.0
 20
117.0
 30
0.0
 40
5.0
100
AcDbArc
 50
90.0
 51
180.0
  0
ARC
  5
98
330
1B
100
AcDbEntity
 67
     1
  8
0
  6
Continuous
 62
     7
370
    25
100
AcDbCircle
 10
107.0
 20
117.0
 30
0.0
 40
4.999999999999986
100
AcDbArc
 50
0.0
 51
90.0
  0
ARC
  5
99
330
1B
100
AcDbEntity
 67
     1
  8
0
  6
Continuous
 62
     7
370
    25
100
AcDbCircle
 10
107.0
 20
5.0
 30
0.0
 40
5.000000000000003
100
AcDbArc
 50
270.0
 51
0.0
  0
ARC
  5
9A
330
1B
100
AcDbEntity
 67
     1
  8
0
  6
Continuous
 62
     7
370
    25
100
AcDbCircle
 10
5.0
 20
5.0
 30
0.0
 40
4.999999999999996
100
AcDbArc
 50
180.0
 51
270.0
  0
VIEWPORT
  5
19B
330
1B
100
AcDbEntity
 67
     1
  8
0
100
AcDbViewport
 10
0.0
 20
0.0
 30
0.0
 40
205.6
 41
156.0
 68
     1
 69
     1
 12
-56.0
 22
61.0
 13
0.0
 23
0.0
 14
10.0
 24
10.0
 15
10.0
 25
10.0
 16
0.0
 26
0.0
 36
1.0
 17
0.0
 27
0.0
 37
0.0
 42
50.0
 43
0.0
 44
0.0
 45
124.44
 50
0.0
 51
0.0
 72
   100
 90
   557152
  1

281
     0
 71
     1
 74
     0
110
0.0
120
0.0
130
0.0
111
1.0
121
0.0
131
0.0
112
0.0
122
1.0
132
0.0
 79
     0
146
0.0
  0
ENDSEC
  0
SECTION
  2
OBJECTS
  0
DICTIONARY
  5
C
330
0
100
AcDbDictionary
281
     1
  3
ACAD_GROUP
350
D
  3
ACAD_LAYOUT
350
1A
  3
ACAD_MLINESTYLE
350
17
  3
ACAD_PLOTSETTINGS
350
19
  3
ACAD_PLOTSTYLENAME
350
E
  3
ACAD_SCALELIST
350
47
  3
DWGPROPS
350
1AD
  0
DICTIONARY
  5
D
102
{ACAD_REACTORS
330
C
102
}
330
C
100
AcDbDictionary
281
     1
  0
DICTIONARY
  5
1A
102
{ACAD_REACTORS
330
C
102
}
330
C
100
AcDbDictionary
281
     1
  3
_Back
350
AC
  3
_Bottom
350
EC
  3
_Dimetric
350
162
  3
_Front
350
1E
  3
_Isometric
350
100
  3
_Left
350
C4
  3
_Right
350
D8
  3
_Top
350
26
  3
_Trimetric
350
12C
  3
Model
350
22
  0
DICTIONARY
  5
17
102
{ACAD_REACTORS
330
C
102
}
330
C
100
AcDbDictionary
281
     1
  3
Standard
350
18
  0
DICTIONARY
  5
19
102
{ACAD_REACTORS
330
C
102
}
330
C
100
AcDbDictionary
281
     1
  0
ACDBDICTIONARYWDFLT
  5
E
102
{ACAD_REACTORS
330
C
102
}
330
C
100
AcDbDictionary
281
     1
  3
Normal
350
F
100
AcDbDictionaryWithDefault
340
F
  0
DICTIONARY
  5
47
102
{ACAD_REACTORS
330
C
102
}
330
C
100
AcDbDictionary
281
     1
  3
A0
350
48
  3
A1
350
49
  3
A2
350
4A
  3
A3
350
4B
  3
A4
350
4C
  3
A5
350
4D
  3
A6
350
4E
  3
A7
350
4F
  3
A8
350
50
  3
A9
350
51
  3
B0
350
52
  3
B1
350
53
  3
B2
350
54
  3
B3
350
55
  3
B4
350
56
  3
B5
350
57
  3
B6
350
58
  3
B7
350
59
  3
B8
350
5A
  3
B9
350
5B
  3
C0
350
5C
  3
C1
350
5D
  3
C2
350
5E
  3
C3
350
5F
  3
C4
350
60
  3
C5
350
61
  3
C6
350
62
  3
C7
350
63
  3
C8
350
64
  3
C9
350
65
  3
D0
350
66
  3
D1
350
67
  3
D2
350
68
  0
XRECORD
  5
1AD
102
{ACAD_REACTORS
330
C
102
}
330
C
100
AcDbXrecord
280
     1
  1
DWGPROPS COOKIE
  2

  3

  4

  6

  7

  8
ASUS
  9

300
=
301
=
302
=
303
=
304
=
305
=
306
=
307
=
308
=
309
=
 40
0.0
 41
2460761.292723472
 42
2460761.29279015
  1

 90
        0
  0
LAYOUT
  5
AC
102
{ACAD_REACTORS
330
1A
102
}
330
1A
100
AcDbPlotSettings
  1

  2
none_device
  4
ISO_A4_(210.00_x_297.00_MM)
  6

 40
7.5
 41
20.0
 42
7.5
 43
20.0
 44
210.0
 45
297.0
 46
0.0
 47
0.0
 48
0.0
 49
0.0
140
0.0
141
0.0
142
1.0
143
0.6256410256
 70
   688
 72
     1
 73
     1
 74
     1
  7

 75
     0
147
1.5983606557
148
0.0
149
0.0
100
AcDbLayout
  1
_Back
 70
     1
 71
     3
 10
0.0
 20
0.0
 11
0.0
 21
0.0
 12
0.0
 22
0.0
 32
0.0
 14
0.0
 24
0.0
 34
0.0
 15
0.0
 25
0.0
 35
0.0
146
0.0
 13
0.0
 23
0.0
 33
0.0
 16
1.0
 26
0.0
 36
0.0
 17
0.0
 27
1.0
 37
0.0
 76
     0
330
AB
331
19F
  0
LAYOUT
  5
EC
102
{ACAD_REACTORS
330
1A
102
}
330
1A
100
AcDbPlotSettings
  1

  2
none_device
  4
ISO_A4_(210.00_x_297.00_MM)
  6

 40
7.5
 41
20.0
 42
7.5
 43
20.0
 44
210.0
 45
297.0
 46
0.0
 47
0.0
 48
0.0
 49
0.0
140
0.0
141
0.0
142
1.0
143
0.6256410256
 70
   688
 72
     1
 73
     1
 74
     1
  7

 75
     0
147
1.5983606557
148
0.0
149
0.0
100
AcDbLayout
  1
_Bottom
 70
     1
 71
     6
 10
0.0
 20
0.0
 11
0.0
 21
0.0
 12
0.0
 22
0.0
 32
0.0
 14
0.0
 24
0.0
 34
0.0
 15
0.0
 25
0.0
 35
0.0
146
0.0
 13
0.0
 23
0.0
 33
0.0
 16
1.0
 26
0.0
 36
0.0
 17
0.0
 27
1.0
 37
0.0
 76
     0
330
EB
331
1A5
  0
LAYOUT
  5
162
102
{ACAD_REACTORS
330
1A
102
}
330
1A
100
AcDbPlotSettings
  1

  2
none_device
  4
ISO_A4_(210.00_x_297.00_MM)
  6

 40
7.5
 41
20.0
 42
7.5
 43
20.0
 44
210.0
 45
297.0
 46
0.0
 47
0.0
 48
0.0
 49
0.0
140
0.0
141
0.0
142
1.0
143
0.6256410256
 70
   688
 72
     1
 73
     1
 74
     1
  7

 75
     0
147
1.5983606557
148
0.0
149
0.0
100
AcDbLayout
  1
_Dimetric
 70
     1
 71
     9
 10
0.0
 20
0.0
 11
0.0
 21
0.0
 12
0.0
 22
0.0
 32
0.0
 14
0.0
 24
0.0
 34
0.0
 15
0.0
 25
0.0
 35
0.0
146
0.0
 13
0.0
 23
0.0
 33
0.0
 16
1.0
 26
0.0
 36
0.0
 17
0.0
 27
1.0
 37
0.0
 76
     0
330
161
331
1AB
  0
LAYOUT
  5
1E
102
{ACAD_REACTORS
330
1A
102
}
330
1A
100
AcDbPlotSettings
  1

  2
none_device
  4
ISO_A4_(210.00_x_297.00_MM)
  6

 40
7.5
 41
20.0
 42
7.5
 43
20.0
 44
210.0
 45
297.0
 46
0.0
 47
0.0
 48
0.0
 49
0.0
140
0.0
141
0.0
142
1.0
143
0.6256410256
 70
   688
 72
     1
 73
     1
 74
     1
  7

 75
     0
147
1.5983606557
148
0.0
149
0.0
100
AcDbLayout
  1
_Front
 70
     1
 71
     1
 10
-12.5128205128
 20
-4.6923076923
 11
173.3025641026
 21
126.6923076923
 12
0.0
 22
0.0
 32
0.0
 14
0.0
 24
0.0
 34
0.0
 15
112.0
 25
122.0
 35
0.0
146
0.0
 13
0.0
 23
0.0
 33
0.0
 16
1.0
 26
0.0
 36
0.0
 17
0.0
 27
1.0
 37
0.0
 76
     0
330
1B
331
19B
  0
LAYOUT
  5
100
102
{ACAD_REACTORS
330
1A
102
}
330
1A
100
AcDbPlotSettings
  1

  2
none_device
  4
ISO_A4_(210.00_x_297.00_MM)
  6

 40
7.5
 41
20.0
 42
7.5
 43
20.0
 44
210.0
 45
297.0
 46
0.0
 47
0.0
 48
0.0
 49
0.0
140
0.0
141
0.0
142
1.0
143
0.6256410256
 70
   688
 72
     1
 73
     1
 74
     1
  7

 75
     0
147
1.5983606557
148
0.0
149
0.0
100
AcDbLayout
  1
_Isometric
 70
     1
 71
     7
 10
0.0
 20
0.0
 11
0.0
 21
0.0
 12
0.0
 22
0.0
 32
0.0
 14
0.0
 24
0.0
 34
0.0
 15
0.0
 25
0.0
 35
0.0
146
0.0
 13
0.0
 23
0.0
 33
0.0
 16
1.0
 26
0.0
 36
0.0
 17
0.0
 27
1.0
 37
0.0
 76
     0
330
FF
331
1A7
  0
LAYOUT
  5
C4
102
{ACAD_REACTORS
330
1A
102
}
330
1A
100
AcDbPlotSettings
  1

  2
none_device
  4
ISO_A4_(210.00_x_297.00_MM)
  6

 40
7.5
 41
20.0
 42
7.5
 43
20.0
 44
210.0
 45
297.0
 46
0.0
 47
0.0
 48
0.0
 49
0.0
140
0.0
141
0.0
142
1.0
143
0.6256410256
 70
   688
 72
     1
 73
     1
 74
     1
  7

 75
     0
147
1.5983606557
148
0.0
149
0.0
100
AcDbLayout
  1
_Left
 70
     1
 71
     4
 10
0.0
 20
0.0
 11
0.0
 21
0.0
 12
0.0
 22
0.0
 32
0.0
 14
0.0
 24
0.0
 34
0.0
 15
0.0
 25
0.0
 35
0.0
146
0.0
 13
0.0
 23
0.0
 33
0.0
 16
1.0
 26
0.0
 36
0.0
 17
0.0
 27
1.0
 37
0.0
 76
     0
330
C3
331
1A1
  0
LAYOUT
  5
D8
102
{ACAD_REACTORS
330
1A
102
}
330
1A
100
AcDbPlotSettings
  1

  2
none_device
  4
ISO_A4_(210.00_x_297.00_MM)
  6

 40
7.5
 41
20.0
 42
7.5
 43
20.0
 44
210.0
 45
297.0
 46
0.0
 47
0.0
 48
0.0
 49
0.0
140
0.0
141
0.0
142
1.0
143
0.6256410256
 70
   688
 72
     1
 73
     1
 74
     1
  7

 75
     0
147
1.5983606557
148
0.0
149
0.0
100
AcDbLayout
  1
_Right
 70
     1
 71
     5
 10
0.0
 20
0.0
 11
0.0
 21
0.0
 12
0.0
 22
0.0
 32
0.0
 14
0.0
 24
0.0
 34
0.0
 15
0.0
 25
0.0
 35
0.0
146
0.0
 13
0.0
 23
0.0
 33
0.0
 16
1.0
 26
0.0
 36
0.0
 17
0.0
 27
1.0
 37
0.0
 76
     0
330
D7
331
1A3
  0
LAYOUT
  5
26
102
{ACAD_REACTORS
330
1A
102
}
330
1A
100
AcDbPlotSettings
  1

  2
none_device
  4
ISO_A4_(210.00_x_297.00_MM)
  6

 40
7.5
 41
20.0
 42
7.5
 43
20.0
 44
210.0
 45
297.0
 46
0.0
 47
0.0
 48
0.0
 49
0.0
140
0.0
141
0.0
142
1.0
143
0.6256410256
 70
   688
 72
     1
 73
     1
 74
     1
  7

 75
     0
147
1.5983606557
148
0.0
149
0.0
100
AcDbLayout
  1
_Top
 70
     1
 71
     2
 10
0.0
 20
0.0
 11
0.0
 21
0.0
 12
0.0
 22
0.0
 32
0.0
 14
0.0
 24
0.0
 34
0.0
 15
0.0
 25
0.0
 35
0.0
146
0.0
 13
0.0
 23
0.0
 33
0.0
 16
1.0
 26
0.0
 36
0.0
 17
0.0
 27
1.0
 37
0.0
 76
     0
330
23
331
19D
  0
LAYOUT
  5
12C
102
{ACAD_REACTORS
330
1A
102
}
330
1A
100
AcDbPlotSettings
  1

  2
none_device
  4
ISO_A4_(210.00_x_297.00_MM)
  6

 40
7.5
 41
20.0
 42
7.5
 43
20.0
 44
210.0
 45
297.0
 46
0.0
 47
0.0
 48
0.0
 49
0.0
140
0.0
141
0.0
142
1.0
143
0.6256410256
 70
   688
 72
     1
 73
     1
 74
     1
  7

 75
     0
147
1.5983606557
148
0.0
149
0.0
100
AcDbLayout
  1
_Trimetric
 70
     1
 71
     8
 10
0.0
 20
0.0
 11
0.0
 21
0.0
 12
0.0
 22
0.0
 32
0.0
 14
0.0
 24
0.0
 34
0.0
 15
0.0
 25
0.0
 35
0.0
146
0.0
 13
0.0
 23
0.0
 33
0.0
 16
1.0
 26
0.0
 36
0.0
 17
0.0
 27
1.0
 37
0.0
 76
     0
330
12B
331
1A9
  0
LAYOUT
  5
22
102
{ACAD_REACTORS
330
1A
102
}
330
1A
100
AcDbPlotSettings
  1

  2
none_device
  4
ANSI_A_(11.00_x_8.50_Inches)
  6

 40
6.35
 41
19.05
 42
6.35000508
 43
19.05000254
 44
279.4
 45
215.9
 46
231.4606204108
 47
-17.97050127
 48
0.0
 49
0.0
140
0.0
141
0.0
142
0.0689754098
143
1.0
 70
  1696
 72
     0
 73
     0
 74
     0
  7

 75
     0
147
0.0179189148
148
-1300.4909072572
149
0.0
100
AcDbLayout
  1
Model
 70
     1
 71
     0
 10
0.0
 20
0.0
 11
420.0
 21
297.0
 12
0.0
 22
0.0
 32
0.0
 14
-112.0
 24
0.0
 34
0.0
 15
0.0
 25
122.0
 35
0.0
146
0.0
 13
0.0
 23
0.0
 33
0.0
 16
1.0
 26
0.0
 36
0.0
 17
0.0
 27
1.0
 37
0.0
 76
     0
330
1F
331
29
  0
MLINESTYLE
  5
18
102
{ACAD_REACTORS
330
17
102
}
330
17
100
AcDbMlineStyle
  2
Standard
 70
     0
  3

 62
   256
 51
90.0
 52
90.0
 71
     2
 49
0.5
 62
   256
  6
BYLAYER
 49
-0.5
 62
   256
  6
BYLAYER
  0
ACDBPLACEHOLDER
  5
F
102
{ACAD_REACTORS
330
E
102
}
330
E
  0
SCALE
  5
48
102
{ACAD_REACTORS
330
47
102
}
330
47
100
AcDbScale
 70
     0
300
1:1
140
1.0
141
1.0
290
     1
  0
SCALE
  5
49
102
{ACAD_REACTORS
330
47
102
}
330
47
100
AcDbScale
 70
     0
300
1:2
140
1.0
141
2.0
290
     0
  0
SCALE
  5
4A
102
{ACAD_REACTORS
330
47
102
}
330
47
100
AcDbScale
 70
     0
300
1:4
140
1.0
141
4.0
290
     0
  0
SCALE
  5
4B
102
{ACAD_REACTORS
330
47
102
}
330
47
100
AcDbScale
 70
     0
300
1:5
140
1.0
141
5.0
290
     0
  0
SCALE
  5
4C
102
{ACAD_REACTORS
330
47
102
}
330
47
100
AcDbScale
 70
     0
300
1:8
140
1.0
141
8.0
290
     0
  0
SCALE
  5
4D
102
{ACAD_REACTORS
330
47
102
}
330
47
100
AcDbScale
 70
     0
300
1:10
140
1.0
141
10.0
290
     0
  0
SCALE
  5
4E
102
{ACAD_REACTORS
330
47
102
}
330
47
100
AcDbScale
 70
     0
300
1:16
140
1.0
141
16.0
290
     0
  0
SCALE
  5
4F
102
{ACAD_REACTORS
330
47
102
}
330
47
100
AcDbScale
 70
     0
300
1:20
140
1.0
141
20.0
290
     0
  0
SCALE
  5
50
102
{ACAD_REACTORS
330
47
102
}
330
47
100
AcDbScale
 70
     0
300
1:30
140
1.0
141
30.0
290
     0
  0
SCALE
  5
51
102
{ACAD_REACTORS
330
47
102
}
330
47
100
AcDbScale
 70
     0
300
1:40
140
1.0
141
40.0
290
     0
  0
SCALE
  5
52
102
{ACAD_REACTORS
330
47
102
}
330
47
100
AcDbScale
 70
     0
300
1:50
140
1.0
141
50.0
290
     0
  0
SCALE
  5
53
102
{ACAD_REACTORS
330
47
102
}
330
47
100
AcDbScale
 70
     0
300
1:100
140
1.0
141
100.0
290
     0
  0
SCALE
  5
54
102
{ACAD_REACTORS
330
47
102
}
330
47
100
AcDbScale
 70
     0
300
2:1
140
2.0
141
1.0
290
     0
  0
SCALE
  5
55
102
{ACAD_REACTORS
330
47
102
}
330
47
100
AcDbScale
 70
     0
300
4:1
140
4.0
141
1.0
290
     0
  0
SCALE
  5
56
102
{ACAD_REACTORS
330
47
102
}
330
47
100
AcDbScale
 70
     0
300
8:1
140
8.0
141
1.0
290
     0
  0
SCALE
  5
57
102
{ACAD_REACTORS
330
47
102
}
330
47
100
AcDbScale
 70
     0
300
10:1
140
10.0
141
1.0
290
     0
  0
SCALE
  5
58
102
{ACAD_REACTORS
330
47
102
}
330
47
100
AcDbScale
 70
     0
300
100:1
140
100.0
141
1.0
290
     0
  0
SCALE
  5
59
102
{ACAD_REACTORS
330
47
102
}
330
47
100
AcDbScale
 70
     0
300
1/128" = 1'-0"
140
0.0078125
141
12.0
290
     0
  0
SCALE
  5
5A
102
{ACAD_REACTORS
330
47
102
}
330
47
100
AcDbScale
 70
     0
300
1/64" = 1'-0"
140
0.015625
141
12.0
290
     0
  0
SCALE
  5
5B
102
{ACAD_REACTORS
330
47
102
}
330
47
100
AcDbScale
 70
     0
300
1/32" = 1'-0"
140
0.03125
141
12.0
290
     0
  0
SCALE
  5
5C
102
{ACAD_REACTORS
330
47
102
}
330
47
100
AcDbScale
 70
     0
300
1/16" = 1'-0"
140
0.0625
141
12.0
290
     0
  0
SCALE
  5
5D
102
{ACAD_REACTORS
330
47
102
}
330
47
100
AcDbScale
 70
     0
300
3/32" = 1'-0"
140
0.09375
141
12.0
290
     0
  0
SCALE
  5
5E
102
{ACAD_REACTORS
330
47
102
}
330
47
100
AcDbScale
 70
     0
300
1/8" = 1'-0"
140
0.125
141
12.0
290
     0
  0
SCALE
  5
5F
102
{ACAD_REACTORS
330
47
102
}
330
47
100
AcDbScale
 70
     0
300
3/16" = 1'-0"
140
0.1875
141
12.0
290
     0
  0
SCALE
  5
60
102
{ACAD_REACTORS
330
47
102
}
330
47
100
AcDbScale
 70
     0
300
1/4" = 1'-0"
140
0.25
141
12.0
290
     0
  0
SCALE
  5
61
102
{ACAD_REACTORS
330
47
102
}
330
47
100
AcDbScale
 70
     0
300
3/8" = 1'-0"
140
0.375
141
12.0
290
     0
  0
SCALE
  5
62
102
{ACAD_REACTORS
330
47
102
}
330
47
100
AcDbScale
 70
     0
300
1/2" = 1'-0"
140
0.5
141
12.0
290
     0
  0
SCALE
  5
63
102
{ACAD_REACTORS
330
47
102
}
330
47
100
AcDbScale
 70
     0
300
3/4" = 1'-0"
140
0.75
141
12.0
290
     0
  0
SCALE
  5
64
102
{ACAD_REACTORS
330
47
102
}
330
47
100
AcDbScale
 70
     0
300
1" = 1'-0"
140
1.0
141
12.0
290
     0
  0
SCALE
  5
65
102
{ACAD_REACTORS
330
47
102
}
330
47
100
AcDbScale
 70
     0
300
1-1/2" = 1'-0"
140
1.5
141
12.0
290
     0
  0
SCALE
  5
66
102
{ACAD_REACTORS
330
47
102
}
330
47
100
AcDbScale
 70
     0
300
3" = 1'-0"
140
3.0
141
12.0
290
     0
  0
SCALE
  5
67
102
{ACAD_REACTORS
330
47
102
}
330
47
100
AcDbScale
 70
     0
300
6" = 1'-0"
140
6.0
141
12.0
290
     0
  0
SCALE
  5
68
102
{ACAD_REACTORS
330
47
102
}
330
47
100
AcDbScale
 70
     0
300
1'-0" = 1'-0"
140
12.0
141
12.0
290
     0
  0
ENDSEC
  0
EOF
